<svg xmlns="http://www.w3.org/2000/svg" xmlns:xlink="http://www.w3.org/1999/xlink" zoomAndPan="magnify" preserveAspectRatio="xMidYMid meet" version="1.0" viewBox="105.58 112.2 167.59 114.27"><defs><g></g><clipPath id="id1"><path d="M 176 112.199219 L 225.460938 112.199219 L 225.460938 162 L 176 162 Z M 176 112.199219 " clip-rule="nonzero"></path></clipPath><clipPath id="id2"><path d="M 149.710938 138 L 199 138 L 199 187.199219 L 149.710938 187.199219 Z M 149.710938 138 " clip-rule="nonzero"></path></clipPath></defs><g clip-path="url(#id1)"><path fill="rgb(40.388489%, 86.268616%, 100%)" d="M 225.4375 149.773438 C 225.4375 156.007812 220.359375 161.054688 214.085938 161.054688 L 190.839844 161.054688 C 182.804688 161.054688 176.277344 154.570312 176.277344 146.582031 L 176.277344 123.480469 C 176.277344 117.246094 181.355469 112.199219 187.628906 112.199219 C 193.902344 112.199219 198.980469 117.246094 198.980469 123.480469 L 198.980469 138.492188 L 214.085938 138.492188 C 220.359375 138.492188 225.4375 143.558594 225.4375 149.773438 Z M 225.4375 149.773438 " fill-opacity="1" fill-rule="nonzero"></path></g><g clip-path="url(#id2)"><path fill="rgb(34.509277%, 49.01886%, 100%)" d="M 149.738281 149.628906 C 149.738281 143.394531 154.816406 138.347656 161.089844 138.347656 L 184.335938 138.347656 C 192.371094 138.347656 198.894531 144.832031 198.894531 152.816406 L 198.894531 175.917969 C 198.894531 182.152344 193.820312 187.199219 187.546875 187.199219 C 181.273438 187.199219 176.195312 182.152344 176.195312 175.917969 L 176.195312 160.90625 L 161.089844 160.90625 C 154.816406 160.90625 149.738281 155.863281 149.738281 149.628906 Z M 149.738281 149.628906 " fill-opacity="1" fill-rule="nonzero"></path></g><path fill="rgb(15.289307%, 12.548828%, 100%)" d="M 198.894531 152.816406 L 198.894531 161.054688 L 190.839844 161.054688 C 182.804688 161.054688 176.277344 154.570312 176.277344 146.582031 L 176.277344 138.347656 L 184.335938 138.347656 C 192.371094 138.347656 198.894531 144.832031 198.894531 152.816406 Z M 198.894531 152.816406 " fill-opacity="1" fill-rule="nonzero"></path><g fill="rgb(15.289307%, 12.548828%, 100%)" fill-opacity="1"><g transform="translate(102.346493, 225.924698)"><g><path d="M 3.234375 -25.203125 L 13.859375 -25.203125 C 15.109375 -25.203125 16.234375 -25.019531 17.234375 -24.65625 C 18.242188 -24.300781 19.097656 -23.820312 19.796875 -23.21875 C 20.492188 -22.613281 21.023438 -21.90625 21.390625 -21.09375 C 21.765625 -20.28125 21.953125 -19.429688 21.953125 -18.546875 C 21.953125 -17.535156 21.769531 -16.695312 21.40625 -16.03125 C 21.050781 -15.375 20.660156 -14.84375 20.234375 -14.4375 C 19.722656 -13.957031 19.160156 -13.582031 18.546875 -13.3125 C 19.410156 -13.050781 20.1875 -12.644531 20.875 -12.09375 C 21.457031 -11.613281 21.992188 -10.984375 22.484375 -10.203125 C 22.972656 -9.421875 23.21875 -8.421875 23.21875 -7.203125 C 23.21875 -6.210938 23.019531 -5.28125 22.625 -4.40625 C 22.226562 -3.53125 21.65625 -2.769531 20.90625 -2.125 C 20.164062 -1.476562 19.257812 -0.960938 18.1875 -0.578125 C 17.125 -0.191406 15.921875 0 14.578125 0 L 3.234375 0 Z M 14.21875 -4.6875 C 15.300781 -4.6875 16.140625 -4.96875 16.734375 -5.53125 C 17.335938 -6.09375 17.640625 -6.828125 17.640625 -7.734375 C 17.640625 -8.648438 17.335938 -9.390625 16.734375 -9.953125 C 16.140625 -10.515625 15.300781 -10.796875 14.21875 -10.796875 L 8.640625 -10.796875 L 8.640625 -4.6875 Z M 13.5 -15.484375 C 14.414062 -15.484375 15.125 -15.722656 15.625 -16.203125 C 16.125 -16.679688 16.375 -17.28125 16.375 -18 C 16.375 -18.71875 16.125 -19.316406 15.625 -19.796875 C 15.125 -20.273438 14.414062 -20.515625 13.5 -20.515625 L 8.640625 -20.515625 L 8.640625 -15.484375 Z M 13.5 -15.484375 "></path></g></g></g><g fill="rgb(15.289307%, 12.548828%, 100%)" fill-opacity="1"><g transform="translate(126.466545, 225.924698)"><g><path d="M 10.625 0.359375 C 9.320312 0.359375 8.097656 0.117188 6.953125 -0.359375 C 5.816406 -0.835938 4.820312 -1.492188 3.96875 -2.328125 C 3.125 -3.171875 2.460938 -4.144531 1.984375 -5.25 C 1.503906 -6.351562 1.265625 -7.539062 1.265625 -8.8125 C 1.265625 -10.0625 1.503906 -11.242188 1.984375 -12.359375 C 2.460938 -13.484375 3.125 -14.460938 3.96875 -15.296875 C 4.820312 -16.140625 5.816406 -16.800781 6.953125 -17.28125 C 8.097656 -17.757812 9.320312 -18 10.625 -18 C 11.914062 -18 13.128906 -17.757812 14.265625 -17.28125 C 15.410156 -16.800781 16.410156 -16.140625 17.265625 -15.296875 C 18.117188 -14.460938 18.785156 -13.484375 19.265625 -12.359375 C 19.742188 -11.242188 19.984375 -10.0625 19.984375 -8.8125 C 19.984375 -7.539062 19.742188 -6.351562 19.265625 -5.25 C 18.785156 -4.144531 18.117188 -3.171875 17.265625 -2.328125 C 16.410156 -1.492188 15.410156 -0.835938 14.265625 -0.359375 C 13.128906 0.117188 11.914062 0.359375 10.625 0.359375 Z M 10.625 -4.140625 C 11.25 -4.140625 11.835938 -4.257812 12.390625 -4.5 C 12.941406 -4.738281 13.421875 -5.0625 13.828125 -5.46875 C 14.234375 -5.875 14.550781 -6.363281 14.78125 -6.9375 C 15.007812 -7.519531 15.125 -8.144531 15.125 -8.8125 C 15.125 -9.488281 15.007812 -10.113281 14.78125 -10.6875 C 14.550781 -11.269531 14.234375 -11.765625 13.828125 -12.171875 C 13.421875 -12.578125 12.941406 -12.898438 12.390625 -13.140625 C 11.835938 -13.378906 11.25 -13.5 10.625 -13.5 C 10 -13.5 9.410156 -13.378906 8.859375 -13.140625 C 8.304688 -12.898438 7.820312 -12.578125 7.40625 -12.171875 C 7 -11.765625 6.679688 -11.269531 6.453125 -10.6875 C 6.234375 -10.113281 6.125 -9.488281 6.125 -8.8125 C 6.125 -8.144531 6.234375 -7.519531 6.453125 -6.9375 C 6.679688 -6.363281 7 -5.875 7.40625 -5.46875 C 7.820312 -5.0625 8.304688 -4.738281 8.859375 -4.5 C 9.410156 -4.257812 10 -4.140625 10.625 -4.140625 Z M 10.625 -4.140625 "></path></g></g></g><g fill="rgb(15.289307%, 12.548828%, 100%)" fill-opacity="1"><g transform="translate(146.986585, 225.924698)"><g><path d="M 6.84375 0.359375 C 6.019531 0.359375 5.28125 0.234375 4.625 -0.015625 C 3.96875 -0.265625 3.40625 -0.617188 2.9375 -1.078125 C 2.46875 -1.535156 2.097656 -2.066406 1.828125 -2.671875 C 1.566406 -3.285156 1.4375 -3.957031 1.4375 -4.6875 C 1.4375 -6.125 1.898438 -7.351562 2.828125 -8.375 C 3.753906 -9.394531 5.03125 -10.046875 6.65625 -10.328125 L 12.234375 -11.34375 C 12.140625 -11.96875 11.832031 -12.515625 11.3125 -12.984375 C 10.800781 -13.453125 10.09375 -13.6875 9.1875 -13.6875 C 8.5625 -13.6875 8 -13.582031 7.5 -13.375 C 7.007812 -13.164062 6.597656 -12.929688 6.265625 -12.671875 C 5.859375 -12.378906 5.507812 -12.054688 5.21875 -11.703125 L 2.34375 -14.578125 C 2.84375 -15.203125 3.453125 -15.765625 4.171875 -16.265625 C 4.796875 -16.703125 5.550781 -17.097656 6.4375 -17.453125 C 7.332031 -17.816406 8.367188 -18 9.546875 -18 C 10.671875 -18 11.691406 -17.816406 12.609375 -17.453125 C 13.535156 -17.097656 14.332031 -16.601562 15 -15.96875 C 15.675781 -15.332031 16.191406 -14.585938 16.546875 -13.734375 C 16.910156 -12.878906 17.09375 -11.960938 17.09375 -10.984375 L 17.09375 0 L 12.234375 0 L 12.234375 -2.15625 L 12.0625 -2.15625 C 11.675781 -1.675781 11.234375 -1.257812 10.734375 -0.90625 C 10.296875 -0.5625 9.742188 -0.265625 9.078125 -0.015625 C 8.421875 0.234375 7.675781 0.359375 6.84375 0.359375 Z M 8.453125 -3.59375 C 9.535156 -3.59375 10.4375 -3.957031 11.15625 -4.6875 C 11.875 -5.425781 12.234375 -6.382812 12.234375 -7.5625 L 12.234375 -7.921875 L 8.28125 -7.203125 C 7.65625 -7.078125 7.164062 -6.859375 6.8125 -6.546875 C 6.46875 -6.234375 6.296875 -5.851562 6.296875 -5.40625 C 6.296875 -4.851562 6.472656 -4.410156 6.828125 -4.078125 C 7.191406 -3.753906 7.734375 -3.59375 8.453125 -3.59375 Z M 8.453125 -3.59375 "></path></g></g></g><g fill="rgb(15.289307%, 12.548828%, 100%)" fill-opacity="1"><g transform="translate(165.706628, 225.924698)"><g></g></g></g><g fill="rgb(15.289307%, 12.548828%, 100%)" fill-opacity="1"><g transform="translate(172.546641, 225.924698)"><g><path d="M 10.4375 0.546875 C 8.800781 0.546875 7.378906 0.34375 6.171875 -0.0625 C 4.960938 -0.476562 3.945312 -0.9375 3.125 -1.4375 C 2.164062 -2.007812 1.363281 -2.671875 0.71875 -3.421875 L 4.3125 -7.015625 C 4.75 -6.515625 5.269531 -6.0625 5.875 -5.65625 C 6.375 -5.3125 6.988281 -5 7.71875 -4.71875 C 8.445312 -4.445312 9.296875 -4.3125 10.265625 -4.3125 C 11.703125 -4.3125 12.75 -4.585938 13.40625 -5.140625 C 14.070312 -5.691406 14.40625 -6.378906 14.40625 -7.203125 C 14.40625 -7.921875 14.09375 -8.488281 13.46875 -8.90625 C 12.84375 -9.332031 12.0625 -9.710938 11.125 -10.046875 C 10.1875 -10.378906 9.175781 -10.722656 8.09375 -11.078125 C 7.019531 -11.441406 6.015625 -11.914062 5.078125 -12.5 C 4.140625 -13.09375 3.359375 -13.847656 2.734375 -14.765625 C 2.109375 -15.691406 1.796875 -16.890625 1.796875 -18.359375 C 1.796875 -19.347656 2.003906 -20.289062 2.421875 -21.1875 C 2.847656 -22.082031 3.453125 -22.863281 4.234375 -23.53125 C 5.015625 -24.207031 5.972656 -24.742188 7.109375 -25.140625 C 8.242188 -25.535156 9.535156 -25.734375 10.984375 -25.734375 C 12.367188 -25.734375 13.59375 -25.550781 14.65625 -25.1875 C 15.726562 -24.832031 16.613281 -24.441406 17.3125 -24.015625 C 18.132812 -23.503906 18.84375 -22.9375 19.4375 -22.3125 L 15.84375 -18.71875 C 15.457031 -19.125 15.035156 -19.484375 14.578125 -19.796875 C 14.171875 -20.066406 13.675781 -20.3125 13.09375 -20.53125 C 12.519531 -20.757812 11.875 -20.875 11.15625 -20.875 C 9.789062 -20.875 8.816406 -20.632812 8.234375 -20.15625 C 7.660156 -19.675781 7.375 -19.078125 7.375 -18.359375 C 7.375 -17.640625 7.6875 -17.066406 8.3125 -16.640625 C 8.9375 -16.222656 9.71875 -15.847656 10.65625 -15.515625 C 11.59375 -15.179688 12.597656 -14.832031 13.671875 -14.46875 C 14.753906 -14.113281 15.765625 -13.640625 16.703125 -13.046875 C 17.640625 -12.460938 18.421875 -11.707031 19.046875 -10.78125 C 19.671875 -9.851562 19.984375 -8.660156 19.984375 -7.203125 C 19.984375 -6.171875 19.765625 -5.1875 19.328125 -4.25 C 18.898438 -3.3125 18.269531 -2.488281 17.4375 -1.78125 C 16.613281 -1.070312 15.613281 -0.503906 14.4375 -0.078125 C 13.257812 0.335938 11.925781 0.546875 10.4375 0.546875 Z M 10.4375 0.546875 "></path></g></g></g><g fill="rgb(15.289307%, 12.548828%, 100%)" fill-opacity="1"><g transform="translate(192.886688, 225.924698)"><g><path d="M 6.84375 0.359375 C 6.019531 0.359375 5.28125 0.234375 4.625 -0.015625 C 3.96875 -0.265625 3.40625 -0.617188 2.9375 -1.078125 C 2.46875 -1.535156 2.097656 -2.066406 1.828125 -2.671875 C 1.566406 -3.285156 1.4375 -3.957031 1.4375 -4.6875 C 1.4375 -6.125 1.898438 -7.351562 2.828125 -8.375 C 3.753906 -9.394531 5.03125 -10.046875 6.65625 -10.328125 L 12.234375 -11.34375 C 12.140625 -11.96875 11.832031 -12.515625 11.3125 -12.984375 C 10.800781 -13.453125 10.09375 -13.6875 9.1875 -13.6875 C 8.5625 -13.6875 8 -13.582031 7.5 -13.375 C 7.007812 -13.164062 6.597656 -12.929688 6.265625 -12.671875 C 5.859375 -12.378906 5.507812 -12.054688 5.21875 -11.703125 L 2.34375 -14.578125 C 2.84375 -15.203125 3.453125 -15.765625 4.171875 -16.265625 C 4.796875 -16.703125 5.550781 -17.097656 6.4375 -17.453125 C 7.332031 -17.816406 8.367188 -18 9.546875 -18 C 10.671875 -18 11.691406 -17.816406 12.609375 -17.453125 C 13.535156 -17.097656 14.332031 -16.601562 15 -15.96875 C 15.675781 -15.332031 16.191406 -14.585938 16.546875 -13.734375 C 16.910156 -12.878906 17.09375 -11.960938 17.09375 -10.984375 L 17.09375 0 L 12.234375 0 L 12.234375 -2.15625 L 12.0625 -2.15625 C 11.675781 -1.675781 11.234375 -1.257812 10.734375 -0.90625 C 10.296875 -0.5625 9.742188 -0.265625 9.078125 -0.015625 C 8.421875 0.234375 7.675781 0.359375 6.84375 0.359375 Z M 8.453125 -3.59375 C 9.535156 -3.59375 10.4375 -3.957031 11.15625 -4.6875 C 11.875 -5.425781 12.234375 -6.382812 12.234375 -7.5625 L 12.234375 -7.921875 L 8.28125 -7.203125 C 7.65625 -7.078125 7.164062 -6.859375 6.8125 -6.546875 C 6.46875 -6.234375 6.296875 -5.851562 6.296875 -5.40625 C 6.296875 -4.851562 6.472656 -4.410156 6.828125 -4.078125 C 7.191406 -3.753906 7.734375 -3.59375 8.453125 -3.59375 Z M 8.453125 -3.59375 "></path></g></g></g><g fill="rgb(15.289307%, 12.548828%, 100%)" fill-opacity="1"><g transform="translate(211.606732, 225.924698)"><g><path d="M 8.8125 0.359375 C 7.90625 0.359375 7.0625 0.1875 6.28125 -0.15625 C 5.5 -0.507812 4.8125 -1.003906 4.21875 -1.640625 C 3.632812 -2.273438 3.175781 -3.046875 2.84375 -3.953125 C 2.507812 -4.867188 2.34375 -5.890625 2.34375 -7.015625 L 2.34375 -17.640625 L 7.203125 -17.640625 L 7.203125 -7.734375 C 7.203125 -6.660156 7.488281 -5.820312 8.0625 -5.21875 C 8.632812 -4.613281 9.425781 -4.3125 10.4375 -4.3125 C 11.519531 -4.3125 12.421875 -4.675781 13.140625 -5.40625 C 13.859375 -6.144531 14.21875 -7.101562 14.21875 -8.28125 L 14.21875 -17.640625 L 19.078125 -17.640625 L 19.078125 0 L 14.21875 0 L 14.21875 -2.515625 L 14.046875 -2.515625 C 13.660156 -1.992188 13.210938 -1.515625 12.703125 -1.078125 C 12.273438 -0.722656 11.726562 -0.394531 11.0625 -0.09375 C 10.40625 0.207031 9.65625 0.359375 8.8125 0.359375 Z M 11.953125 -25.375 L 17 -25.375 L 13.046875 -19.984375 L 9.078125 -19.984375 Z M 11.953125 -25.375 "></path></g></g></g><g fill="rgb(15.289307%, 12.548828%, 100%)" fill-opacity="1"><g transform="translate(232.306781, 225.924698)"><g><path d="M 9.1875 0.359375 C 8.144531 0.359375 7.144531 0.140625 6.1875 -0.296875 C 5.226562 -0.742188 4.382812 -1.375 3.65625 -2.1875 C 2.925781 -3.007812 2.34375 -3.984375 1.90625 -5.109375 C 1.476562 -6.234375 1.265625 -7.46875 1.265625 -8.8125 C 1.265625 -10.164062 1.476562 -11.40625 1.90625 -12.53125 C 2.34375 -13.65625 2.925781 -14.617188 3.65625 -15.421875 C 4.382812 -16.222656 5.226562 -16.851562 6.1875 -17.3125 C 7.144531 -17.769531 8.144531 -18 9.1875 -18 C 10.113281 -18 10.925781 -17.847656 11.625 -17.546875 C 12.320312 -17.242188 12.910156 -16.914062 13.390625 -16.5625 C 13.941406 -16.125 14.398438 -15.644531 14.765625 -15.125 L 14.9375 -15.125 L 14.9375 -25.203125 L 19.796875 -25.203125 L 19.796875 0 L 14.9375 0 L 14.9375 -2.515625 L 14.765625 -2.515625 C 14.398438 -1.992188 13.941406 -1.515625 13.390625 -1.078125 C 12.910156 -0.722656 12.320312 -0.394531 11.625 -0.09375 C 10.925781 0.207031 10.113281 0.359375 9.1875 0.359375 Z M 10.625 -4.140625 C 11.25 -4.140625 11.835938 -4.257812 12.390625 -4.5 C 12.941406 -4.738281 13.421875 -5.0625 13.828125 -5.46875 C 14.234375 -5.875 14.550781 -6.363281 14.78125 -6.9375 C 15.007812 -7.519531 15.125 -8.144531 15.125 -8.8125 C 15.125 -9.488281 15.007812 -10.113281 14.78125 -10.6875 C 14.550781 -11.269531 14.234375 -11.765625 13.828125 -12.171875 C 13.421875 -12.578125 12.941406 -12.898438 12.390625 -13.140625 C 11.835938 -13.378906 11.25 -13.5 10.625 -13.5 C 10 -13.5 9.410156 -13.378906 8.859375 -13.140625 C 8.304688 -12.898438 7.820312 -12.578125 7.40625 -12.171875 C 7 -11.765625 6.679688 -11.269531 6.453125 -10.6875 C 6.234375 -10.113281 6.125 -9.488281 6.125 -8.8125 C 6.125 -8.144531 6.234375 -7.519531 6.453125 -6.9375 C 6.679688 -6.363281 7 -5.875 7.40625 -5.46875 C 7.820312 -5.0625 8.304688 -4.738281 8.859375 -4.5 C 9.410156 -4.257812 10 -4.140625 10.625 -4.140625 Z M 10.625 -4.140625 "></path></g></g></g><g fill="rgb(15.289307%, 12.548828%, 100%)" fill-opacity="1"><g transform="translate(253.906816, 225.924698)"><g><path d="M 10.625 0.359375 C 9.320312 0.359375 8.097656 0.117188 6.953125 -0.359375 C 5.816406 -0.835938 4.820312 -1.492188 3.96875 -2.328125 C 3.125 -3.171875 2.460938 -4.144531 1.984375 -5.25 C 1.503906 -6.351562 1.265625 -7.539062 1.265625 -8.8125 C 1.265625 -10.0625 1.503906 -11.242188 1.984375 -12.359375 C 2.460938 -13.484375 3.117188 -14.460938 3.953125 -15.296875 C 4.796875 -16.140625 5.769531 -16.800781 6.875 -17.28125 C 7.976562 -17.757812 9.164062 -18 10.4375 -18 C 11.664062 -18 12.8125 -17.765625 13.875 -17.296875 C 14.945312 -16.828125 15.878906 -16.195312 16.671875 -15.40625 C 17.460938 -14.613281 18.09375 -13.679688 18.5625 -12.609375 C 19.03125 -11.546875 19.265625 -10.40625 19.265625 -9.1875 C 19.265625 -8.84375 19.25 -8.546875 19.21875 -8.296875 C 19.195312 -8.046875 19.175781 -7.820312 19.15625 -7.625 C 19.125 -7.382812 19.097656 -7.179688 19.078125 -7.015625 L 6.296875 -7.015625 C 6.566406 -6.203125 7.078125 -5.488281 7.828125 -4.875 C 8.585938 -4.257812 9.640625 -3.953125 10.984375 -3.953125 C 11.742188 -3.953125 12.410156 -4.046875 12.984375 -4.234375 C 13.566406 -4.429688 14.0625 -4.664062 14.46875 -4.9375 C 14.925781 -5.21875 15.320312 -5.550781 15.65625 -5.9375 L 18.1875 -2.515625 C 17.65625 -1.992188 17.003906 -1.515625 16.234375 -1.078125 C 15.585938 -0.722656 14.796875 -0.394531 13.859375 -0.09375 C 12.921875 0.207031 11.84375 0.359375 10.625 0.359375 Z M 14.21875 -10.625 C 13.957031 -11.4375 13.484375 -12.148438 12.796875 -12.765625 C 12.109375 -13.378906 11.265625 -13.6875 10.265625 -13.6875 C 9.253906 -13.6875 8.40625 -13.378906 7.71875 -12.765625 C 7.039062 -12.148438 6.566406 -11.4375 6.296875 -10.625 Z M 14.21875 -10.625 "></path></g></g></g></svg>