<svg xmlns="http://www.w3.org/2000/svg" xmlns:xlink="http://www.w3.org/1999/xlink" zoomAndPan="magnify" preserveAspectRatio="xMidYMid meet" version="1.0" viewBox="93.96 45.27 64.34 48.55"><defs><g><g id="id1"></g></g><clipPath id="id2"><path d="M 121 45.265625 L 140.738281 45.265625 L 140.738281 65 L 121 65 Z M 121 45.265625 " clip-rule="nonzero"></path></clipPath><clipPath id="id3"><path d="M 111.488281 55 L 131 55 L 131 74.515625 L 111.488281 74.515625 Z M 111.488281 55 " clip-rule="nonzero"></path></clipPath></defs><g clip-path="url(#id2)"><path fill="rgb(45.098877%, 52.938843%, 97.648621%)" d="M 140.730469 59.917969 C 140.730469 62.351562 138.769531 64.320312 136.347656 64.320312 L 127.371094 64.320312 C 124.265625 64.320312 121.746094 61.789062 121.746094 58.675781 L 121.746094 49.664062 C 121.746094 47.234375 123.707031 45.265625 126.128906 45.265625 C 128.554688 45.265625 130.515625 47.234375 130.515625 49.664062 L 130.515625 55.519531 L 136.347656 55.519531 C 138.769531 55.519531 140.730469 57.496094 140.730469 59.917969 Z M 140.730469 59.917969 " fill-opacity="1" fill-rule="nonzero"></path></g><g clip-path="url(#id3)"><path fill="rgb(45.098877%, 52.938843%, 97.648621%)" d="M 111.5 59.863281 C 111.5 57.429688 113.457031 55.464844 115.882812 55.464844 L 124.859375 55.464844 C 127.960938 55.464844 130.480469 57.992188 130.480469 61.105469 L 130.480469 70.117188 C 130.480469 72.546875 128.519531 74.515625 126.097656 74.515625 C 123.675781 74.515625 121.714844 72.546875 121.714844 70.117188 L 121.714844 64.261719 L 115.882812 64.261719 C 113.457031 64.261719 111.5 62.292969 111.5 59.863281 Z M 111.5 59.863281 " fill-opacity="1" fill-rule="nonzero"></path></g><path fill="rgb(99.609375%, 100%, 100%)" d="M 130.480469 61.105469 L 130.480469 64.320312 L 127.371094 64.320312 C 124.265625 64.320312 121.746094 61.789062 121.746094 58.675781 L 121.746094 55.464844 L 124.859375 55.464844 C 127.960938 55.464844 130.480469 57.992188 130.480469 61.105469 Z M 130.480469 61.105469 " fill-opacity="1" fill-rule="nonzero"></path><g fill="rgb(99.609375%, 100%, 100%)" fill-opacity="1"><g transform="translate(92.710931, 93.614145)"><g><path d="M 1.25 -9.671875 L 5.328125 -9.671875 C 5.804688 -9.671875 6.238281 -9.601562 6.625 -9.46875 C 7.007812 -9.332031 7.332031 -9.148438 7.59375 -8.921875 C 7.863281 -8.691406 8.070312 -8.421875 8.21875 -8.109375 C 8.363281 -7.796875 8.4375 -7.46875 8.4375 -7.125 C 8.4375 -6.738281 8.363281 -6.414062 8.21875 -6.15625 C 8.082031 -5.90625 7.929688 -5.703125 7.765625 -5.546875 C 7.578125 -5.359375 7.363281 -5.210938 7.125 -5.109375 C 7.457031 -5.015625 7.753906 -4.859375 8.015625 -4.640625 C 8.242188 -4.460938 8.453125 -4.222656 8.640625 -3.921875 C 8.828125 -3.617188 8.921875 -3.234375 8.921875 -2.765625 C 8.921875 -2.390625 8.84375 -2.03125 8.6875 -1.6875 C 8.539062 -1.351562 8.320312 -1.0625 8.03125 -0.8125 C 7.75 -0.5625 7.398438 -0.363281 6.984375 -0.21875 C 6.578125 -0.0703125 6.113281 0 5.59375 0 L 1.25 0 Z M 5.46875 -1.796875 C 5.875 -1.796875 6.191406 -1.90625 6.421875 -2.125 C 6.660156 -2.34375 6.78125 -2.625 6.78125 -2.96875 C 6.78125 -3.320312 6.660156 -3.601562 6.421875 -3.8125 C 6.191406 -4.03125 5.875 -4.140625 5.46875 -4.140625 L 3.3125 -4.140625 L 3.3125 -1.796875 Z M 5.1875 -5.953125 C 5.539062 -5.953125 5.8125 -6.039062 6 -6.21875 C 6.195312 -6.40625 6.296875 -6.632812 6.296875 -6.90625 C 6.296875 -7.1875 6.195312 -7.414062 6 -7.59375 C 5.8125 -7.78125 5.539062 -7.875 5.1875 -7.875 L 3.3125 -7.875 L 3.3125 -5.953125 Z M 5.1875 -5.953125 "></path></g></g></g><g fill="rgb(99.609375%, 100%, 100%)" fill-opacity="1"><g transform="translate(101.973032, 93.614145)"><g><path d="M 4.078125 0.140625 C 3.578125 0.140625 3.109375 0.046875 2.671875 -0.140625 C 2.234375 -0.328125 1.847656 -0.578125 1.515625 -0.890625 C 1.191406 -1.210938 0.9375 -1.585938 0.75 -2.015625 C 0.570312 -2.441406 0.484375 -2.898438 0.484375 -3.390625 C 0.484375 -3.867188 0.570312 -4.320312 0.75 -4.75 C 0.9375 -5.175781 1.191406 -5.550781 1.515625 -5.875 C 1.847656 -6.195312 2.234375 -6.445312 2.671875 -6.625 C 3.109375 -6.8125 3.578125 -6.90625 4.078125 -6.90625 C 4.578125 -6.90625 5.046875 -6.8125 5.484375 -6.625 C 5.921875 -6.445312 6.300781 -6.195312 6.625 -5.875 C 6.957031 -5.550781 7.210938 -5.175781 7.390625 -4.75 C 7.578125 -4.320312 7.671875 -3.867188 7.671875 -3.390625 C 7.671875 -2.898438 7.578125 -2.441406 7.390625 -2.015625 C 7.210938 -1.585938 6.957031 -1.210938 6.625 -0.890625 C 6.300781 -0.578125 5.921875 -0.328125 5.484375 -0.140625 C 5.046875 0.046875 4.578125 0.140625 4.078125 0.140625 Z M 4.078125 -1.59375 C 4.316406 -1.59375 4.539062 -1.632812 4.75 -1.71875 C 4.96875 -1.8125 5.15625 -1.9375 5.3125 -2.09375 C 5.46875 -2.257812 5.585938 -2.453125 5.671875 -2.671875 C 5.765625 -2.890625 5.8125 -3.128906 5.8125 -3.390625 C 5.8125 -3.648438 5.765625 -3.890625 5.671875 -4.109375 C 5.585938 -4.328125 5.46875 -4.515625 5.3125 -4.671875 C 5.15625 -4.828125 4.96875 -4.953125 4.75 -5.046875 C 4.539062 -5.140625 4.316406 -5.1875 4.078125 -5.1875 C 3.835938 -5.1875 3.609375 -5.140625 3.390625 -5.046875 C 3.179688 -4.953125 3 -4.828125 2.84375 -4.671875 C 2.6875 -4.515625 2.5625 -4.328125 2.46875 -4.109375 C 2.382812 -3.890625 2.34375 -3.648438 2.34375 -3.390625 C 2.34375 -3.128906 2.382812 -2.890625 2.46875 -2.671875 C 2.5625 -2.453125 2.6875 -2.257812 2.84375 -2.09375 C 3 -1.9375 3.179688 -1.8125 3.390625 -1.71875 C 3.609375 -1.632812 3.835938 -1.59375 4.078125 -1.59375 Z M 4.078125 -1.59375 "></path></g></g></g><g fill="rgb(99.609375%, 100%, 100%)" fill-opacity="1"><g transform="translate(109.852727, 93.614145)"><g><path d="M 2.625 0.140625 C 2.3125 0.140625 2.023438 0.09375 1.765625 0 C 1.515625 -0.101562 1.300781 -0.238281 1.125 -0.40625 C 0.945312 -0.582031 0.804688 -0.785156 0.703125 -1.015625 C 0.597656 -1.253906 0.546875 -1.515625 0.546875 -1.796875 C 0.546875 -2.347656 0.722656 -2.816406 1.078125 -3.203125 C 1.441406 -3.597656 1.9375 -3.851562 2.5625 -3.96875 L 4.703125 -4.359375 C 4.660156 -4.597656 4.539062 -4.804688 4.34375 -4.984375 C 4.144531 -5.160156 3.875 -5.25 3.53125 -5.25 C 3.289062 -5.25 3.070312 -5.207031 2.875 -5.125 C 2.6875 -5.050781 2.53125 -4.96875 2.40625 -4.875 C 2.25 -4.757812 2.113281 -4.632812 2 -4.5 L 0.90625 -5.59375 C 1.09375 -5.832031 1.328125 -6.050781 1.609375 -6.25 C 1.847656 -6.414062 2.132812 -6.566406 2.46875 -6.703125 C 2.8125 -6.835938 3.210938 -6.90625 3.671875 -6.90625 C 4.097656 -6.90625 4.488281 -6.835938 4.84375 -6.703125 C 5.195312 -6.566406 5.503906 -6.375 5.765625 -6.125 C 6.023438 -5.882812 6.222656 -5.597656 6.359375 -5.265625 C 6.492188 -4.941406 6.5625 -4.59375 6.5625 -4.21875 L 6.5625 0 L 4.703125 0 L 4.703125 -0.828125 L 4.625 -0.828125 C 4.476562 -0.640625 4.3125 -0.476562 4.125 -0.34375 C 3.957031 -0.21875 3.742188 -0.101562 3.484375 0 C 3.234375 0.09375 2.945312 0.140625 2.625 0.140625 Z M 3.25 -1.375 C 3.664062 -1.375 4.007812 -1.515625 4.28125 -1.796875 C 4.5625 -2.078125 4.703125 -2.445312 4.703125 -2.90625 L 4.703125 -3.046875 L 3.1875 -2.765625 C 2.945312 -2.722656 2.757812 -2.640625 2.625 -2.515625 C 2.488281 -2.398438 2.421875 -2.253906 2.421875 -2.078125 C 2.421875 -1.859375 2.488281 -1.6875 2.625 -1.5625 C 2.757812 -1.4375 2.96875 -1.375 3.25 -1.375 Z M 3.25 -1.375 "></path></g></g></g><g fill="rgb(99.609375%, 100%, 100%)" fill-opacity="1"><g transform="translate(117.041224, 93.614145)"><g></g></g></g><g fill="rgb(99.609375%, 100%, 100%)" fill-opacity="1"><g transform="translate(119.667789, 93.614145)"><g><path d="M 4.015625 0.203125 C 3.378906 0.203125 2.828125 0.125 2.359375 -0.03125 C 1.898438 -0.1875 1.515625 -0.359375 1.203125 -0.546875 C 0.835938 -0.773438 0.53125 -1.03125 0.28125 -1.3125 L 1.65625 -2.703125 C 1.820312 -2.503906 2.019531 -2.328125 2.25 -2.171875 C 2.445312 -2.046875 2.6875 -1.925781 2.96875 -1.8125 C 3.25 -1.707031 3.570312 -1.65625 3.9375 -1.65625 C 4.488281 -1.65625 4.890625 -1.757812 5.140625 -1.96875 C 5.398438 -2.1875 5.53125 -2.453125 5.53125 -2.765625 C 5.53125 -3.046875 5.410156 -3.265625 5.171875 -3.421875 C 4.929688 -3.585938 4.628906 -3.734375 4.265625 -3.859375 C 3.910156 -3.984375 3.523438 -4.113281 3.109375 -4.25 C 2.691406 -4.394531 2.300781 -4.578125 1.9375 -4.796875 C 1.582031 -5.023438 1.285156 -5.316406 1.046875 -5.671875 C 0.804688 -6.023438 0.6875 -6.484375 0.6875 -7.046875 C 0.6875 -7.429688 0.765625 -7.796875 0.921875 -8.140625 C 1.085938 -8.484375 1.320312 -8.785156 1.625 -9.046875 C 1.925781 -9.304688 2.296875 -9.507812 2.734375 -9.65625 C 3.171875 -9.8125 3.664062 -9.890625 4.21875 -9.890625 C 4.75 -9.890625 5.21875 -9.816406 5.625 -9.671875 C 6.039062 -9.535156 6.382812 -9.382812 6.65625 -9.21875 C 6.96875 -9.03125 7.238281 -8.816406 7.46875 -8.578125 L 6.078125 -7.1875 C 5.929688 -7.34375 5.769531 -7.484375 5.59375 -7.609375 C 5.4375 -7.703125 5.25 -7.789062 5.03125 -7.875 C 4.8125 -7.96875 4.5625 -8.015625 4.28125 -8.015625 C 3.757812 -8.015625 3.382812 -7.921875 3.15625 -7.734375 C 2.9375 -7.554688 2.828125 -7.328125 2.828125 -7.046875 C 2.828125 -6.773438 2.945312 -6.554688 3.1875 -6.390625 C 3.425781 -6.234375 3.722656 -6.085938 4.078125 -5.953125 C 4.441406 -5.828125 4.832031 -5.691406 5.25 -5.546875 C 5.664062 -5.410156 6.050781 -5.226562 6.40625 -5 C 6.769531 -4.78125 7.070312 -4.492188 7.3125 -4.140625 C 7.550781 -3.785156 7.671875 -3.328125 7.671875 -2.765625 C 7.671875 -2.367188 7.585938 -1.988281 7.421875 -1.625 C 7.253906 -1.269531 7.007812 -0.957031 6.6875 -0.6875 C 6.375 -0.414062 5.992188 -0.195312 5.546875 -0.03125 C 5.097656 0.125 4.585938 0.203125 4.015625 0.203125 Z M 4.015625 0.203125 "></path></g></g></g><g fill="rgb(99.609375%, 100%, 100%)" fill-opacity="1"><g transform="translate(127.478368, 93.614145)"><g><path d="M 2.625 0.140625 C 2.3125 0.140625 2.023438 0.09375 1.765625 0 C 1.515625 -0.101562 1.300781 -0.238281 1.125 -0.40625 C 0.945312 -0.582031 0.804688 -0.785156 0.703125 -1.015625 C 0.597656 -1.253906 0.546875 -1.515625 0.546875 -1.796875 C 0.546875 -2.347656 0.722656 -2.816406 1.078125 -3.203125 C 1.441406 -3.597656 1.9375 -3.851562 2.5625 -3.96875 L 4.703125 -4.359375 C 4.660156 -4.597656 4.539062 -4.804688 4.34375 -4.984375 C 4.144531 -5.160156 3.875 -5.25 3.53125 -5.25 C 3.289062 -5.25 3.070312 -5.207031 2.875 -5.125 C 2.6875 -5.050781 2.53125 -4.96875 2.40625 -4.875 C 2.25 -4.757812 2.113281 -4.632812 2 -4.5 L 0.90625 -5.59375 C 1.09375 -5.832031 1.328125 -6.050781 1.609375 -6.25 C 1.847656 -6.414062 2.132812 -6.566406 2.46875 -6.703125 C 2.8125 -6.835938 3.210938 -6.90625 3.671875 -6.90625 C 4.097656 -6.90625 4.488281 -6.835938 4.84375 -6.703125 C 5.195312 -6.566406 5.503906 -6.375 5.765625 -6.125 C 6.023438 -5.882812 6.222656 -5.597656 6.359375 -5.265625 C 6.492188 -4.941406 6.5625 -4.59375 6.5625 -4.21875 L 6.5625 0 L 4.703125 0 L 4.703125 -0.828125 L 4.625 -0.828125 C 4.476562 -0.640625 4.3125 -0.476562 4.125 -0.34375 C 3.957031 -0.21875 3.742188 -0.101562 3.484375 0 C 3.234375 0.09375 2.945312 0.140625 2.625 0.140625 Z M 3.25 -1.375 C 3.664062 -1.375 4.007812 -1.515625 4.28125 -1.796875 C 4.5625 -2.078125 4.703125 -2.445312 4.703125 -2.90625 L 4.703125 -3.046875 L 3.1875 -2.765625 C 2.945312 -2.722656 2.757812 -2.640625 2.625 -2.515625 C 2.488281 -2.398438 2.421875 -2.253906 2.421875 -2.078125 C 2.421875 -1.859375 2.488281 -1.6875 2.625 -1.5625 C 2.757812 -1.4375 2.96875 -1.375 3.25 -1.375 Z M 3.25 -1.375 "></path></g></g></g><g fill="rgb(99.609375%, 100%, 100%)" fill-opacity="1"><g transform="translate(134.666865, 93.614145)"><g><path d="M 3.390625 0.140625 C 3.035156 0.140625 2.707031 0.0703125 2.40625 -0.0625 C 2.113281 -0.195312 1.851562 -0.382812 1.625 -0.625 C 1.394531 -0.875 1.21875 -1.171875 1.09375 -1.515625 C 0.96875 -1.867188 0.90625 -2.265625 0.90625 -2.703125 L 0.90625 -6.78125 L 2.765625 -6.78125 L 2.765625 -2.96875 C 2.765625 -2.550781 2.875 -2.226562 3.09375 -2 C 3.3125 -1.769531 3.617188 -1.65625 4.015625 -1.65625 C 4.421875 -1.65625 4.765625 -1.796875 5.046875 -2.078125 C 5.328125 -2.359375 5.46875 -2.726562 5.46875 -3.1875 L 5.46875 -6.78125 L 7.328125 -6.78125 L 7.328125 0 L 5.46875 0 L 5.46875 -0.96875 L 5.390625 -0.96875 C 5.242188 -0.757812 5.070312 -0.578125 4.875 -0.421875 C 4.707031 -0.273438 4.5 -0.144531 4.25 -0.03125 C 4 0.0820312 3.710938 0.140625 3.390625 0.140625 Z M 4.515625 -9.75 L 6.453125 -9.75 L 4.9375 -7.671875 L 3.421875 -7.671875 Z M 4.515625 -9.75 "></path></g></g></g><g fill="rgb(99.609375%, 100%, 100%)" fill-opacity="1"><g transform="translate(142.615684, 93.614145)"><g><path d="M 3.53125 0.140625 C 3.132812 0.140625 2.75 0.0546875 2.375 -0.109375 C 2.007812 -0.285156 1.6875 -0.53125 1.40625 -0.84375 C 1.125 -1.15625 0.898438 -1.523438 0.734375 -1.953125 C 0.566406 -2.390625 0.484375 -2.867188 0.484375 -3.390625 C 0.484375 -3.898438 0.566406 -4.375 0.734375 -4.8125 C 0.898438 -5.25 1.125 -5.617188 1.40625 -5.921875 C 1.6875 -6.234375 2.007812 -6.472656 2.375 -6.640625 C 2.75 -6.816406 3.132812 -6.90625 3.53125 -6.90625 C 3.882812 -6.90625 4.195312 -6.847656 4.46875 -6.734375 C 4.738281 -6.617188 4.960938 -6.492188 5.140625 -6.359375 C 5.359375 -6.191406 5.535156 -6.007812 5.671875 -5.8125 L 5.734375 -5.8125 L 5.734375 -9.671875 L 7.609375 -9.671875 L 7.609375 0 L 5.734375 0 L 5.734375 -0.96875 L 5.671875 -0.96875 C 5.535156 -0.757812 5.359375 -0.578125 5.140625 -0.421875 C 4.960938 -0.273438 4.738281 -0.144531 4.46875 -0.03125 C 4.195312 0.0820312 3.882812 0.140625 3.53125 0.140625 Z M 4.078125 -1.59375 C 4.316406 -1.59375 4.539062 -1.632812 4.75 -1.71875 C 4.96875 -1.8125 5.15625 -1.9375 5.3125 -2.09375 C 5.46875 -2.257812 5.585938 -2.453125 5.671875 -2.671875 C 5.765625 -2.890625 5.8125 -3.128906 5.8125 -3.390625 C 5.8125 -3.648438 5.765625 -3.890625 5.671875 -4.109375 C 5.585938 -4.328125 5.46875 -4.515625 5.3125 -4.671875 C 5.15625 -4.828125 4.96875 -4.953125 4.75 -5.046875 C 4.539062 -5.140625 4.316406 -5.1875 4.078125 -5.1875 C 3.835938 -5.1875 3.609375 -5.140625 3.390625 -5.046875 C 3.179688 -4.953125 3 -4.828125 2.84375 -4.671875 C 2.6875 -4.515625 2.5625 -4.328125 2.46875 -4.109375 C 2.382812 -3.890625 2.34375 -3.648438 2.34375 -3.390625 C 2.34375 -3.128906 2.382812 -2.890625 2.46875 -2.671875 C 2.5625 -2.453125 2.6875 -2.257812 2.84375 -2.09375 C 3 -1.9375 3.179688 -1.8125 3.390625 -1.71875 C 3.609375 -1.632812 3.835938 -1.59375 4.078125 -1.59375 Z M 4.078125 -1.59375 "></path></g></g></g><g fill="rgb(99.609375%, 100%, 100%)" fill-opacity="1"><g transform="translate(150.910098, 93.614145)"><g><path d="M 4.078125 0.140625 C 3.578125 0.140625 3.109375 0.046875 2.671875 -0.140625 C 2.234375 -0.328125 1.847656 -0.578125 1.515625 -0.890625 C 1.191406 -1.210938 0.9375 -1.585938 0.75 -2.015625 C 0.570312 -2.441406 0.484375 -2.898438 0.484375 -3.390625 C 0.484375 -3.867188 0.570312 -4.320312 0.75 -4.75 C 0.9375 -5.175781 1.191406 -5.550781 1.515625 -5.875 C 1.835938 -6.195312 2.210938 -6.445312 2.640625 -6.625 C 3.066406 -6.8125 3.523438 -6.90625 4.015625 -6.90625 C 4.484375 -6.90625 4.921875 -6.816406 5.328125 -6.640625 C 5.742188 -6.460938 6.101562 -6.222656 6.40625 -5.921875 C 6.707031 -5.617188 6.945312 -5.257812 7.125 -4.84375 C 7.300781 -4.4375 7.390625 -4 7.390625 -3.53125 C 7.390625 -3.394531 7.382812 -3.28125 7.375 -3.1875 C 7.375 -3.09375 7.367188 -3.007812 7.359375 -2.9375 C 7.347656 -2.84375 7.335938 -2.765625 7.328125 -2.703125 L 2.421875 -2.703125 C 2.523438 -2.378906 2.71875 -2.097656 3 -1.859375 C 3.289062 -1.628906 3.695312 -1.515625 4.21875 -1.515625 C 4.507812 -1.515625 4.765625 -1.550781 4.984375 -1.625 C 5.210938 -1.707031 5.40625 -1.796875 5.5625 -1.890625 C 5.738281 -2.003906 5.890625 -2.132812 6.015625 -2.28125 L 6.984375 -0.96875 C 6.773438 -0.757812 6.523438 -0.578125 6.234375 -0.421875 C 5.984375 -0.273438 5.675781 -0.144531 5.3125 -0.03125 C 4.957031 0.0820312 4.546875 0.140625 4.078125 0.140625 Z M 5.46875 -4.078125 C 5.363281 -4.390625 5.175781 -4.660156 4.90625 -4.890625 C 4.644531 -5.128906 4.320312 -5.25 3.9375 -5.25 C 3.550781 -5.25 3.226562 -5.128906 2.96875 -4.890625 C 2.707031 -4.660156 2.523438 -4.390625 2.421875 -4.078125 Z M 5.46875 -4.078125 "></path></g></g></g></svg>