<svg xmlns="http://www.w3.org/2000/svg" xmlns:xlink="http://www.w3.org/1999/xlink" width="500" zoomAndPan="magnify" viewBox="0 0 375 374.999991" height="500" preserveAspectRatio="xMidYMid meet" version="1.0"><defs><g/><clipPath id="id1"><path d="M 166 153 L 219 153 L 219 214.464844 L 166 214.464844 Z M 166 153 " clip-rule="nonzero"/></clipPath><clipPath id="id2"><path d="M 146.753906 116 L 158 116 L 158 176 L 146.753906 176 Z M 146.753906 116 " clip-rule="nonzero"/></clipPath><clipPath id="id3"><path d="M 146.753906 116 L 147 116 L 147 117 L 146.753906 117 Z M 146.753906 116 " clip-rule="nonzero"/></clipPath><clipPath id="id4"><path d="M 146.753906 115 L 147 115 L 147 116 L 146.753906 116 Z M 146.753906 115 " clip-rule="nonzero"/></clipPath><clipPath id="id5"><path d="M 146.753906 115 L 148 115 L 148 116 L 146.753906 116 Z M 146.753906 115 " clip-rule="nonzero"/></clipPath><clipPath id="id6"><path d="M 146.753906 116 L 147 116 L 147 117 L 146.753906 117 Z M 146.753906 116 " clip-rule="nonzero"/></clipPath><clipPath id="id7"><path d="M 146.753906 115 L 147 115 L 147 116 L 146.753906 116 Z M 146.753906 115 " clip-rule="nonzero"/></clipPath><clipPath id="id8"><path d="M 146.753906 115 L 150 115 L 150 119 L 146.753906 119 Z M 146.753906 115 " clip-rule="nonzero"/></clipPath><clipPath id="id9"><path d="M 205 111 L 228.503906 111 L 228.503906 133 L 205 133 Z M 205 111 " clip-rule="nonzero"/></clipPath></defs><rect x="-37.5" width="450" fill="rgb(100%, 100%, 100%)" y="-37.499999" height="449.999989" fill-opacity="1"/><rect x="-37.5" width="450" fill="rgb(15.289307%, 12.548828%, 100%)" y="-37.499999" height="449.999989" fill-opacity="1"/><rect x="-37.5" width="450" fill="rgb(100%, 100%, 100%)" y="-37.499999" height="449.999989" fill-opacity="1"/><rect x="-37.5" width="450" fill="rgb(15.289307%, 12.548828%, 100%)" y="-37.499999" height="449.999989" fill-opacity="1"/><g clip-path="url(#id1)"><path fill="rgb(99.609375%, 100%, 100%)" d="M 215.871094 201.121094 C 215.871094 206.921875 211.136719 211.640625 205.316406 211.640625 L 179.289062 211.640625 C 173.46875 211.640625 168.734375 206.921875 168.734375 201.121094 L 168.734375 182.867188 L 166.035156 182.867188 L 166.035156 201.121094 C 166.035156 208.40625 171.980469 214.332031 179.289062 214.332031 L 205.316406 214.332031 C 212.625 214.332031 218.570312 208.40625 218.570312 201.121094 L 218.570312 153.652344 L 215.871094 153.652344 L 215.871094 201.121094 " fill-opacity="1" fill-rule="nonzero"/></g><g clip-path="url(#id2)"><path fill="rgb(99.609375%, 100%, 100%)" d="M 155.355469 174.34375 C 155.355469 173.601562 155.960938 172.996094 156.707031 172.996094 L 157.324219 172.996094 C 152.992188 172.996094 149.472656 169.488281 149.472656 165.171875 L 149.472656 118.609375 L 147.511719 117.617188 C 147.058594 117.390625 146.773438 116.925781 146.773438 116.421875 L 146.773438 165.171875 C 146.773438 170.304688 150.480469 174.582031 155.371094 175.5 C 155.367188 175.40625 155.355469 175.316406 155.355469 175.21875 L 155.355469 174.34375 " fill-opacity="1" fill-rule="nonzero"/></g><path fill="rgb(99.609375%, 100%, 100%)" d="M 187.582031 115.453125 C 187.65625 115.527344 187.726562 115.609375 187.78125 115.699219 C 187.726562 115.605469 187.65625 115.527344 187.582031 115.453125 " fill-opacity="1" fill-rule="nonzero"/><path fill="rgb(99.609375%, 100%, 100%)" d="M 187.308594 115.257812 C 187.382812 115.296875 187.449219 115.34375 187.515625 115.398438 C 187.449219 115.34375 187.382812 115.296875 187.308594 115.257812 " fill-opacity="1" fill-rule="nonzero"/><path fill="rgb(99.609375%, 100%, 100%)" d="M 147.261719 115.394531 C 147.324219 115.34375 147.382812 115.300781 147.453125 115.261719 C 147.382812 115.300781 147.324219 115.34375 147.261719 115.394531 " fill-opacity="1" fill-rule="nonzero"/><path fill="rgb(99.609375%, 100%, 100%)" d="M 187.949219 116.089844 C 187.976562 116.195312 187.996094 116.304688 187.996094 116.417969 C 187.996094 116.304688 187.976562 116.195312 187.949219 116.089844 " fill-opacity="1" fill-rule="nonzero"/><path fill="rgb(99.609375%, 100%, 100%)" d="M 179.414062 174.34375 L 179.414062 175.21875 C 179.414062 175.316406 179.402344 175.40625 179.398438 175.5 C 184.285156 174.582031 187.996094 170.304688 187.996094 165.171875 L 187.996094 116.421875 C 187.996094 116.925781 187.710938 117.390625 187.257812 117.617188 L 185.296875 118.609375 L 185.296875 165.171875 C 185.296875 169.488281 181.773438 172.996094 177.445312 172.996094 L 178.0625 172.996094 C 178.808594 172.996094 179.414062 173.601562 179.414062 174.34375 " fill-opacity="1" fill-rule="nonzero"/><path fill="rgb(99.609375%, 100%, 100%)" d="M 187.820312 115.769531 C 187.863281 115.84375 187.898438 115.921875 187.921875 116 C 187.898438 115.921875 187.863281 115.84375 187.820312 115.769531 " fill-opacity="1" fill-rule="nonzero"/><g clip-path="url(#id3)"><path fill="rgb(99.609375%, 100%, 100%)" d="M 146.773438 116.414062 C 146.773438 116.304688 146.792969 116.195312 146.816406 116.09375 C 146.792969 116.195312 146.773438 116.304688 146.773438 116.414062 " fill-opacity="1" fill-rule="nonzero"/></g><g clip-path="url(#id4)"><path fill="rgb(99.609375%, 100%, 100%)" d="M 146.847656 116 C 146.871094 115.921875 146.90625 115.847656 146.945312 115.773438 C 146.90625 115.847656 146.875 115.921875 146.847656 116 " fill-opacity="1" fill-rule="nonzero"/></g><g clip-path="url(#id5)"><path fill="rgb(99.609375%, 100%, 100%)" d="M 146.988281 115.691406 C 147.042969 115.609375 147.109375 115.53125 147.183594 115.457031 C 147.109375 115.53125 147.042969 115.605469 146.988281 115.691406 " fill-opacity="1" fill-rule="nonzero"/></g><path fill="rgb(99.609375%, 100%, 100%)" d="M 179.917969 119.824219 C 178.03125 120.78125 175.722656 120.03125 174.765625 118.148438 C 173.808594 116.269531 174.5625 113.96875 176.449219 113.015625 C 177.574219 112.445312 178.867188 112.492188 179.917969 113.015625 L 185.449219 115.816406 C 185.671875 115.378906 186.125 115.078125 186.648438 115.078125 C 186.890625 115.078125 187.113281 115.144531 187.308594 115.257812 C 187.289062 115.246094 187.277344 115.230469 187.257812 115.21875 L 180.523438 111.8125 C 179.074219 111.09375 177.277344 111.085938 175.835938 111.816406 C 173.289062 113.105469 172.269531 116.21875 173.5625 118.757812 C 174.449219 120.503906 176.222656 121.585938 178.1875 121.585938 C 178.996094 121.585938 179.804688 121.390625 180.527344 121.027344 L 185.296875 118.609375 L 185.296875 117.105469 L 179.917969 119.824219 " fill-opacity="1" fill-rule="nonzero"/><path fill="rgb(99.609375%, 100%, 100%)" d="M 187.921875 116 C 187.933594 116.03125 187.945312 116.058594 187.949219 116.089844 C 187.945312 116.058594 187.933594 116.03125 187.921875 116 " fill-opacity="1" fill-rule="nonzero"/><path fill="rgb(99.609375%, 100%, 100%)" d="M 187.515625 115.398438 C 187.535156 115.417969 187.558594 115.433594 187.582031 115.453125 C 187.558594 115.433594 187.535156 115.417969 187.515625 115.398438 " fill-opacity="1" fill-rule="nonzero"/><path fill="rgb(99.609375%, 100%, 100%)" d="M 187.78125 115.699219 C 187.796875 115.71875 187.808594 115.746094 187.820312 115.769531 C 187.808594 115.746094 187.796875 115.71875 187.78125 115.699219 " fill-opacity="1" fill-rule="nonzero"/><path fill="rgb(99.609375%, 100%, 100%)" d="M 187.996094 116.421875 C 187.996094 116.421875 187.996094 116.417969 187.996094 116.417969 C 187.996094 116.304688 187.976562 116.195312 187.949219 116.089844 C 187.945312 116.058594 187.933594 116.03125 187.921875 116 C 187.898438 115.921875 187.863281 115.84375 187.820312 115.769531 C 187.808594 115.746094 187.796875 115.71875 187.78125 115.699219 C 187.726562 115.609375 187.65625 115.527344 187.582031 115.453125 C 187.558594 115.433594 187.535156 115.417969 187.515625 115.398438 C 187.449219 115.34375 187.382812 115.296875 187.308594 115.257812 C 187.113281 115.144531 186.890625 115.078125 186.648438 115.078125 C 186.125 115.078125 185.671875 115.378906 185.449219 115.816406 L 186.648438 116.421875 L 185.296875 117.105469 L 185.296875 118.609375 L 187.257812 117.617188 C 187.710938 117.390625 187.996094 116.925781 187.996094 116.421875 " fill-opacity="1" fill-rule="nonzero"/><path fill="rgb(99.609375%, 100%, 100%)" d="M 179.308594 118.625 C 178.953125 118.804688 178.578125 118.894531 178.1875 118.894531 C 177.242188 118.894531 176.394531 118.375 175.96875 117.539062 C 175.351562 116.324219 175.839844 114.832031 177.058594 114.214844 C 177.40625 114.039062 177.78125 113.949219 178.171875 113.949219 C 178.566406 113.949219 178.960938 114.042969 179.308594 114.214844 L 183.667969 116.421875 Z M 176.449219 113.015625 C 174.5625 113.96875 173.808594 116.269531 174.765625 118.148438 C 175.722656 120.03125 178.03125 120.78125 179.917969 119.824219 L 185.296875 117.105469 L 185.296875 116.421875 C 185.296875 116.203125 185.355469 116 185.449219 115.816406 L 179.917969 113.015625 C 178.867188 112.492188 177.574219 112.445312 176.449219 113.015625 " fill-opacity="1" fill-rule="nonzero"/><path fill="rgb(99.609375%, 100%, 100%)" d="M 185.296875 117.105469 L 186.648438 116.421875 L 185.449219 115.816406 C 185.355469 116 185.296875 116.203125 185.296875 116.421875 L 185.296875 117.105469 " fill-opacity="1" fill-rule="nonzero"/><g clip-path="url(#id6)"><path fill="rgb(99.609375%, 100%, 100%)" d="M 146.816406 116.09375 C 146.824219 116.0625 146.835938 116.03125 146.847656 116 C 146.835938 116.03125 146.824219 116.0625 146.816406 116.09375 " fill-opacity="1" fill-rule="nonzero"/></g><path fill="rgb(99.609375%, 100%, 100%)" d="M 147.183594 115.457031 C 147.207031 115.433594 147.238281 115.414062 147.261719 115.394531 C 147.234375 115.414062 147.207031 115.433594 147.183594 115.457031 " fill-opacity="1" fill-rule="nonzero"/><g clip-path="url(#id7)"><path fill="rgb(99.609375%, 100%, 100%)" d="M 146.945312 115.773438 C 146.960938 115.75 146.972656 115.71875 146.988281 115.691406 C 146.972656 115.71875 146.960938 115.746094 146.945312 115.773438 " fill-opacity="1" fill-rule="nonzero"/></g><path fill="rgb(99.609375%, 100%, 100%)" d="M 149.316406 115.816406 L 154.851562 113.015625 C 155.902344 112.492188 157.195312 112.445312 158.320312 113.015625 C 160.207031 113.96875 160.960938 116.269531 160.003906 118.148438 C 159.042969 120.03125 156.738281 120.78125 154.851562 119.824219 L 149.472656 117.105469 L 149.472656 118.609375 L 154.242188 121.027344 C 154.964844 121.390625 155.773438 121.585938 156.582031 121.585938 C 158.546875 121.585938 160.316406 120.503906 161.207031 118.757812 C 162.5 116.21875 161.480469 113.105469 158.933594 111.816406 C 157.492188 111.085938 155.703125 111.085938 154.242188 111.816406 L 147.511719 115.21875 C 147.488281 115.230469 147.472656 115.25 147.453125 115.261719 C 147.648438 115.148438 147.875 115.078125 148.121094 115.078125 C 148.644531 115.078125 149.09375 115.378906 149.316406 115.816406 " fill-opacity="1" fill-rule="nonzero"/><g clip-path="url(#id8)"><path fill="rgb(99.609375%, 100%, 100%)" d="M 147.511719 117.617188 L 149.472656 118.609375 L 149.472656 117.105469 L 148.121094 116.421875 L 149.316406 115.816406 C 149.09375 115.378906 148.644531 115.078125 148.121094 115.078125 C 147.875 115.078125 147.648438 115.148438 147.453125 115.261719 C 147.382812 115.300781 147.324219 115.34375 147.261719 115.394531 C 147.238281 115.414062 147.207031 115.433594 147.183594 115.457031 C 147.109375 115.53125 147.042969 115.609375 146.988281 115.691406 C 146.972656 115.71875 146.960938 115.75 146.945312 115.773438 C 146.90625 115.847656 146.871094 115.921875 146.847656 116 C 146.835938 116.03125 146.824219 116.0625 146.816406 116.09375 C 146.792969 116.195312 146.773438 116.304688 146.773438 116.414062 C 146.773438 116.417969 146.773438 116.417969 146.773438 116.421875 C 146.773438 116.925781 147.058594 117.390625 147.511719 117.617188 " fill-opacity="1" fill-rule="nonzero"/></g><path fill="rgb(99.609375%, 100%, 100%)" d="M 155.453125 114.21875 C 156.15625 113.867188 157.015625 113.863281 157.707031 114.214844 C 158.929688 114.832031 159.417969 116.324219 158.800781 117.539062 C 158.371094 118.375 157.523438 118.894531 156.582031 118.894531 C 156.191406 118.894531 155.8125 118.804688 155.460938 118.625 L 151.101562 116.421875 Z M 160.003906 118.148438 C 160.960938 116.269531 160.207031 113.96875 158.320312 113.015625 C 157.195312 112.445312 155.902344 112.492188 154.851562 113.015625 L 149.316406 115.816406 C 149.414062 116 149.472656 116.203125 149.472656 116.421875 L 149.472656 117.105469 L 154.851562 119.824219 C 156.738281 120.78125 159.042969 120.03125 160.003906 118.148438 " fill-opacity="1" fill-rule="nonzero"/><path fill="rgb(99.609375%, 100%, 100%)" d="M 149.316406 115.816406 L 148.121094 116.421875 L 149.472656 117.105469 L 149.472656 116.421875 C 149.472656 116.203125 149.414062 116 149.316406 115.816406 " fill-opacity="1" fill-rule="nonzero"/><g clip-path="url(#id9)"><path fill="rgb(99.609375%, 100%, 100%)" d="M 228.5 122.5 C 228.5 116.304688 223.441406 111.261719 217.222656 111.261719 C 211.003906 111.261719 205.941406 116.304688 205.941406 122.5 C 205.941406 126.953125 208.558594 130.796875 212.332031 132.613281 C 212.597656 132.214844 212.941406 131.871094 213.339844 131.613281 C 209.789062 130.105469 207.292969 126.59375 207.292969 122.5 C 207.292969 117.035156 211.738281 112.605469 217.222656 112.605469 C 222.707031 112.605469 227.148438 117.035156 227.148438 122.5 C 227.148438 126.59375 224.65625 130.105469 221.101562 131.613281 C 221.503906 131.871094 221.847656 132.214844 222.113281 132.613281 C 225.882812 130.796875 228.5 126.953125 228.5 122.5 " fill-opacity="1" fill-rule="nonzero"/></g><path fill="rgb(99.609375%, 100%, 100%)" d="M 215.871094 131.050781 L 215.871094 130.933594 C 211.78125 130.285156 208.640625 126.757812 208.640625 122.5 C 208.640625 117.785156 212.492188 113.949219 217.222656 113.949219 C 221.953125 113.949219 225.800781 117.785156 225.800781 122.5 C 225.800781 126.757812 222.660156 130.285156 218.570312 130.933594 L 218.570312 131.050781 L 219.21875 131.050781 C 219.914062 131.050781 220.5625 131.257812 221.101562 131.613281 C 224.65625 130.105469 227.148438 126.59375 227.148438 122.5 C 227.148438 117.035156 222.707031 112.605469 217.222656 112.605469 C 211.738281 112.605469 207.292969 117.035156 207.292969 122.5 C 207.292969 126.59375 209.789062 130.105469 213.339844 131.613281 C 213.882812 131.257812 214.527344 131.050781 215.222656 131.050781 L 215.871094 131.050781 " fill-opacity="1" fill-rule="nonzero"/><path fill="rgb(99.609375%, 100%, 100%)" d="M 218.570312 130.933594 C 218.132812 131.003906 217.683594 131.050781 217.222656 131.050781 C 216.761719 131.050781 216.3125 131.003906 215.871094 130.933594 L 215.871094 131.050781 L 218.570312 131.050781 L 218.570312 130.933594 " fill-opacity="1" fill-rule="nonzero"/><path fill="rgb(99.609375%, 100%, 100%)" d="M 222.636719 122.5 C 222.636719 119.523438 220.207031 117.105469 217.222656 117.105469 C 214.234375 117.105469 211.804688 119.523438 211.804688 122.5 C 211.804688 125.011719 213.539062 127.121094 215.871094 127.722656 L 215.871094 126.320312 C 214.289062 125.765625 213.15625 124.265625 213.15625 122.5 C 213.15625 120.261719 214.976562 118.449219 217.222656 118.449219 C 219.464844 118.449219 221.285156 120.261719 221.285156 122.5 C 221.285156 124.265625 220.152344 125.765625 218.570312 126.320312 L 218.570312 127.722656 C 220.90625 127.121094 222.636719 125.011719 222.636719 122.5 " fill-opacity="1" fill-rule="nonzero"/><path fill="rgb(99.609375%, 100%, 100%)" d="M 217.222656 126.550781 C 216.746094 126.550781 216.292969 126.46875 215.871094 126.320312 L 215.871094 127.722656 C 216.304688 127.832031 216.753906 127.898438 217.222656 127.898438 C 217.6875 127.898438 218.140625 127.832031 218.570312 127.722656 L 218.570312 126.320312 C 218.148438 126.46875 217.695312 126.550781 217.222656 126.550781 " fill-opacity="1" fill-rule="nonzero"/><path fill="rgb(99.609375%, 100%, 100%)" d="M 214.503906 122.5 C 214.503906 121.007812 215.726562 119.792969 217.222656 119.792969 C 218.71875 119.792969 219.9375 121.007812 219.9375 122.5 C 219.9375 123.5 219.382812 124.367188 218.570312 124.835938 L 218.570312 126.320312 C 220.152344 125.765625 221.285156 124.265625 221.285156 122.5 C 221.285156 120.261719 219.464844 118.449219 217.222656 118.449219 C 214.976562 118.449219 213.15625 120.261719 213.15625 122.5 C 213.15625 124.265625 214.289062 125.765625 215.871094 126.320312 L 215.871094 124.835938 C 215.058594 124.367188 214.503906 123.5 214.503906 122.5 " fill-opacity="1" fill-rule="nonzero"/><path fill="rgb(99.609375%, 100%, 100%)" d="M 218.570312 126.320312 L 218.570312 124.835938 C 218.171875 125.066406 217.714844 125.207031 217.222656 125.207031 C 216.730469 125.207031 216.269531 125.066406 215.871094 124.835938 L 215.871094 126.320312 C 216.292969 126.46875 216.746094 126.550781 217.222656 126.550781 C 217.695312 126.550781 218.148438 126.46875 218.570312 126.320312 " fill-opacity="1" fill-rule="nonzero"/><path fill="rgb(99.609375%, 100%, 100%)" d="M 171.738281 181.523438 L 168.734375 181.523438 L 168.734375 182.867188 L 171.738281 182.867188 C 175.878906 182.867188 179.25 179.585938 179.398438 175.5 C 178.953125 175.582031 178.5 175.632812 178.042969 175.65625 C 177.816406 178.933594 175.085938 181.523438 171.738281 181.523438 " fill-opacity="1" fill-rule="nonzero"/><path fill="rgb(99.609375%, 100%, 100%)" d="M 163.027344 181.523438 C 159.683594 181.523438 156.953125 178.933594 156.726562 175.65625 C 156.269531 175.632812 155.8125 175.582031 155.371094 175.5 C 155.519531 179.585938 158.890625 182.867188 163.027344 182.867188 L 166.035156 182.867188 L 166.035156 181.523438 L 163.027344 181.523438 " fill-opacity="1" fill-rule="nonzero"/><path fill="rgb(99.609375%, 100%, 100%)" d="M 168.734375 181.523438 L 166.035156 181.523438 L 166.035156 182.867188 L 168.734375 182.867188 L 168.734375 181.523438 " fill-opacity="1" fill-rule="nonzero"/><path fill="rgb(99.609375%, 100%, 100%)" d="M 156.707031 175.21875 L 156.707031 174.34375 L 178.0625 174.34375 L 178.0625 175.21875 C 178.0625 175.371094 178.050781 175.511719 178.042969 175.65625 C 178.5 175.632812 178.953125 175.582031 179.398438 175.5 C 179.402344 175.40625 179.414062 175.316406 179.414062 175.21875 L 179.414062 174.34375 C 179.414062 173.601562 178.808594 172.996094 178.0625 172.996094 L 156.707031 172.996094 C 155.960938 172.996094 155.355469 173.601562 155.355469 174.34375 L 155.355469 175.21875 C 155.355469 175.316406 155.367188 175.40625 155.371094 175.5 C 155.8125 175.582031 156.269531 175.632812 156.726562 175.65625 C 156.71875 175.511719 156.707031 175.371094 156.707031 175.21875 " fill-opacity="1" fill-rule="nonzero"/><path fill="rgb(99.609375%, 100%, 100%)" d="M 167.382812 180.175781 L 163.027344 180.175781 C 160.445312 180.175781 158.3125 178.203125 158.078125 175.6875 L 157.324219 175.6875 C 157.121094 175.6875 156.925781 175.667969 156.726562 175.65625 C 156.953125 178.933594 159.683594 181.523438 163.027344 181.523438 L 166.035156 181.523438 C 166.035156 180.78125 166.640625 180.175781 167.382812 180.175781 " fill-opacity="1" fill-rule="nonzero"/><path fill="rgb(99.609375%, 100%, 100%)" d="M 178.042969 175.65625 C 177.84375 175.667969 177.648438 175.6875 177.445312 175.6875 L 176.691406 175.6875 C 176.457031 178.203125 174.324219 180.175781 171.738281 180.175781 L 167.382812 180.175781 C 168.128906 180.175781 168.734375 180.78125 168.734375 181.523438 L 171.738281 181.523438 C 175.085938 181.523438 177.816406 178.933594 178.042969 175.65625 " fill-opacity="1" fill-rule="nonzero"/><path fill="rgb(99.609375%, 100%, 100%)" d="M 167.382812 180.175781 C 166.640625 180.175781 166.035156 180.78125 166.035156 181.523438 L 168.734375 181.523438 C 168.734375 180.78125 168.128906 180.175781 167.382812 180.175781 " fill-opacity="1" fill-rule="nonzero"/><path fill="rgb(99.609375%, 100%, 100%)" d="M 158.078125 175.6875 L 177.445312 175.6875 C 177.648438 175.6875 177.84375 175.667969 178.042969 175.65625 C 178.050781 175.511719 178.0625 175.371094 178.0625 175.21875 L 178.0625 174.34375 L 156.707031 174.34375 L 156.707031 175.21875 C 156.707031 175.371094 156.71875 175.511719 156.726562 175.65625 C 156.925781 175.667969 157.121094 175.6875 157.324219 175.6875 L 158.078125 175.6875 " fill-opacity="1" fill-rule="nonzero"/><path fill="rgb(99.609375%, 100%, 100%)" d="M 215.222656 152.308594 C 215.152344 152.308594 215.078125 152.304688 215.007812 152.296875 C 213.949219 152.1875 213.121094 151.296875 213.121094 150.210938 L 213.121094 134.492188 C 213.121094 133.976562 213.3125 133.511719 213.625 133.144531 C 213.179688 132.996094 212.75 132.816406 212.332031 132.613281 C 211.980469 133.15625 211.769531 133.800781 211.769531 134.492188 L 211.769531 150.210938 C 211.773438 151.984375 213.105469 153.457031 214.867188 153.636719 C 214.984375 153.648438 215.101562 153.652344 215.222656 153.652344 L 215.871094 153.652344 L 215.871094 152.308594 L 215.222656 152.308594 " fill-opacity="1" fill-rule="nonzero"/><path fill="rgb(99.609375%, 100%, 100%)" d="M 221.324219 134.492188 L 221.324219 150.210938 C 221.324219 151.296875 220.496094 152.191406 219.433594 152.296875 C 219.363281 152.304688 219.292969 152.308594 219.21875 152.308594 L 218.570312 152.308594 L 218.570312 153.652344 L 219.21875 153.652344 C 219.339844 153.652344 219.457031 153.648438 219.570312 153.636719 C 221.339844 153.457031 222.675781 151.984375 222.675781 150.210938 L 222.675781 134.492188 C 222.675781 133.800781 222.464844 133.15625 222.113281 132.613281 C 221.695312 132.816406 221.261719 132.996094 220.820312 133.144531 C 221.128906 133.511719 221.324219 133.976562 221.324219 134.492188 " fill-opacity="1" fill-rule="nonzero"/><path fill="rgb(99.609375%, 100%, 100%)" d="M 215.871094 152.308594 L 215.871094 153.652344 L 218.570312 153.652344 L 218.570312 152.308594 L 215.871094 152.308594 " fill-opacity="1" fill-rule="nonzero"/><path fill="rgb(99.609375%, 100%, 100%)" d="M 221.101562 131.613281 C 220.308594 131.949219 219.457031 132.171875 218.570312 132.296875 L 218.570312 132.394531 L 219.21875 132.394531 C 219.863281 132.394531 220.433594 132.691406 220.820312 133.144531 C 221.261719 132.996094 221.695312 132.816406 222.113281 132.613281 C 221.847656 132.214844 221.503906 131.871094 221.101562 131.613281 " fill-opacity="1" fill-rule="nonzero"/><path fill="rgb(99.609375%, 100%, 100%)" d="M 215.222656 132.394531 L 215.871094 132.394531 L 215.871094 132.296875 C 214.988281 132.171875 214.136719 131.949219 213.339844 131.613281 C 212.941406 131.871094 212.597656 132.214844 212.332031 132.613281 C 212.75 132.816406 213.179688 132.996094 213.625 133.144531 C 214.011719 132.691406 214.578125 132.394531 215.222656 132.394531 " fill-opacity="1" fill-rule="nonzero"/><path fill="rgb(99.609375%, 100%, 100%)" d="M 215.871094 132.296875 L 215.871094 132.394531 L 218.570312 132.394531 L 218.570312 132.296875 C 218.128906 132.355469 217.679688 132.394531 217.222656 132.394531 C 216.761719 132.394531 216.316406 132.355469 215.871094 132.296875 " fill-opacity="1" fill-rule="nonzero"/><path fill="rgb(99.609375%, 100%, 100%)" d="M 218.570312 131.050781 L 218.570312 132.296875 C 219.457031 132.171875 220.308594 131.949219 221.101562 131.613281 C 220.5625 131.257812 219.914062 131.050781 219.21875 131.050781 L 218.570312 131.050781 " fill-opacity="1" fill-rule="nonzero"/><path fill="rgb(99.609375%, 100%, 100%)" d="M 215.871094 131.050781 L 215.222656 131.050781 C 214.527344 131.050781 213.882812 131.257812 213.339844 131.613281 C 214.136719 131.949219 214.988281 132.171875 215.871094 132.296875 L 215.871094 131.050781 " fill-opacity="1" fill-rule="nonzero"/><path fill="rgb(99.609375%, 100%, 100%)" d="M 215.871094 131.050781 L 215.871094 132.296875 C 216.316406 132.355469 216.761719 132.394531 217.222656 132.394531 C 217.679688 132.394531 218.128906 132.355469 218.570312 132.296875 L 218.570312 131.050781 L 215.871094 131.050781 " fill-opacity="1" fill-rule="nonzero"/><path fill="rgb(99.609375%, 100%, 100%)" d="M 218.570312 133.742188 L 219.21875 133.742188 C 219.636719 133.742188 219.976562 134.078125 219.976562 134.492188 L 219.976562 150.210938 C 219.976562 150.597656 219.683594 150.917969 219.300781 150.960938 C 219.273438 150.960938 219.246094 150.964844 219.21875 150.964844 L 218.570312 150.964844 L 218.570312 152.308594 L 219.21875 152.308594 C 219.292969 152.308594 219.363281 152.304688 219.433594 152.296875 C 220.496094 152.191406 221.324219 151.296875 221.324219 150.210938 L 221.324219 134.492188 C 221.324219 133.976562 221.128906 133.511719 220.820312 133.144531 C 220.097656 133.386719 219.347656 133.5625 218.570312 133.652344 L 218.570312 133.742188 " fill-opacity="1" fill-rule="nonzero"/><path fill="rgb(99.609375%, 100%, 100%)" d="M 215.222656 150.964844 C 215.199219 150.964844 215.175781 150.960938 215.144531 150.960938 C 214.761719 150.917969 214.46875 150.597656 214.46875 150.210938 L 214.46875 134.492188 C 214.46875 134.292969 214.546875 134.101562 214.691406 133.960938 C 214.832031 133.820312 215.023438 133.742188 215.222656 133.742188 L 215.871094 133.742188 L 215.871094 133.652344 C 215.097656 133.5625 214.34375 133.386719 213.625 133.144531 C 213.3125 133.511719 213.121094 133.976562 213.121094 134.492188 L 213.121094 150.210938 C 213.121094 151.296875 213.949219 152.1875 215.007812 152.296875 C 215.078125 152.304688 215.152344 152.308594 215.222656 152.308594 L 215.871094 152.308594 L 215.871094 150.964844 L 215.222656 150.964844 " fill-opacity="1" fill-rule="nonzero"/><path fill="rgb(99.609375%, 100%, 100%)" d="M 215.871094 150.964844 L 215.871094 152.308594 L 218.570312 152.308594 L 218.570312 150.964844 L 215.871094 150.964844 " fill-opacity="1" fill-rule="nonzero"/><path fill="rgb(99.609375%, 100%, 100%)" d="M 218.570312 133.742188 L 218.570312 133.652344 C 218.128906 133.707031 217.679688 133.742188 217.222656 133.742188 C 216.765625 133.742188 216.316406 133.707031 215.871094 133.652344 L 215.871094 133.742188 L 218.570312 133.742188 " fill-opacity="1" fill-rule="nonzero"/><path fill="rgb(99.609375%, 100%, 100%)" d="M 220.820312 133.144531 C 220.433594 132.691406 219.863281 132.394531 219.21875 132.394531 L 218.570312 132.394531 L 218.570312 133.652344 C 219.347656 133.5625 220.097656 133.386719 220.820312 133.144531 " fill-opacity="1" fill-rule="nonzero"/><path fill="rgb(99.609375%, 100%, 100%)" d="M 215.871094 132.394531 L 215.222656 132.394531 C 214.578125 132.394531 214.011719 132.691406 213.625 133.144531 C 214.34375 133.386719 215.097656 133.5625 215.871094 133.652344 L 215.871094 132.394531 " fill-opacity="1" fill-rule="nonzero"/><path fill="rgb(99.609375%, 100%, 100%)" d="M 215.871094 133.652344 C 216.316406 133.707031 216.765625 133.742188 217.222656 133.742188 C 217.679688 133.742188 218.128906 133.707031 218.570312 133.652344 L 218.570312 132.394531 L 215.871094 132.394531 L 215.871094 133.652344 " fill-opacity="1" fill-rule="nonzero"/><g fill="rgb(99.609375%, 100%, 100%)" fill-opacity="1"><g transform="translate(91.760595, 242.450828)"><g><path d="M 6.9375 -17.640625 L 0.625 -17.640625 L 0.625 -22.046875 L 17.953125 -22.046875 L 17.953125 -17.640625 L 11.65625 -17.640625 L 11.65625 0 L 6.9375 0 Z M 6.9375 -17.640625 "/></g></g></g><g fill="rgb(99.609375%, 100%, 100%)" fill-opacity="1"><g transform="translate(109.715616, 242.450828)"><g><path d="M 9.296875 0.3125 C 8.160156 0.3125 7.09375 0.101562 6.09375 -0.3125 C 5.09375 -0.726562 4.21875 -1.304688 3.46875 -2.046875 C 2.726562 -2.785156 2.148438 -3.632812 1.734375 -4.59375 C 1.316406 -5.5625 1.109375 -6.601562 1.109375 -7.71875 C 1.109375 -8.8125 1.316406 -9.84375 1.734375 -10.8125 C 2.148438 -11.789062 2.722656 -12.644531 3.453125 -13.375 C 4.191406 -14.113281 5.046875 -14.691406 6.015625 -15.109375 C 6.984375 -15.535156 8.023438 -15.75 9.140625 -15.75 C 10.203125 -15.75 11.203125 -15.539062 12.140625 -15.125 C 13.078125 -14.71875 13.890625 -14.164062 14.578125 -13.46875 C 15.273438 -12.78125 15.828125 -11.96875 16.234375 -11.03125 C 16.648438 -10.101562 16.859375 -9.101562 16.859375 -8.03125 C 16.859375 -7.738281 16.847656 -7.484375 16.828125 -7.265625 C 16.804688 -7.046875 16.785156 -6.847656 16.765625 -6.671875 C 16.734375 -6.460938 16.707031 -6.285156 16.6875 -6.140625 L 5.515625 -6.140625 C 5.742188 -5.429688 6.1875 -4.804688 6.84375 -4.265625 C 7.507812 -3.734375 8.429688 -3.46875 9.609375 -3.46875 C 10.273438 -3.46875 10.859375 -3.550781 11.359375 -3.71875 C 11.867188 -3.882812 12.300781 -4.082031 12.65625 -4.3125 C 13.0625 -4.5625 13.410156 -4.859375 13.703125 -5.203125 L 15.90625 -2.203125 C 15.445312 -1.742188 14.878906 -1.320312 14.203125 -0.9375 C 13.640625 -0.625 12.945312 -0.335938 12.125 -0.078125 C 11.3125 0.179688 10.367188 0.3125 9.296875 0.3125 Z M 12.4375 -9.296875 C 12.207031 -10.003906 11.789062 -10.625 11.1875 -11.15625 C 10.59375 -11.695312 9.859375 -11.96875 8.984375 -11.96875 C 8.097656 -11.96875 7.351562 -11.695312 6.75 -11.15625 C 6.15625 -10.625 5.742188 -10.003906 5.515625 -9.296875 Z M 12.4375 -9.296875 "/></g></g></g><g fill="rgb(99.609375%, 100%, 100%)" fill-opacity="1"><g transform="translate(127.040639, 242.450828)"><g><path d="M 2.203125 -22.046875 L 6.453125 -22.046875 L 6.453125 0 L 2.203125 0 Z M 2.203125 -22.046875 "/></g></g></g><g fill="rgb(99.609375%, 100%, 100%)" fill-opacity="1"><g transform="translate(135.073153, 242.450828)"><g><path d="M 9.296875 0.3125 C 8.160156 0.3125 7.09375 0.101562 6.09375 -0.3125 C 5.09375 -0.726562 4.21875 -1.304688 3.46875 -2.046875 C 2.726562 -2.785156 2.148438 -3.632812 1.734375 -4.59375 C 1.316406 -5.5625 1.109375 -6.601562 1.109375 -7.71875 C 1.109375 -8.8125 1.316406 -9.84375 1.734375 -10.8125 C 2.148438 -11.789062 2.722656 -12.644531 3.453125 -13.375 C 4.191406 -14.113281 5.046875 -14.691406 6.015625 -15.109375 C 6.984375 -15.535156 8.023438 -15.75 9.140625 -15.75 C 10.203125 -15.75 11.203125 -15.539062 12.140625 -15.125 C 13.078125 -14.71875 13.890625 -14.164062 14.578125 -13.46875 C 15.273438 -12.78125 15.828125 -11.96875 16.234375 -11.03125 C 16.648438 -10.101562 16.859375 -9.101562 16.859375 -8.03125 C 16.859375 -7.738281 16.847656 -7.484375 16.828125 -7.265625 C 16.804688 -7.046875 16.785156 -6.847656 16.765625 -6.671875 C 16.734375 -6.460938 16.707031 -6.285156 16.6875 -6.140625 L 5.515625 -6.140625 C 5.742188 -5.429688 6.1875 -4.804688 6.84375 -4.265625 C 7.507812 -3.734375 8.429688 -3.46875 9.609375 -3.46875 C 10.273438 -3.46875 10.859375 -3.550781 11.359375 -3.71875 C 11.867188 -3.882812 12.300781 -4.082031 12.65625 -4.3125 C 13.0625 -4.5625 13.410156 -4.859375 13.703125 -5.203125 L 15.90625 -2.203125 C 15.445312 -1.742188 14.878906 -1.320312 14.203125 -0.9375 C 13.640625 -0.625 12.945312 -0.335938 12.125 -0.078125 C 11.3125 0.179688 10.367188 0.3125 9.296875 0.3125 Z M 12.4375 -9.296875 C 12.207031 -10.003906 11.789062 -10.625 11.1875 -11.15625 C 10.59375 -11.695312 9.859375 -11.96875 8.984375 -11.96875 C 8.097656 -11.96875 7.351562 -11.695312 6.75 -11.15625 C 6.15625 -10.625 5.742188 -10.003906 5.515625 -9.296875 Z M 12.4375 -9.296875 "/></g></g></g><g fill="rgb(99.609375%, 100%, 100%)" fill-opacity="1"><g transform="translate(152.398176, 242.450828)"><g><path d="M 2.046875 -15.4375 L 6.296875 -15.4375 L 6.296875 -13.234375 L 6.453125 -13.234375 C 6.722656 -13.691406 7.0625 -14.109375 7.46875 -14.484375 C 7.820312 -14.804688 8.257812 -15.097656 8.78125 -15.359375 C 9.3125 -15.617188 9.953125 -15.75 10.703125 -15.75 C 11.523438 -15.75 12.226562 -15.609375 12.8125 -15.328125 C 13.40625 -15.046875 13.878906 -14.734375 14.234375 -14.390625 C 14.660156 -14.015625 15.007812 -13.578125 15.28125 -13.078125 L 15.4375 -13.078125 C 15.789062 -13.578125 16.21875 -14.015625 16.71875 -14.390625 C 17.144531 -14.734375 17.664062 -15.046875 18.28125 -15.328125 C 18.90625 -15.609375 19.632812 -15.75 20.46875 -15.75 C 21.226562 -15.75 21.929688 -15.609375 22.578125 -15.328125 C 23.234375 -15.046875 23.800781 -14.632812 24.28125 -14.09375 C 24.769531 -13.5625 25.148438 -12.914062 25.421875 -12.15625 C 25.691406 -11.40625 25.828125 -10.554688 25.828125 -9.609375 L 25.828125 0 L 21.578125 0 L 21.578125 -8.984375 C 21.578125 -9.859375 21.351562 -10.519531 20.90625 -10.96875 C 20.46875 -11.425781 19.851562 -11.65625 19.0625 -11.65625 C 18.175781 -11.65625 17.453125 -11.363281 16.890625 -10.78125 C 16.335938 -10.207031 16.0625 -9.445312 16.0625 -8.5 L 16.0625 0 L 11.8125 0 L 11.8125 -8.984375 C 11.8125 -9.859375 11.585938 -10.519531 11.140625 -10.96875 C 10.703125 -11.425781 10.085938 -11.65625 9.296875 -11.65625 C 8.410156 -11.65625 7.6875 -11.363281 7.125 -10.78125 C 6.570312 -10.207031 6.296875 -9.445312 6.296875 -8.5 L 6.296875 0 L 2.046875 0 Z M 2.046875 -15.4375 "/></g></g></g><g fill="rgb(99.609375%, 100%, 100%)" fill-opacity="1"><g transform="translate(179.64571, 242.450828)"><g><path d="M 9.296875 0.3125 C 8.160156 0.3125 7.09375 0.101562 6.09375 -0.3125 C 5.09375 -0.726562 4.21875 -1.304688 3.46875 -2.046875 C 2.726562 -2.785156 2.148438 -3.632812 1.734375 -4.59375 C 1.316406 -5.5625 1.109375 -6.601562 1.109375 -7.71875 C 1.109375 -8.8125 1.316406 -9.84375 1.734375 -10.8125 C 2.148438 -11.789062 2.722656 -12.644531 3.453125 -13.375 C 4.191406 -14.113281 5.046875 -14.691406 6.015625 -15.109375 C 6.984375 -15.535156 8.023438 -15.75 9.140625 -15.75 C 10.203125 -15.75 11.203125 -15.539062 12.140625 -15.125 C 13.078125 -14.71875 13.890625 -14.164062 14.578125 -13.46875 C 15.273438 -12.78125 15.828125 -11.96875 16.234375 -11.03125 C 16.648438 -10.101562 16.859375 -9.101562 16.859375 -8.03125 C 16.859375 -7.738281 16.847656 -7.484375 16.828125 -7.265625 C 16.804688 -7.046875 16.785156 -6.847656 16.765625 -6.671875 C 16.734375 -6.460938 16.707031 -6.285156 16.6875 -6.140625 L 5.515625 -6.140625 C 5.742188 -5.429688 6.1875 -4.804688 6.84375 -4.265625 C 7.507812 -3.734375 8.429688 -3.46875 9.609375 -3.46875 C 10.273438 -3.46875 10.859375 -3.550781 11.359375 -3.71875 C 11.867188 -3.882812 12.300781 -4.082031 12.65625 -4.3125 C 13.0625 -4.5625 13.410156 -4.859375 13.703125 -5.203125 L 15.90625 -2.203125 C 15.445312 -1.742188 14.878906 -1.320312 14.203125 -0.9375 C 13.640625 -0.625 12.945312 -0.335938 12.125 -0.078125 C 11.3125 0.179688 10.367188 0.3125 9.296875 0.3125 Z M 12.4375 -9.296875 C 12.207031 -10.003906 11.789062 -10.625 11.1875 -11.15625 C 10.59375 -11.695312 9.859375 -11.96875 8.984375 -11.96875 C 8.097656 -11.96875 7.351562 -11.695312 6.75 -11.15625 C 6.15625 -10.625 5.742188 -10.003906 5.515625 -9.296875 Z M 12.4375 -9.296875 "/></g></g></g><g fill="rgb(99.609375%, 100%, 100%)" fill-opacity="1"><g transform="translate(196.970737, 242.450828)"><g><path d="M 8.03125 0.3125 C 7.125 0.3125 6.25 0.117188 5.40625 -0.265625 C 4.570312 -0.648438 3.832031 -1.203125 3.1875 -1.921875 C 2.550781 -2.640625 2.046875 -3.488281 1.671875 -4.46875 C 1.296875 -5.457031 1.109375 -6.539062 1.109375 -7.71875 C 1.109375 -8.894531 1.296875 -9.972656 1.671875 -10.953125 C 2.046875 -11.941406 2.550781 -12.785156 3.1875 -13.484375 C 3.832031 -14.191406 4.570312 -14.742188 5.40625 -15.140625 C 6.25 -15.546875 7.125 -15.75 8.03125 -15.75 C 8.851562 -15.75 9.566406 -15.617188 10.171875 -15.359375 C 10.785156 -15.097656 11.300781 -14.804688 11.71875 -14.484375 C 12.195312 -14.109375 12.597656 -13.691406 12.921875 -13.234375 L 13.078125 -13.234375 L 13.078125 -22.046875 L 17.328125 -22.046875 L 17.328125 0 L 13.078125 0 L 13.078125 -2.203125 L 12.921875 -2.203125 C 12.597656 -1.742188 12.195312 -1.320312 11.71875 -0.9375 C 11.300781 -0.625 10.785156 -0.335938 10.171875 -0.078125 C 9.566406 0.179688 8.851562 0.3125 8.03125 0.3125 Z M 9.296875 -3.625 C 9.835938 -3.625 10.347656 -3.726562 10.828125 -3.9375 C 11.316406 -4.144531 11.738281 -4.425781 12.09375 -4.78125 C 12.445312 -5.144531 12.722656 -5.578125 12.921875 -6.078125 C 13.128906 -6.578125 13.234375 -7.125 13.234375 -7.71875 C 13.234375 -8.300781 13.128906 -8.84375 12.921875 -9.34375 C 12.722656 -9.851562 12.445312 -10.285156 12.09375 -10.640625 C 11.738281 -11.003906 11.316406 -11.289062 10.828125 -11.5 C 10.347656 -11.707031 9.835938 -11.8125 9.296875 -11.8125 C 8.742188 -11.8125 8.226562 -11.707031 7.75 -11.5 C 7.269531 -11.289062 6.847656 -11.003906 6.484375 -10.640625 C 6.128906 -10.285156 5.851562 -9.851562 5.65625 -9.34375 C 5.457031 -8.84375 5.359375 -8.300781 5.359375 -7.71875 C 5.359375 -7.125 5.457031 -6.578125 5.65625 -6.078125 C 5.851562 -5.578125 6.128906 -5.144531 6.484375 -4.78125 C 6.847656 -4.425781 7.269531 -4.144531 7.75 -3.9375 C 8.226562 -3.726562 8.742188 -3.625 9.296875 -3.625 Z M 9.296875 -3.625 "/></g></g></g><g fill="rgb(99.609375%, 100%, 100%)" fill-opacity="1"><g transform="translate(215.870768, 242.450828)"><g><path d="M 2.046875 -15.4375 L 6.296875 -15.4375 L 6.296875 0 L 2.046875 0 Z M 4.15625 -17.484375 C 3.488281 -17.484375 2.914062 -17.71875 2.4375 -18.1875 C 1.96875 -18.664062 1.734375 -19.21875 1.734375 -19.84375 C 1.734375 -20.476562 1.972656 -21.03125 2.453125 -21.5 C 2.941406 -21.96875 3.519531 -22.203125 4.1875 -22.203125 C 4.863281 -22.203125 5.4375 -21.96875 5.90625 -21.5 C 6.375 -21.03125 6.609375 -20.476562 6.609375 -19.84375 C 6.609375 -19.21875 6.367188 -18.664062 5.890625 -18.1875 C 5.410156 -17.71875 4.832031 -17.484375 4.15625 -17.484375 Z M 4.15625 -17.484375 "/></g></g></g><g fill="rgb(99.609375%, 100%, 100%)" fill-opacity="1"><g transform="translate(223.588285, 242.450828)"><g><path d="M 9.296875 0.3125 C 8.160156 0.3125 7.09375 0.101562 6.09375 -0.3125 C 5.09375 -0.726562 4.21875 -1.304688 3.46875 -2.046875 C 2.726562 -2.785156 2.148438 -3.632812 1.734375 -4.59375 C 1.316406 -5.5625 1.109375 -6.601562 1.109375 -7.71875 C 1.109375 -8.8125 1.316406 -9.84375 1.734375 -10.8125 C 2.148438 -11.789062 2.726562 -12.644531 3.46875 -13.375 C 4.21875 -14.113281 5.09375 -14.691406 6.09375 -15.109375 C 7.09375 -15.535156 8.160156 -15.75 9.296875 -15.75 C 10.410156 -15.75 11.363281 -15.585938 12.15625 -15.265625 C 12.957031 -14.941406 13.628906 -14.578125 14.171875 -14.171875 C 14.804688 -13.710938 15.332031 -13.1875 15.75 -12.59375 L 13.078125 -9.921875 C 12.773438 -10.273438 12.4375 -10.59375 12.0625 -10.875 C 11.726562 -11.101562 11.328125 -11.316406 10.859375 -11.515625 C 10.398438 -11.710938 9.878906 -11.8125 9.296875 -11.8125 C 8.742188 -11.8125 8.226562 -11.707031 7.75 -11.5 C 7.269531 -11.289062 6.847656 -11.003906 6.484375 -10.640625 C 6.128906 -10.285156 5.851562 -9.851562 5.65625 -9.34375 C 5.457031 -8.84375 5.359375 -8.300781 5.359375 -7.71875 C 5.359375 -7.125 5.457031 -6.578125 5.65625 -6.078125 C 5.851562 -5.578125 6.128906 -5.144531 6.484375 -4.78125 C 6.847656 -4.425781 7.269531 -4.144531 7.75 -3.9375 C 8.226562 -3.726562 8.742188 -3.625 9.296875 -3.625 C 9.878906 -3.625 10.398438 -3.722656 10.859375 -3.921875 C 11.328125 -4.117188 11.726562 -4.332031 12.0625 -4.5625 C 12.4375 -4.84375 12.773438 -5.160156 13.078125 -5.515625 L 15.75 -2.828125 C 15.332031 -2.242188 14.804688 -1.722656 14.171875 -1.265625 C 13.628906 -0.859375 12.957031 -0.492188 12.15625 -0.171875 C 11.363281 0.148438 10.410156 0.3125 9.296875 0.3125 Z M 9.296875 0.3125 "/></g></g></g><g fill="rgb(99.609375%, 100%, 100%)" fill-opacity="1"><g transform="translate(239.338308, 242.450828)"><g><path d="M 2.046875 -15.4375 L 6.296875 -15.4375 L 6.296875 0 L 2.046875 0 Z M 4.15625 -17.484375 C 3.488281 -17.484375 2.914062 -17.71875 2.4375 -18.1875 C 1.96875 -18.664062 1.734375 -19.21875 1.734375 -19.84375 C 1.734375 -20.476562 1.972656 -21.03125 2.453125 -21.5 C 2.941406 -21.96875 3.519531 -22.203125 4.1875 -22.203125 C 4.863281 -22.203125 5.4375 -21.96875 5.90625 -21.5 C 6.375 -21.03125 6.609375 -20.476562 6.609375 -19.84375 C 6.609375 -19.21875 6.367188 -18.664062 5.890625 -18.1875 C 5.410156 -17.71875 4.832031 -17.484375 4.15625 -17.484375 Z M 4.15625 -17.484375 "/></g></g></g><g fill="rgb(99.609375%, 100%, 100%)" fill-opacity="1"><g transform="translate(247.055825, 242.450828)"><g><path d="M 2.046875 -15.4375 L 6.296875 -15.4375 L 6.296875 -13.234375 L 6.453125 -13.234375 C 6.796875 -13.691406 7.1875 -14.109375 7.625 -14.484375 C 8 -14.804688 8.46875 -15.097656 9.03125 -15.359375 C 9.601562 -15.617188 10.269531 -15.75 11.03125 -15.75 C 11.800781 -15.75 12.53125 -15.597656 13.21875 -15.296875 C 13.914062 -14.992188 14.519531 -14.5625 15.03125 -14 C 15.550781 -13.445312 15.957031 -12.769531 16.25 -11.96875 C 16.539062 -11.164062 16.6875 -10.273438 16.6875 -9.296875 L 16.6875 0 L 12.4375 0 L 12.4375 -8.65625 C 12.4375 -9.601562 12.1875 -10.335938 11.6875 -10.859375 C 11.1875 -11.390625 10.492188 -11.65625 9.609375 -11.65625 C 8.660156 -11.65625 7.867188 -11.332031 7.234375 -10.6875 C 6.609375 -10.050781 6.296875 -9.21875 6.296875 -8.1875 L 6.296875 0 L 2.046875 0 Z M 2.046875 -15.4375 "/></g></g></g><g fill="rgb(99.609375%, 100%, 100%)" fill-opacity="1"><g transform="translate(265.168354, 242.450828)"><g><path d="M 5.984375 0.3125 C 5.265625 0.3125 4.617188 0.203125 4.046875 -0.015625 C 3.472656 -0.234375 2.976562 -0.539062 2.5625 -0.9375 C 2.15625 -1.34375 1.835938 -1.8125 1.609375 -2.34375 C 1.378906 -2.882812 1.265625 -3.46875 1.265625 -4.09375 C 1.265625 -5.351562 1.664062 -6.425781 2.46875 -7.3125 C 3.28125 -8.207031 4.398438 -8.785156 5.828125 -9.046875 L 10.703125 -9.921875 C 10.617188 -10.460938 10.351562 -10.9375 9.90625 -11.34375 C 9.457031 -11.757812 8.832031 -11.96875 8.03125 -11.96875 C 7.488281 -11.96875 7 -11.878906 6.5625 -11.703125 C 6.132812 -11.523438 5.773438 -11.320312 5.484375 -11.09375 C 5.128906 -10.832031 4.820312 -10.546875 4.5625 -10.234375 L 2.046875 -12.75 C 2.484375 -13.300781 3.019531 -13.796875 3.65625 -14.234375 C 4.195312 -14.617188 4.851562 -14.96875 5.625 -15.28125 C 6.40625 -15.59375 7.3125 -15.75 8.34375 -15.75 C 9.332031 -15.75 10.226562 -15.59375 11.03125 -15.28125 C 11.84375 -14.96875 12.539062 -14.53125 13.125 -13.96875 C 13.71875 -13.414062 14.171875 -12.765625 14.484375 -12.015625 C 14.804688 -11.273438 14.96875 -10.472656 14.96875 -9.609375 L 14.96875 0 L 10.703125 0 L 10.703125 -1.890625 L 10.546875 -1.890625 C 10.210938 -1.472656 9.828125 -1.101562 9.390625 -0.78125 C 9.003906 -0.488281 8.523438 -0.234375 7.953125 -0.015625 C 7.378906 0.203125 6.722656 0.3125 5.984375 0.3125 Z M 7.40625 -3.15625 C 8.34375 -3.15625 9.125 -3.472656 9.75 -4.109375 C 10.382812 -4.753906 10.703125 -5.585938 10.703125 -6.609375 L 10.703125 -6.9375 L 7.25 -6.296875 C 6.695312 -6.191406 6.269531 -6.003906 5.96875 -5.734375 C 5.664062 -5.460938 5.515625 -5.125 5.515625 -4.71875 C 5.515625 -4.238281 5.671875 -3.859375 5.984375 -3.578125 C 6.296875 -3.296875 6.769531 -3.15625 7.40625 -3.15625 Z M 7.40625 -3.15625 "/></g></g></g></svg>