<svg xmlns="http://www.w3.org/2000/svg" xmlns:xlink="http://www.w3.org/1999/xlink" width="500" zoomAndPan="magnify" viewBox="0 0 375 374.999991" height="500" preserveAspectRatio="xMidYMid meet" version="1.0"><defs><g/><clipPath id="id1"><path d="M 145.65625 203 L 159 203 L 159 214.671875 L 145.65625 214.671875 Z M 145.65625 203 " clip-rule="nonzero"/></clipPath></defs><rect x="-37.5" width="450" fill="rgb(100%, 100%, 100%)" y="-37.499999" height="449.999989" fill-opacity="1"/><rect x="-37.5" width="450" fill="rgb(15.289307%, 12.548828%, 100%)" y="-37.499999" height="449.999989" fill-opacity="1"/><rect x="-37.5" width="450" fill="rgb(100%, 100%, 100%)" y="-37.499999" height="449.999989" fill-opacity="1"/><rect x="-37.5" width="450" fill="rgb(15.289307%, 12.548828%, 100%)" y="-37.499999" height="449.999989" fill-opacity="1"/><path fill="rgb(99.609375%, 100%, 100%)" d="M 151.183594 203.605469 L 153.375 200.234375 L 152.769531 199.839844 C 152.664062 199.773438 152.582031 199.6875 152.507812 199.597656 L 150.246094 203.074219 C 150.363281 203.101562 150.476562 203.144531 150.578125 203.214844 L 151.183594 203.605469 " fill-opacity="1" fill-rule="nonzero"/><path fill="rgb(99.609375%, 100%, 100%)" d="M 159.417969 204.148438 L 157.226562 207.519531 L 157.929688 207.972656 C 157.996094 208.019531 158.058594 208.074219 158.113281 208.128906 L 160.339844 204.703125 C 160.265625 204.675781 160.1875 204.648438 160.121094 204.601562 L 159.417969 204.148438 " fill-opacity="1" fill-rule="nonzero"/><path fill="rgb(99.609375%, 100%, 100%)" d="M 156.328125 206.9375 L 157.226562 207.519531 L 159.417969 204.148438 L 158.519531 203.566406 L 156.328125 206.9375 " fill-opacity="1" fill-rule="nonzero"/><path fill="rgb(99.609375%, 100%, 100%)" d="M 154.277344 200.816406 L 153.375 200.234375 L 151.183594 203.605469 L 152.085938 204.1875 L 154.277344 200.816406 " fill-opacity="1" fill-rule="nonzero"/><path fill="rgb(99.609375%, 100%, 100%)" d="M 164.144531 198.414062 C 164.082031 198.792969 163.941406 199.167969 163.71875 199.511719 L 160.339844 204.703125 C 160.457031 204.746094 160.578125 204.773438 160.703125 204.773438 C 160.78125 204.773438 160.855469 204.769531 160.929688 204.75 C 161.207031 204.691406 161.453125 204.527344 161.605469 204.289062 L 183.507812 170.609375 C 183.171875 170.46875 182.839844 170.320312 182.511719 170.167969 L 164.144531 198.414062 " fill-opacity="1" fill-rule="nonzero"/><path fill="rgb(99.609375%, 100%, 100%)" d="M 156.925781 193.453125 L 175.160156 165.40625 C 174.886719 165.167969 174.621094 164.921875 174.355469 164.675781 L 152.453125 198.359375 C 152.199219 198.75 152.238281 199.246094 152.507812 199.597656 L 155.871094 194.425781 C 156.140625 194.011719 156.503906 193.679688 156.925781 193.453125 " fill-opacity="1" fill-rule="nonzero"/><path fill="rgb(99.609375%, 100%, 100%)" d="M 154.277344 200.816406 L 158.519531 203.566406 L 159.105469 202.664062 L 154.863281 199.917969 L 154.277344 200.816406 " fill-opacity="1" fill-rule="nonzero"/><path fill="rgb(99.609375%, 100%, 100%)" d="M 152.769531 199.839844 L 153.375 200.234375 L 153.960938 199.335938 L 153.355469 198.941406 L 156.925781 193.453125 C 156.503906 193.679688 156.140625 194.011719 155.871094 194.425781 L 152.507812 199.597656 C 152.582031 199.6875 152.664062 199.773438 152.769531 199.839844 " fill-opacity="1" fill-rule="nonzero"/><path fill="rgb(99.609375%, 100%, 100%)" d="M 164.144531 198.414062 L 160.703125 203.703125 L 160.003906 203.25 L 159.417969 204.148438 L 160.121094 204.601562 C 160.1875 204.648438 160.265625 204.675781 160.339844 204.703125 L 163.71875 199.511719 C 163.941406 199.167969 164.082031 198.792969 164.144531 198.414062 " fill-opacity="1" fill-rule="nonzero"/><path fill="rgb(99.609375%, 100%, 100%)" d="M 158.519531 203.566406 L 159.417969 204.148438 L 160.003906 203.25 L 159.105469 202.664062 L 158.519531 203.566406 " fill-opacity="1" fill-rule="nonzero"/><path fill="rgb(99.609375%, 100%, 100%)" d="M 154.863281 199.917969 L 153.960938 199.335938 L 153.375 200.234375 L 154.277344 200.816406 L 154.863281 199.917969 " fill-opacity="1" fill-rule="nonzero"/><path fill="rgb(99.609375%, 100%, 100%)" d="M 181.515625 169.730469 L 163.941406 196.757812 C 164.167969 197.273438 164.242188 197.847656 164.144531 198.414062 L 182.511719 170.167969 C 182.046875 169.953125 181.589844 169.722656 181.132812 169.484375 L 181.515625 169.730469 " fill-opacity="1" fill-rule="nonzero"/><path fill="rgb(99.609375%, 100%, 100%)" d="M 158.429688 193.105469 L 175.96875 166.136719 L 176.328125 166.371094 C 175.929688 166.058594 175.542969 165.738281 175.160156 165.40625 L 156.925781 193.453125 C 157.347656 193.222656 157.824219 193.097656 158.324219 193.097656 C 158.359375 193.097656 158.394531 193.105469 158.429688 193.105469 " fill-opacity="1" fill-rule="nonzero"/><path fill="rgb(99.609375%, 100%, 100%)" d="M 154.863281 199.917969 L 159.105469 202.664062 L 159.6875 201.765625 L 155.449219 199.019531 L 154.863281 199.917969 " fill-opacity="1" fill-rule="nonzero"/><path fill="rgb(99.609375%, 100%, 100%)" d="M 163.941406 196.757812 L 163.101562 198.050781 C 163.082031 198.351562 162.992188 198.652344 162.816406 198.925781 L 162.382812 199.59375 L 160.003906 203.25 L 160.703125 203.703125 L 164.144531 198.414062 C 164.242188 197.847656 164.167969 197.273438 163.941406 196.757812 " fill-opacity="1" fill-rule="nonzero"/><path fill="rgb(99.609375%, 100%, 100%)" d="M 156.769531 195.011719 C 156.992188 194.671875 157.304688 194.433594 157.65625 194.300781 L 158.429688 193.105469 C 158.394531 193.105469 158.359375 193.097656 158.324219 193.097656 C 157.824219 193.097656 157.347656 193.222656 156.925781 193.453125 L 153.355469 198.941406 L 153.960938 199.335938 L 156.339844 195.675781 L 156.769531 195.011719 " fill-opacity="1" fill-rule="nonzero"/><path fill="rgb(99.609375%, 100%, 100%)" d="M 155.449219 199.019531 L 154.839844 198.625 L 157.65625 194.300781 C 157.304688 194.433594 156.992188 194.671875 156.769531 195.011719 L 156.339844 195.675781 L 153.960938 199.335938 L 154.863281 199.917969 L 155.449219 199.019531 " fill-opacity="1" fill-rule="nonzero"/><path fill="rgb(99.609375%, 100%, 100%)" d="M 162.816406 198.925781 C 162.992188 198.652344 163.082031 198.351562 163.101562 198.050781 L 160.386719 202.21875 L 159.6875 201.765625 L 159.105469 202.664062 L 160.003906 203.25 L 162.382812 199.59375 L 162.816406 198.925781 " fill-opacity="1" fill-rule="nonzero"/><g clip-path="url(#id1)"><path fill="rgb(99.609375%, 100%, 100%)" d="M 155.34375 211.945312 L 154.261719 213.613281 L 146.910156 208.851562 L 147.863281 207.386719 C 147.902344 206.914062 148.050781 206.449219 148.328125 206.027344 L 150.246094 203.074219 C 150.09375 203.035156 149.929688 203.027344 149.769531 203.0625 C 149.492188 203.121094 149.246094 203.289062 149.089844 203.527344 L 146.011719 208.265625 C 145.855469 208.507812 145.800781 208.796875 145.859375 209.074219 C 145.917969 209.351562 146.085938 209.597656 146.328125 209.75 L 153.675781 214.511719 C 153.859375 214.628906 154.058594 214.683594 154.261719 214.683594 C 154.613281 214.683594 154.957031 214.511719 155.164062 214.195312 L 158.242188 209.457031 C 158.523438 209.03125 158.453125 208.480469 158.113281 208.128906 L 156.171875 211.109375 C 155.953125 211.449219 155.667969 211.730469 155.34375 211.945312 " fill-opacity="1" fill-rule="nonzero"/></g><path fill="rgb(99.609375%, 100%, 100%)" d="M 151.5 205.089844 L 155.742188 207.835938 L 156.328125 206.9375 L 152.085938 204.1875 L 151.5 205.089844 " fill-opacity="1" fill-rule="nonzero"/><path fill="rgb(99.609375%, 100%, 100%)" d="M 157.929688 207.972656 L 157.226562 207.519531 L 156.644531 208.421875 L 157.34375 208.875 L 155.34375 211.945312 C 155.667969 211.730469 155.953125 211.449219 156.171875 211.109375 L 158.113281 208.128906 C 158.058594 208.074219 157.996094 208.019531 157.929688 207.972656 " fill-opacity="1" fill-rule="nonzero"/><path fill="rgb(99.609375%, 100%, 100%)" d="M 147.863281 207.386719 L 149.992188 204.113281 L 150.597656 204.503906 L 151.183594 203.605469 L 150.578125 203.214844 C 150.476562 203.144531 150.363281 203.101562 150.246094 203.074219 L 148.328125 206.027344 C 148.050781 206.449219 147.902344 206.914062 147.863281 207.386719 " fill-opacity="1" fill-rule="nonzero"/><path fill="rgb(99.609375%, 100%, 100%)" d="M 152.085938 204.1875 L 151.183594 203.605469 L 150.597656 204.503906 L 151.5 205.089844 L 152.085938 204.1875 " fill-opacity="1" fill-rule="nonzero"/><path fill="rgb(99.609375%, 100%, 100%)" d="M 155.742188 207.835938 L 156.644531 208.421875 L 157.226562 207.519531 L 156.328125 206.9375 L 155.742188 207.835938 " fill-opacity="1" fill-rule="nonzero"/><path fill="rgb(99.609375%, 100%, 100%)" d="M 152.390625 212.117188 C 152.300781 212.074219 152.21875 212.023438 152.132812 211.972656 L 149.1875 210.0625 C 149.101562 210.003906 149.019531 209.949219 148.949219 209.886719 C 148.167969 209.261719 147.789062 208.320312 147.863281 207.386719 L 146.910156 208.851562 L 154.261719 213.613281 L 155.34375 211.945312 C 154.871094 212.261719 154.3125 212.441406 153.722656 212.441406 C 153.261719 212.441406 152.800781 212.328125 152.390625 212.117188 " fill-opacity="1" fill-rule="nonzero"/><path fill="rgb(99.609375%, 100%, 100%)" d="M 150.914062 205.988281 L 155.15625 208.734375 L 155.742188 207.835938 L 151.5 205.089844 L 150.914062 205.988281 " fill-opacity="1" fill-rule="nonzero"/><path fill="rgb(99.609375%, 100%, 100%)" d="M 155.273438 210.527344 C 155.09375 210.800781 154.851562 211.007812 154.582031 211.148438 L 153.945312 212.128906 L 148.398438 208.535156 L 148.9375 207.703125 C 148.921875 207.328125 149.007812 206.949219 149.226562 206.613281 L 149.660156 205.945312 L 150.597656 204.503906 L 149.992188 204.113281 L 147.863281 207.386719 C 147.789062 208.320312 148.167969 209.261719 148.949219 209.886719 C 149.019531 209.949219 149.101562 210.003906 149.1875 210.0625 L 152.132812 211.972656 C 152.21875 212.023438 152.300781 212.074219 152.390625 212.117188 C 152.800781 212.328125 153.261719 212.441406 153.722656 212.441406 C 154.3125 212.441406 154.871094 212.261719 155.34375 211.945312 L 157.34375 208.875 L 156.644531 208.421875 L 155.707031 209.859375 L 155.273438 210.527344 " fill-opacity="1" fill-rule="nonzero"/><path fill="rgb(99.609375%, 100%, 100%)" d="M 155.15625 208.734375 L 155.855469 209.1875 L 154.582031 211.148438 C 154.851562 211.007812 155.09375 210.800781 155.273438 210.527344 L 155.707031 209.859375 L 156.644531 208.421875 L 155.742188 207.835938 L 155.15625 208.734375 " fill-opacity="1" fill-rule="nonzero"/><path fill="rgb(99.609375%, 100%, 100%)" d="M 149.226562 206.613281 C 149.007812 206.949219 148.921875 207.328125 148.9375 207.703125 L 150.308594 205.59375 L 150.914062 205.988281 L 151.5 205.089844 L 150.597656 204.503906 L 149.660156 205.945312 L 149.226562 206.613281 " fill-opacity="1" fill-rule="nonzero"/><path fill="rgb(99.609375%, 100%, 100%)" d="M 212.363281 116.230469 C 207.332031 112.972656 201.515625 111.25 195.542969 111.25 C 185.003906 111.25 175.289062 116.511719 169.558594 125.324219 C 165.058594 132.246094 163.527344 140.5 165.25 148.570312 C 166.582031 154.832031 169.761719 160.394531 174.355469 164.675781 L 174.75 164.070312 C 174.816406 163.964844 174.90625 163.878906 175 163.804688 C 164.703125 154.113281 162.480469 138.175781 170.460938 125.910156 C 179.441406 112.097656 197.9375 108.167969 211.777344 117.132812 C 225.613281 126.09375 229.550781 144.558594 220.570312 158.371094 C 212.59375 170.640625 197.101562 175.101562 184.042969 169.660156 C 184.015625 169.78125 183.972656 169.894531 183.902344 170 L 183.507812 170.609375 C 187.285156 172.199219 191.347656 173.03125 195.484375 173.03125 C 206.027344 173.03125 215.742188 167.769531 221.46875 158.953125 C 225.972656 152.035156 227.5 143.777344 225.78125 135.707031 C 224.058594 127.640625 219.292969 120.722656 212.363281 116.230469 " fill-opacity="1" fill-rule="nonzero"/><path fill="rgb(99.609375%, 100%, 100%)" d="M 181.132812 169.484375 L 176.328125 166.371094 C 177.078125 166.960938 177.855469 167.523438 178.667969 168.046875 C 179.46875 168.566406 180.292969 169.042969 181.132812 169.484375 " fill-opacity="1" fill-rule="nonzero"/><path fill="rgb(99.609375%, 100%, 100%)" d="M 175.652344 164.652344 L 176.96875 165.507812 C 176.285156 164.964844 175.628906 164.394531 175 163.804688 C 174.90625 163.878906 174.816406 163.964844 174.75 164.070312 L 174.355469 164.675781 C 174.621094 164.921875 174.886719 165.167969 175.160156 165.40625 L 175.652344 164.652344 " fill-opacity="1" fill-rule="nonzero"/><path fill="rgb(99.609375%, 100%, 100%)" d="M 184.042969 169.660156 C 183.246094 169.332031 182.457031 168.964844 181.679688 168.558594 L 183 169.414062 L 182.511719 170.167969 C 182.839844 170.320312 183.171875 170.46875 183.507812 170.609375 L 183.902344 170 C 183.972656 169.894531 184.015625 169.78125 184.042969 169.660156 " fill-opacity="1" fill-rule="nonzero"/><path fill="rgb(99.609375%, 100%, 100%)" d="M 176.96875 165.507812 L 175.652344 164.652344 L 175.160156 165.40625 C 175.542969 165.738281 175.929688 166.058594 176.328125 166.371094 L 181.132812 169.484375 C 181.589844 169.722656 182.046875 169.953125 182.511719 170.167969 L 183 169.414062 L 181.679688 168.558594 C 180.859375 168.128906 180.046875 167.664062 179.253906 167.148438 C 178.457031 166.632812 177.699219 166.082031 176.96875 165.507812 " fill-opacity="1" fill-rule="nonzero"/><path fill="rgb(99.609375%, 100%, 100%)" d="M 176.234375 163.753906 L 177.554688 164.609375 C 172.34375 160.472656 168.753906 154.710938 167.351562 148.125 C 165.75 140.613281 167.171875 132.933594 171.359375 126.492188 C 176.691406 118.292969 185.734375 113.394531 195.542969 113.394531 C 201.097656 113.394531 206.507812 115 211.191406 118.03125 C 217.644531 122.210938 222.078125 128.648438 223.679688 136.15625 C 225.277344 143.664062 223.855469 151.347656 219.667969 157.785156 C 214.335938 165.988281 205.296875 170.882812 195.484375 170.882812 C 190.851562 170.882812 186.320312 169.765625 182.226562 167.636719 L 183.585938 168.515625 C 183.976562 168.769531 184.144531 169.234375 184.042969 169.660156 C 197.101562 175.101562 212.59375 170.640625 220.570312 158.371094 C 229.550781 144.558594 225.613281 126.09375 211.777344 117.132812 C 197.9375 108.167969 179.441406 112.097656 170.460938 125.910156 C 162.480469 138.175781 164.703125 154.113281 175 163.804688 C 175.125 163.707031 175.269531 163.636719 175.429688 163.605469 C 175.707031 163.546875 175.996094 163.597656 176.234375 163.753906 " fill-opacity="1" fill-rule="nonzero"/><path fill="rgb(99.609375%, 100%, 100%)" d="M 181.679688 168.558594 C 182.457031 168.964844 183.246094 169.332031 184.042969 169.660156 C 184.144531 169.234375 183.976562 168.769531 183.585938 168.515625 L 182.226562 167.636719 C 181.414062 167.210938 180.613281 166.753906 179.839844 166.246094 C 179.046875 165.734375 178.285156 165.1875 177.554688 164.609375 L 176.234375 163.753906 C 175.996094 163.597656 175.707031 163.546875 175.429688 163.605469 C 175.269531 163.636719 175.125 163.707031 175 163.804688 C 175.628906 164.394531 176.285156 164.964844 176.96875 165.507812 L 181.679688 168.558594 " fill-opacity="1" fill-rule="nonzero"/><path fill="rgb(99.609375%, 100%, 100%)" d="M 179.253906 167.148438 C 180.046875 167.664062 180.859375 168.128906 181.679688 168.558594 L 176.96875 165.507812 C 177.699219 166.082031 178.457031 166.632812 179.253906 167.148438 " fill-opacity="1" fill-rule="nonzero"/><path fill="rgb(99.609375%, 100%, 100%)" d="M 176.742188 129.980469 C 183.472656 119.632812 197.328125 116.6875 207.699219 123.40625 C 218.066406 130.121094 221.015625 143.953125 214.285156 154.300781 C 207.558594 164.648438 193.699219 167.589844 183.332031 160.875 C 172.964844 154.15625 170.011719 140.328125 176.742188 129.980469 Z M 215.1875 154.882812 C 218.597656 149.640625 219.757812 143.382812 218.453125 137.265625 C 217.148438 131.152344 213.539062 125.910156 208.28125 122.503906 C 204.46875 120.035156 200.058594 118.730469 195.53125 118.730469 C 187.542969 118.730469 180.183594 122.71875 175.839844 129.394531 C 168.800781 140.222656 171.898438 154.746094 182.75 161.773438 C 186.5625 164.246094 190.96875 165.550781 195.496094 165.550781 C 203.484375 165.550781 210.84375 161.5625 215.1875 154.882812 " fill-opacity="1" fill-rule="nonzero"/><path fill="rgb(99.609375%, 100%, 100%)" d="M 183.917969 159.976562 C 174.0625 153.589844 171.25 140.398438 177.644531 130.5625 C 181.589844 124.496094 188.273438 120.875 195.53125 120.875 C 199.644531 120.875 203.648438 122.0625 207.113281 124.304688 C 211.886719 127.398438 215.167969 132.160156 216.351562 137.714844 C 217.535156 143.269531 216.484375 148.953125 213.382812 153.714844 C 209.441406 159.78125 202.753906 163.40625 195.496094 163.40625 C 191.386719 163.40625 187.382812 162.21875 183.917969 159.976562 Z M 214.285156 154.300781 C 221.015625 143.953125 218.066406 130.121094 207.699219 123.40625 C 197.328125 116.6875 183.472656 119.632812 176.742188 129.980469 C 170.011719 140.328125 172.964844 154.15625 183.332031 160.875 C 193.699219 167.589844 207.558594 164.648438 214.285156 154.300781 " fill-opacity="1" fill-rule="nonzero"/><path fill="rgb(99.609375%, 100%, 100%)" d="M 182.769531 144.289062 C 182.738281 144.316406 182.707031 144.347656 182.671875 144.371094 C 182.707031 144.347656 182.738281 144.316406 182.769531 144.289062 " fill-opacity="1" fill-rule="nonzero"/><path fill="rgb(99.609375%, 100%, 100%)" d="M 182.214844 144.539062 C 182.171875 144.546875 182.125 144.554688 182.082031 144.554688 C 182.125 144.554688 182.171875 144.546875 182.214844 144.539062 " fill-opacity="1" fill-rule="nonzero"/><path fill="rgb(99.609375%, 100%, 100%)" d="M 182.582031 144.417969 C 182.550781 144.4375 182.523438 144.453125 182.492188 144.46875 C 182.523438 144.453125 182.550781 144.4375 182.582031 144.417969 " fill-opacity="1" fill-rule="nonzero"/><path fill="rgb(99.609375%, 100%, 100%)" d="M 186.128906 142.484375 C 186.683594 142.265625 187.304688 142.535156 187.523438 143.085938 L 187.527344 143.089844 C 187.527344 143.089844 187.527344 143.085938 187.527344 143.085938 L 185.296875 137.484375 C 185.136719 137.078125 184.738281 136.808594 184.296875 136.808594 C 183.855469 136.808594 183.460938 137.078125 183.300781 137.484375 L 181.339844 142.410156 L 182.070312 142.410156 C 182.664062 142.410156 183.144531 142.890625 183.144531 143.484375 C 183.144531 143.625 183.113281 143.761719 183.0625 143.886719 C 183.0625 143.886719 183.066406 143.882812 183.066406 143.878906 L 184.296875 140.789062 L 185.527344 143.878906 C 185.308594 143.328125 185.578125 142.703125 186.128906 142.484375 " fill-opacity="1" fill-rule="nonzero"/><path fill="rgb(99.609375%, 100%, 100%)" d="M 182.398438 144.5 C 182.363281 144.511719 182.332031 144.523438 182.292969 144.53125 C 182.328125 144.523438 182.363281 144.511719 182.398438 144.5 " fill-opacity="1" fill-rule="nonzero"/><path fill="rgb(99.609375%, 100%, 100%)" d="M 182.898438 144.15625 C 182.875 144.183594 182.855469 144.214844 182.832031 144.238281 C 182.855469 144.214844 182.875 144.183594 182.898438 144.15625 " fill-opacity="1" fill-rule="nonzero"/><path fill="rgb(99.609375%, 100%, 100%)" d="M 183.003906 144.003906 C 182.988281 144.03125 182.980469 144.054688 182.964844 144.078125 C 182.980469 144.054688 182.988281 144.03125 183.003906 144.003906 " fill-opacity="1" fill-rule="nonzero"/><path fill="rgb(99.609375%, 100%, 100%)" d="M 190.585938 144.480469 C 190.035156 144.261719 189.765625 143.636719 189.984375 143.085938 L 188.753906 146.179688 L 187.527344 143.089844 C 187.742188 143.636719 187.472656 144.261719 186.921875 144.480469 C 186.792969 144.53125 186.65625 144.554688 186.527344 144.554688 C 186.097656 144.554688 185.695312 144.300781 185.527344 143.878906 L 187.757812 149.480469 C 187.917969 149.890625 188.316406 150.15625 188.753906 150.15625 C 189.195312 150.15625 189.59375 149.890625 189.753906 149.480469 L 191.984375 143.878906 C 191.984375 143.878906 191.984375 143.875 191.984375 143.875 L 191.984375 143.878906 C 191.761719 144.429688 191.136719 144.699219 190.585938 144.480469 " fill-opacity="1" fill-rule="nonzero"/><path fill="rgb(99.609375%, 100%, 100%)" d="M 186.527344 144.554688 C 186.65625 144.554688 186.792969 144.53125 186.921875 144.480469 C 187.472656 144.261719 187.742188 143.636719 187.527344 143.089844 L 187.523438 143.085938 C 187.304688 142.535156 186.683594 142.265625 186.128906 142.484375 C 185.578125 142.703125 185.308594 143.328125 185.527344 143.878906 C 185.695312 144.300781 186.097656 144.554688 186.527344 144.554688 " fill-opacity="1" fill-rule="nonzero"/><path fill="rgb(99.609375%, 100%, 100%)" d="M 194.636719 144.1875 C 194.621094 144.167969 194.605469 144.152344 194.59375 144.132812 C 194.605469 144.152344 194.621094 144.167969 194.636719 144.1875 " fill-opacity="1" fill-rule="nonzero"/><path fill="rgb(99.609375%, 100%, 100%)" d="M 194.851562 144.378906 C 194.851562 144.375 194.847656 144.375 194.84375 144.375 C 194.847656 144.375 194.851562 144.375 194.851562 144.378906 " fill-opacity="1" fill-rule="nonzero"/><path fill="rgb(99.609375%, 100%, 100%)" d="M 195.164062 144.511719 C 195.140625 144.507812 195.117188 144.5 195.09375 144.492188 C 195.117188 144.5 195.140625 144.507812 195.164062 144.511719 " fill-opacity="1" fill-rule="nonzero"/><path fill="rgb(99.609375%, 100%, 100%)" d="M 195.441406 142.410156 L 196.171875 142.410156 L 194.210938 137.484375 C 194.050781 137.078125 193.652344 136.808594 193.210938 136.808594 C 192.773438 136.808594 192.375 137.078125 192.214844 137.484375 L 189.984375 143.085938 C 190.207031 142.535156 190.828125 142.265625 191.378906 142.484375 C 191.929688 142.703125 192.203125 143.328125 191.984375 143.875 L 193.210938 140.789062 L 194.445312 143.878906 C 194.445312 143.878906 194.445312 143.882812 194.445312 143.886719 C 194.398438 143.761719 194.367188 143.625 194.367188 143.484375 C 194.367188 142.890625 194.847656 142.410156 195.441406 142.410156 " fill-opacity="1" fill-rule="nonzero"/><path fill="rgb(99.609375%, 100%, 100%)" d="M 191.378906 142.484375 C 190.828125 142.265625 190.207031 142.535156 189.984375 143.085938 C 189.765625 143.636719 190.035156 144.261719 190.585938 144.480469 C 191.136719 144.699219 191.761719 144.429688 191.984375 143.878906 L 191.984375 143.875 C 192.203125 143.328125 191.929688 142.703125 191.378906 142.484375 " fill-opacity="1" fill-rule="nonzero"/><path fill="rgb(99.609375%, 100%, 100%)" d="M 181.070312 143.085938 L 181.339844 142.410156 L 177.71875 142.410156 C 177.125 142.410156 176.644531 142.890625 176.644531 143.484375 C 176.644531 144.074219 177.125 144.554688 177.71875 144.554688 L 182.070312 144.554688 C 182.070312 144.554688 182.074219 144.554688 182.082031 144.554688 C 181.945312 144.554688 181.804688 144.53125 181.671875 144.480469 C 181.121094 144.261719 180.851562 143.636719 181.070312 143.085938 " fill-opacity="1" fill-rule="nonzero"/><path fill="rgb(99.609375%, 100%, 100%)" d="M 182.671875 144.371094 C 182.644531 144.390625 182.613281 144.402344 182.582031 144.417969 C 182.613281 144.402344 182.644531 144.390625 182.671875 144.371094 " fill-opacity="1" fill-rule="nonzero"/><path fill="rgb(99.609375%, 100%, 100%)" d="M 182.492188 144.46875 C 182.460938 144.480469 182.429688 144.488281 182.398438 144.5 C 182.429688 144.488281 182.464844 144.480469 182.492188 144.46875 " fill-opacity="1" fill-rule="nonzero"/><path fill="rgb(99.609375%, 100%, 100%)" d="M 182.292969 144.53125 C 182.269531 144.535156 182.242188 144.535156 182.214844 144.539062 C 182.242188 144.535156 182.269531 144.535156 182.292969 144.53125 " fill-opacity="1" fill-rule="nonzero"/><path fill="rgb(99.609375%, 100%, 100%)" d="M 182.832031 144.238281 C 182.8125 144.257812 182.789062 144.273438 182.769531 144.289062 C 182.789062 144.273438 182.8125 144.257812 182.832031 144.238281 " fill-opacity="1" fill-rule="nonzero"/><path fill="rgb(99.609375%, 100%, 100%)" d="M 182.964844 144.078125 C 182.945312 144.105469 182.921875 144.128906 182.898438 144.15625 C 182.921875 144.128906 182.945312 144.105469 182.964844 144.078125 " fill-opacity="1" fill-rule="nonzero"/><path fill="rgb(99.609375%, 100%, 100%)" d="M 183.0625 143.886719 C 183.046875 143.929688 183.023438 143.96875 183.003906 144.003906 C 183.023438 143.96875 183.046875 143.929688 183.0625 143.886719 " fill-opacity="1" fill-rule="nonzero"/><path fill="rgb(99.609375%, 100%, 100%)" d="M 182.070312 142.410156 L 181.339844 142.410156 L 181.070312 143.085938 C 180.851562 143.636719 181.121094 144.261719 181.671875 144.480469 C 181.804688 144.53125 181.945312 144.554688 182.082031 144.554688 C 182.125 144.554688 182.171875 144.546875 182.214844 144.539062 C 182.242188 144.535156 182.269531 144.535156 182.292969 144.53125 C 182.332031 144.523438 182.363281 144.511719 182.398438 144.5 C 182.429688 144.488281 182.460938 144.480469 182.492188 144.46875 C 182.523438 144.453125 182.550781 144.4375 182.582031 144.417969 C 182.613281 144.402344 182.644531 144.390625 182.671875 144.371094 C 182.707031 144.347656 182.738281 144.316406 182.769531 144.289062 C 182.789062 144.273438 182.8125 144.257812 182.832031 144.238281 C 182.855469 144.214844 182.875 144.183594 182.898438 144.15625 C 182.921875 144.128906 182.945312 144.105469 182.964844 144.078125 C 182.980469 144.054688 182.988281 144.03125 183.003906 144.003906 C 183.023438 143.96875 183.046875 143.929688 183.0625 143.886719 C 183.113281 143.761719 183.144531 143.625 183.144531 143.484375 C 183.144531 142.890625 182.664062 142.410156 182.070312 142.410156 " fill-opacity="1" fill-rule="nonzero"/><path fill="rgb(99.609375%, 100%, 100%)" d="M 208.710938 144.375 C 208.632812 144.324219 208.5625 144.257812 208.5 144.1875 C 208.5625 144.257812 208.628906 144.320312 208.710938 144.375 " fill-opacity="1" fill-rule="nonzero"/><path fill="rgb(99.609375%, 100%, 100%)" d="M 208.457031 144.132812 C 208.398438 144.058594 208.351562 143.976562 208.3125 143.886719 C 208.347656 143.976562 208.398438 144.058594 208.457031 144.132812 " fill-opacity="1" fill-rule="nonzero"/><path fill="rgb(99.609375%, 100%, 100%)" d="M 209.703125 144.480469 C 209.574219 144.53125 209.441406 144.554688 209.3125 144.554688 L 213.660156 144.554688 C 214.25 144.554688 214.734375 144.074219 214.734375 143.484375 C 214.734375 142.890625 214.25 142.410156 213.660156 142.410156 L 210.035156 142.410156 L 210.304688 143.085938 C 210.523438 143.636719 210.257812 144.261719 209.703125 144.480469 " fill-opacity="1" fill-rule="nonzero"/><path fill="rgb(99.609375%, 100%, 100%)" d="M 208.960938 144.492188 C 208.878906 144.464844 208.792969 144.429688 208.71875 144.378906 C 208.792969 144.429688 208.875 144.464844 208.960938 144.492188 " fill-opacity="1" fill-rule="nonzero"/><path fill="rgb(99.609375%, 100%, 100%)" d="M 209.296875 144.554688 C 209.207031 144.554688 209.117188 144.539062 209.027344 144.511719 C 209.113281 144.535156 209.203125 144.554688 209.296875 144.554688 " fill-opacity="1" fill-rule="nonzero"/><path fill="rgb(99.609375%, 100%, 100%)" d="M 195.09375 144.492188 C 195.011719 144.464844 194.929688 144.429688 194.851562 144.378906 C 194.929688 144.429688 195.007812 144.464844 195.09375 144.492188 " fill-opacity="1" fill-rule="nonzero"/><path fill="rgb(99.609375%, 100%, 100%)" d="M 194.84375 144.375 C 194.765625 144.324219 194.699219 144.257812 194.636719 144.1875 C 194.695312 144.253906 194.765625 144.320312 194.84375 144.375 " fill-opacity="1" fill-rule="nonzero"/><path fill="rgb(99.609375%, 100%, 100%)" d="M 201.199219 144.1875 C 201.136719 144.257812 201.066406 144.324219 200.988281 144.375 C 201.070312 144.320312 201.136719 144.253906 201.199219 144.1875 " fill-opacity="1" fill-rule="nonzero"/><path fill="rgb(99.609375%, 100%, 100%)" d="M 195.433594 144.554688 C 195.339844 144.554688 195.25 144.539062 195.164062 144.511719 C 195.25 144.535156 195.339844 144.554688 195.433594 144.554688 " fill-opacity="1" fill-rule="nonzero"/><path fill="rgb(99.609375%, 100%, 100%)" d="M 200.671875 144.511719 C 200.582031 144.539062 200.492188 144.554688 200.398438 144.554688 C 200.492188 144.554688 200.585938 144.535156 200.671875 144.511719 " fill-opacity="1" fill-rule="nonzero"/><path fill="rgb(99.609375%, 100%, 100%)" d="M 200.980469 144.378906 C 200.90625 144.429688 200.824219 144.464844 200.738281 144.492188 C 200.824219 144.464844 200.90625 144.429688 200.980469 144.378906 " fill-opacity="1" fill-rule="nonzero"/><path fill="rgb(99.609375%, 100%, 100%)" d="M 194.59375 144.132812 C 194.535156 144.058594 194.484375 143.976562 194.445312 143.886719 C 194.484375 143.976562 194.535156 144.058594 194.59375 144.132812 " fill-opacity="1" fill-rule="nonzero"/><path fill="rgb(99.609375%, 100%, 100%)" d="M 201.386719 143.886719 C 201.347656 143.976562 201.296875 144.058594 201.238281 144.132812 C 201.300781 144.058594 201.351562 143.976562 201.386719 143.886719 " fill-opacity="1" fill-rule="nonzero"/><path fill="rgb(99.609375%, 100%, 100%)" d="M 199.390625 143.085938 L 199.664062 142.410156 L 196.171875 142.410156 L 196.441406 143.085938 C 196.660156 143.636719 196.390625 144.261719 195.839844 144.480469 C 195.710938 144.53125 195.578125 144.554688 195.445312 144.554688 L 200.386719 144.554688 C 200.253906 144.554688 200.125 144.53125 199.996094 144.480469 C 199.441406 144.261719 199.175781 143.636719 199.390625 143.085938 " fill-opacity="1" fill-rule="nonzero"/><path fill="rgb(99.609375%, 100%, 100%)" d="M 196.441406 143.085938 L 196.171875 142.410156 L 195.441406 142.410156 C 194.847656 142.410156 194.367188 142.890625 194.367188 143.484375 C 194.367188 143.625 194.398438 143.761719 194.445312 143.886719 C 194.484375 143.976562 194.535156 144.058594 194.59375 144.132812 C 194.605469 144.152344 194.621094 144.167969 194.636719 144.1875 C 194.699219 144.257812 194.765625 144.324219 194.84375 144.375 C 194.847656 144.375 194.851562 144.375 194.851562 144.378906 C 194.929688 144.429688 195.011719 144.464844 195.09375 144.492188 C 195.117188 144.5 195.140625 144.507812 195.164062 144.511719 C 195.25 144.539062 195.339844 144.554688 195.433594 144.554688 C 195.4375 144.554688 195.4375 144.554688 195.441406 144.554688 L 195.445312 144.554688 C 195.578125 144.554688 195.710938 144.53125 195.839844 144.480469 C 196.390625 144.261719 196.660156 143.636719 196.441406 143.085938 " fill-opacity="1" fill-rule="nonzero"/><path fill="rgb(99.609375%, 100%, 100%)" d="M 201.238281 144.132812 C 201.226562 144.152344 201.210938 144.167969 201.199219 144.1875 C 201.210938 144.167969 201.226562 144.152344 201.238281 144.132812 " fill-opacity="1" fill-rule="nonzero"/><path fill="rgb(99.609375%, 100%, 100%)" d="M 200.988281 144.375 C 200.988281 144.375 200.984375 144.375 200.980469 144.378906 C 200.984375 144.375 200.988281 144.375 200.988281 144.375 " fill-opacity="1" fill-rule="nonzero"/><path fill="rgb(99.609375%, 100%, 100%)" d="M 200.738281 144.492188 C 200.714844 144.5 200.695312 144.507812 200.671875 144.511719 C 200.695312 144.507812 200.714844 144.5 200.738281 144.492188 " fill-opacity="1" fill-rule="nonzero"/><path fill="rgb(99.609375%, 100%, 100%)" d="M 202.621094 138.953125 C 202.488281 138.953125 202.355469 138.929688 202.222656 138.878906 C 201.671875 138.660156 201.402344 138.035156 201.621094 137.484375 L 199.664062 142.410156 L 200.390625 142.410156 C 200.984375 142.410156 201.464844 142.890625 201.464844 143.484375 C 201.464844 143.625 201.4375 143.761719 201.386719 143.886719 C 201.386719 143.882812 201.390625 143.882812 201.390625 143.878906 L 203.621094 138.277344 C 203.621094 138.277344 203.621094 138.277344 203.621094 138.273438 L 203.621094 138.277344 C 203.453125 138.695312 203.046875 138.953125 202.621094 138.953125 " fill-opacity="1" fill-rule="nonzero"/><path fill="rgb(99.609375%, 100%, 100%)" d="M 200.390625 142.410156 L 199.664062 142.410156 L 199.390625 143.085938 C 199.175781 143.636719 199.441406 144.261719 199.996094 144.480469 C 200.125 144.53125 200.253906 144.554688 200.386719 144.554688 L 200.390625 144.554688 C 200.394531 144.554688 200.398438 144.554688 200.398438 144.554688 C 200.492188 144.554688 200.582031 144.539062 200.671875 144.511719 C 200.695312 144.507812 200.714844 144.5 200.738281 144.492188 C 200.824219 144.464844 200.90625 144.429688 200.980469 144.378906 C 200.984375 144.375 200.988281 144.375 200.988281 144.375 C 201.066406 144.324219 201.136719 144.257812 201.199219 144.1875 C 201.210938 144.167969 201.226562 144.152344 201.238281 144.132812 C 201.296875 144.058594 201.347656 143.976562 201.386719 143.886719 C 201.4375 143.761719 201.464844 143.625 201.464844 143.484375 C 201.464844 142.890625 200.984375 142.410156 200.390625 142.410156 " fill-opacity="1" fill-rule="nonzero"/><path fill="rgb(99.609375%, 100%, 100%)" d="M 206.683594 136.882812 C 207.234375 136.664062 207.855469 136.933594 208.078125 137.484375 L 205.847656 131.882812 C 205.6875 131.476562 205.289062 131.207031 204.851562 131.207031 C 204.410156 131.207031 204.015625 131.476562 203.851562 131.882812 L 201.621094 137.484375 C 201.84375 136.933594 202.46875 136.664062 203.019531 136.882812 C 203.570312 137.101562 203.835938 137.726562 203.621094 138.273438 L 204.847656 135.1875 L 206.078125 138.273438 C 205.859375 137.722656 206.132812 137.101562 206.683594 136.882812 " fill-opacity="1" fill-rule="nonzero"/><path fill="rgb(99.609375%, 100%, 100%)" d="M 203.019531 136.882812 C 202.46875 136.664062 201.84375 136.933594 201.621094 137.484375 C 201.402344 138.035156 201.671875 138.660156 202.222656 138.878906 C 202.355469 138.929688 202.488281 138.953125 202.621094 138.953125 C 203.046875 138.953125 203.453125 138.695312 203.621094 138.277344 L 203.621094 138.273438 C 203.835938 137.726562 203.570312 137.101562 203.019531 136.882812 " fill-opacity="1" fill-rule="nonzero"/><path fill="rgb(99.609375%, 100%, 100%)" d="M 209.308594 142.410156 L 210.035156 142.410156 L 208.078125 137.484375 C 208.296875 138.035156 208.027344 138.660156 207.476562 138.878906 C 206.921875 139.097656 206.296875 138.828125 206.078125 138.277344 L 206.078125 138.273438 C 206.078125 138.273438 206.078125 138.277344 206.078125 138.277344 L 208.308594 143.878906 C 208.308594 143.882812 208.3125 143.882812 208.3125 143.886719 C 208.261719 143.761719 208.230469 143.625 208.230469 143.484375 C 208.230469 142.890625 208.710938 142.410156 209.308594 142.410156 " fill-opacity="1" fill-rule="nonzero"/><path fill="rgb(99.609375%, 100%, 100%)" d="M 209.027344 144.511719 C 209.003906 144.507812 208.984375 144.5 208.960938 144.492188 C 208.984375 144.5 209.003906 144.507812 209.027344 144.511719 " fill-opacity="1" fill-rule="nonzero"/><path fill="rgb(99.609375%, 100%, 100%)" d="M 208.710938 144.375 C 208.710938 144.375 208.714844 144.375 208.71875 144.378906 C 208.714844 144.375 208.710938 144.375 208.710938 144.375 " fill-opacity="1" fill-rule="nonzero"/><path fill="rgb(99.609375%, 100%, 100%)" d="M 208.5 144.1875 C 208.484375 144.167969 208.472656 144.152344 208.457031 144.132812 C 208.472656 144.152344 208.484375 144.167969 208.5 144.1875 " fill-opacity="1" fill-rule="nonzero"/><path fill="rgb(99.609375%, 100%, 100%)" d="M 208.960938 144.492188 C 208.984375 144.5 209.003906 144.507812 209.027344 144.511719 C 209.117188 144.539062 209.207031 144.554688 209.296875 144.554688 C 209.300781 144.554688 209.304688 144.554688 209.308594 144.554688 L 209.3125 144.554688 C 209.441406 144.554688 209.574219 144.53125 209.703125 144.480469 C 210.257812 144.261719 210.523438 143.636719 210.304688 143.085938 L 210.035156 142.410156 L 209.308594 142.410156 C 208.710938 142.410156 208.230469 142.890625 208.230469 143.484375 C 208.230469 143.625 208.261719 143.761719 208.3125 143.886719 C 208.351562 143.976562 208.398438 144.058594 208.457031 144.132812 C 208.472656 144.152344 208.484375 144.167969 208.5 144.1875 C 208.5625 144.257812 208.632812 144.324219 208.710938 144.375 C 208.710938 144.375 208.714844 144.375 208.71875 144.378906 C 208.792969 144.429688 208.878906 144.464844 208.960938 144.492188 " fill-opacity="1" fill-rule="nonzero"/><path fill="rgb(99.609375%, 100%, 100%)" d="M 207.476562 138.878906 C 208.027344 138.660156 208.296875 138.035156 208.078125 137.484375 C 207.855469 136.933594 207.234375 136.664062 206.683594 136.882812 C 206.132812 137.101562 205.859375 137.722656 206.078125 138.273438 L 206.078125 138.277344 C 206.296875 138.828125 206.921875 139.097656 207.476562 138.878906 " fill-opacity="1" fill-rule="nonzero"/><g fill="rgb(99.609375%, 100%, 100%)" fill-opacity="1"><g transform="translate(11.995107, 242.450828)"><g><path d="M 2.828125 -22.046875 L 7.5625 -22.046875 L 7.5625 0 L 2.828125 0 Z M 2.828125 -22.046875 "/></g></g></g><g fill="rgb(99.609375%, 100%, 100%)" fill-opacity="1"><g transform="translate(21.760119, 242.450828)"><g><path d="M 2.046875 -15.4375 L 6.296875 -15.4375 L 6.296875 -13.234375 L 6.453125 -13.234375 C 6.796875 -13.691406 7.1875 -14.109375 7.625 -14.484375 C 8 -14.804688 8.46875 -15.097656 9.03125 -15.359375 C 9.601562 -15.617188 10.269531 -15.75 11.03125 -15.75 C 11.800781 -15.75 12.53125 -15.597656 13.21875 -15.296875 C 13.914062 -14.992188 14.519531 -14.5625 15.03125 -14 C 15.550781 -13.445312 15.957031 -12.769531 16.25 -11.96875 C 16.539062 -11.164062 16.6875 -10.273438 16.6875 -9.296875 L 16.6875 0 L 12.4375 0 L 12.4375 -8.65625 C 12.4375 -9.601562 12.1875 -10.335938 11.6875 -10.859375 C 11.1875 -11.390625 10.492188 -11.65625 9.609375 -11.65625 C 8.660156 -11.65625 7.867188 -11.332031 7.234375 -10.6875 C 6.609375 -10.050781 6.296875 -9.21875 6.296875 -8.1875 L 6.296875 0 L 2.046875 0 Z M 2.046875 -15.4375 "/></g></g></g><g fill="rgb(99.609375%, 100%, 100%)" fill-opacity="1"><g transform="translate(39.872644, 242.450828)"><g><path d="M 3 -11.1875 L 0.625 -11.1875 L 0.625 -15.125 L 3 -15.125 L 3 -16.6875 C 3 -18.519531 3.46875 -19.921875 4.40625 -20.890625 C 5.351562 -21.867188 6.613281 -22.359375 8.1875 -22.359375 C 8.582031 -22.359375 8.953125 -22.332031 9.296875 -22.28125 C 9.648438 -22.226562 9.953125 -22.171875 10.203125 -22.109375 C 10.492188 -22.023438 10.769531 -21.953125 11.03125 -21.890625 L 11.03125 -17.953125 C 10.875 -17.992188 10.703125 -18.046875 10.515625 -18.109375 C 10.347656 -18.148438 10.160156 -18.1875 9.953125 -18.21875 C 9.742188 -18.25 9.523438 -18.265625 9.296875 -18.265625 C 8.660156 -18.265625 8.160156 -18.078125 7.796875 -17.703125 C 7.429688 -17.328125 7.25 -16.78125 7.25 -16.0625 L 7.25 -15.125 L 10.703125 -15.125 L 10.703125 -11.1875 L 7.25 -11.1875 L 7.25 0 L 3 0 Z M 3 -11.1875 "/></g></g></g><g fill="rgb(99.609375%, 100%, 100%)" fill-opacity="1"><g transform="translate(50.897661, 242.450828)"><g><path d="M 9.296875 0.3125 C 8.160156 0.3125 7.09375 0.101562 6.09375 -0.3125 C 5.09375 -0.726562 4.21875 -1.304688 3.46875 -2.046875 C 2.726562 -2.785156 2.148438 -3.632812 1.734375 -4.59375 C 1.316406 -5.5625 1.109375 -6.601562 1.109375 -7.71875 C 1.109375 -8.8125 1.316406 -9.84375 1.734375 -10.8125 C 2.148438 -11.789062 2.726562 -12.644531 3.46875 -13.375 C 4.21875 -14.113281 5.09375 -14.691406 6.09375 -15.109375 C 7.09375 -15.535156 8.160156 -15.75 9.296875 -15.75 C 10.429688 -15.75 11.492188 -15.535156 12.484375 -15.109375 C 13.484375 -14.691406 14.351562 -14.113281 15.09375 -13.375 C 15.84375 -12.644531 16.425781 -11.789062 16.84375 -10.8125 C 17.269531 -9.84375 17.484375 -8.8125 17.484375 -7.71875 C 17.484375 -6.601562 17.269531 -5.5625 16.84375 -4.59375 C 16.425781 -3.632812 15.84375 -2.785156 15.09375 -2.046875 C 14.351562 -1.304688 13.484375 -0.726562 12.484375 -0.3125 C 11.492188 0.101562 10.429688 0.3125 9.296875 0.3125 Z M 9.296875 -3.625 C 9.835938 -3.625 10.347656 -3.726562 10.828125 -3.9375 C 11.316406 -4.144531 11.738281 -4.425781 12.09375 -4.78125 C 12.445312 -5.144531 12.722656 -5.578125 12.921875 -6.078125 C 13.128906 -6.578125 13.234375 -7.125 13.234375 -7.71875 C 13.234375 -8.300781 13.128906 -8.84375 12.921875 -9.34375 C 12.722656 -9.851562 12.445312 -10.285156 12.09375 -10.640625 C 11.738281 -11.003906 11.316406 -11.289062 10.828125 -11.5 C 10.347656 -11.707031 9.835938 -11.8125 9.296875 -11.8125 C 8.742188 -11.8125 8.226562 -11.707031 7.75 -11.5 C 7.269531 -11.289062 6.847656 -11.003906 6.484375 -10.640625 C 6.128906 -10.285156 5.851562 -9.851562 5.65625 -9.34375 C 5.457031 -8.84375 5.359375 -8.300781 5.359375 -7.71875 C 5.359375 -7.125 5.457031 -6.578125 5.65625 -6.078125 C 5.851562 -5.578125 6.128906 -5.144531 6.484375 -4.78125 C 6.847656 -4.425781 7.269531 -4.144531 7.75 -3.9375 C 8.226562 -3.726562 8.742188 -3.625 9.296875 -3.625 Z M 9.296875 -3.625 "/></g></g></g><g fill="rgb(99.609375%, 100%, 100%)" fill-opacity="1"><g transform="translate(68.852682, 242.450828)"><g><path d="M 2.046875 -15.4375 L 6.296875 -15.4375 L 6.296875 -13.234375 L 6.453125 -13.234375 C 6.796875 -13.691406 7.1875 -14.109375 7.625 -14.484375 C 8 -14.804688 8.46875 -15.097656 9.03125 -15.359375 C 9.601562 -15.617188 10.269531 -15.75 11.03125 -15.75 L 11.34375 -15.75 L 11.34375 -11.1875 C 11.238281 -11.207031 11.125 -11.226562 11 -11.25 C 10.863281 -11.269531 10.707031 -11.289062 10.53125 -11.3125 C 10.351562 -11.332031 10.148438 -11.34375 9.921875 -11.34375 C 8.890625 -11.34375 8.023438 -10.972656 7.328125 -10.234375 C 6.640625 -9.503906 6.296875 -8.507812 6.296875 -7.25 L 6.296875 0 L 2.046875 0 Z M 2.046875 -15.4375 "/></g></g></g><g fill="rgb(99.609375%, 100%, 100%)" fill-opacity="1"><g transform="translate(80.1927, 242.450828)"><g><path d="M 2.046875 -15.4375 L 6.296875 -15.4375 L 6.296875 -13.234375 L 6.453125 -13.234375 C 6.722656 -13.691406 7.0625 -14.109375 7.46875 -14.484375 C 7.820312 -14.804688 8.257812 -15.097656 8.78125 -15.359375 C 9.3125 -15.617188 9.953125 -15.75 10.703125 -15.75 C 11.523438 -15.75 12.226562 -15.609375 12.8125 -15.328125 C 13.40625 -15.046875 13.878906 -14.734375 14.234375 -14.390625 C 14.660156 -14.015625 15.007812 -13.578125 15.28125 -13.078125 L 15.4375 -13.078125 C 15.789062 -13.578125 16.21875 -14.015625 16.71875 -14.390625 C 17.144531 -14.734375 17.664062 -15.046875 18.28125 -15.328125 C 18.90625 -15.609375 19.632812 -15.75 20.46875 -15.75 C 21.226562 -15.75 21.929688 -15.609375 22.578125 -15.328125 C 23.234375 -15.046875 23.800781 -14.632812 24.28125 -14.09375 C 24.769531 -13.5625 25.148438 -12.914062 25.421875 -12.15625 C 25.691406 -11.40625 25.828125 -10.554688 25.828125 -9.609375 L 25.828125 0 L 21.578125 0 L 21.578125 -8.984375 C 21.578125 -9.859375 21.351562 -10.519531 20.90625 -10.96875 C 20.46875 -11.425781 19.851562 -11.65625 19.0625 -11.65625 C 18.175781 -11.65625 17.453125 -11.363281 16.890625 -10.78125 C 16.335938 -10.207031 16.0625 -9.445312 16.0625 -8.5 L 16.0625 0 L 11.8125 0 L 11.8125 -8.984375 C 11.8125 -9.859375 11.585938 -10.519531 11.140625 -10.96875 C 10.703125 -11.425781 10.085938 -11.65625 9.296875 -11.65625 C 8.410156 -11.65625 7.6875 -11.363281 7.125 -10.78125 C 6.570312 -10.207031 6.296875 -9.445312 6.296875 -8.5 L 6.296875 0 L 2.046875 0 Z M 2.046875 -15.4375 "/></g></g></g><g fill="rgb(99.609375%, 100%, 100%)" fill-opacity="1"><g transform="translate(107.440235, 242.450828)"><g><path d="M 9.296875 0.3125 C 8.160156 0.3125 7.09375 0.101562 6.09375 -0.3125 C 5.09375 -0.726562 4.21875 -1.304688 3.46875 -2.046875 C 2.726562 -2.785156 2.148438 -3.632812 1.734375 -4.59375 C 1.316406 -5.5625 1.109375 -6.601562 1.109375 -7.71875 C 1.109375 -8.8125 1.316406 -9.84375 1.734375 -10.8125 C 2.148438 -11.789062 2.722656 -12.644531 3.453125 -13.375 C 4.191406 -14.113281 5.046875 -14.691406 6.015625 -15.109375 C 6.984375 -15.535156 8.023438 -15.75 9.140625 -15.75 C 10.203125 -15.75 11.203125 -15.539062 12.140625 -15.125 C 13.078125 -14.71875 13.890625 -14.164062 14.578125 -13.46875 C 15.273438 -12.78125 15.828125 -11.96875 16.234375 -11.03125 C 16.648438 -10.101562 16.859375 -9.101562 16.859375 -8.03125 C 16.859375 -7.738281 16.847656 -7.484375 16.828125 -7.265625 C 16.804688 -7.046875 16.785156 -6.847656 16.765625 -6.671875 C 16.734375 -6.460938 16.707031 -6.285156 16.6875 -6.140625 L 5.515625 -6.140625 C 5.742188 -5.429688 6.1875 -4.804688 6.84375 -4.265625 C 7.507812 -3.734375 8.429688 -3.46875 9.609375 -3.46875 C 10.273438 -3.46875 10.859375 -3.550781 11.359375 -3.71875 C 11.867188 -3.882812 12.300781 -4.082031 12.65625 -4.3125 C 13.0625 -4.5625 13.410156 -4.859375 13.703125 -5.203125 L 15.90625 -2.203125 C 15.445312 -1.742188 14.878906 -1.320312 14.203125 -0.9375 C 13.640625 -0.625 12.945312 -0.335938 12.125 -0.078125 C 11.3125 0.179688 10.367188 0.3125 9.296875 0.3125 Z M 12.4375 -9.296875 C 12.207031 -10.003906 11.789062 -10.625 11.1875 -11.15625 C 10.59375 -11.695312 9.859375 -11.96875 8.984375 -11.96875 C 8.097656 -11.96875 7.351562 -11.695312 6.75 -11.15625 C 6.15625 -10.625 5.742188 -10.003906 5.515625 -9.296875 Z M 12.4375 -9.296875 "/></g></g></g><g fill="rgb(99.609375%, 100%, 100%)" fill-opacity="1"><g transform="translate(124.765261, 242.450828)"><g/></g></g><g fill="rgb(99.609375%, 100%, 100%)" fill-opacity="1"><g transform="translate(130.750269, 242.450828)"><g><path d="M 8.03125 0.3125 C 7.125 0.3125 6.25 0.117188 5.40625 -0.265625 C 4.570312 -0.648438 3.832031 -1.203125 3.1875 -1.921875 C 2.550781 -2.640625 2.046875 -3.488281 1.671875 -4.46875 C 1.296875 -5.457031 1.109375 -6.539062 1.109375 -7.71875 C 1.109375 -8.894531 1.296875 -9.972656 1.671875 -10.953125 C 2.046875 -11.941406 2.550781 -12.785156 3.1875 -13.484375 C 3.832031 -14.191406 4.570312 -14.742188 5.40625 -15.140625 C 6.25 -15.546875 7.125 -15.75 8.03125 -15.75 C 8.851562 -15.75 9.566406 -15.617188 10.171875 -15.359375 C 10.785156 -15.097656 11.300781 -14.804688 11.71875 -14.484375 C 12.195312 -14.109375 12.597656 -13.691406 12.921875 -13.234375 L 13.078125 -13.234375 L 13.078125 -22.046875 L 17.328125 -22.046875 L 17.328125 0 L 13.078125 0 L 13.078125 -2.203125 L 12.921875 -2.203125 C 12.597656 -1.742188 12.195312 -1.320312 11.71875 -0.9375 C 11.300781 -0.625 10.785156 -0.335938 10.171875 -0.078125 C 9.566406 0.179688 8.851562 0.3125 8.03125 0.3125 Z M 9.296875 -3.625 C 9.835938 -3.625 10.347656 -3.726562 10.828125 -3.9375 C 11.316406 -4.144531 11.738281 -4.425781 12.09375 -4.78125 C 12.445312 -5.144531 12.722656 -5.578125 12.921875 -6.078125 C 13.128906 -6.578125 13.234375 -7.125 13.234375 -7.71875 C 13.234375 -8.300781 13.128906 -8.84375 12.921875 -9.34375 C 12.722656 -9.851562 12.445312 -10.285156 12.09375 -10.640625 C 11.738281 -11.003906 11.316406 -11.289062 10.828125 -11.5 C 10.347656 -11.707031 9.835938 -11.8125 9.296875 -11.8125 C 8.742188 -11.8125 8.226562 -11.707031 7.75 -11.5 C 7.269531 -11.289062 6.847656 -11.003906 6.484375 -10.640625 C 6.128906 -10.285156 5.851562 -9.851562 5.65625 -9.34375 C 5.457031 -8.84375 5.359375 -8.300781 5.359375 -7.71875 C 5.359375 -7.125 5.457031 -6.578125 5.65625 -6.078125 C 5.851562 -5.578125 6.128906 -5.144531 6.484375 -4.78125 C 6.847656 -4.425781 7.269531 -4.144531 7.75 -3.9375 C 8.226562 -3.726562 8.742188 -3.625 9.296875 -3.625 Z M 9.296875 -3.625 "/></g></g></g><g fill="rgb(99.609375%, 100%, 100%)" fill-opacity="1"><g transform="translate(149.6503, 242.450828)"><g><path d="M 9.296875 0.3125 C 8.160156 0.3125 7.09375 0.101562 6.09375 -0.3125 C 5.09375 -0.726562 4.21875 -1.304688 3.46875 -2.046875 C 2.726562 -2.785156 2.148438 -3.632812 1.734375 -4.59375 C 1.316406 -5.5625 1.109375 -6.601562 1.109375 -7.71875 C 1.109375 -8.8125 1.316406 -9.84375 1.734375 -10.8125 C 2.148438 -11.789062 2.722656 -12.644531 3.453125 -13.375 C 4.191406 -14.113281 5.046875 -14.691406 6.015625 -15.109375 C 6.984375 -15.535156 8.023438 -15.75 9.140625 -15.75 C 10.203125 -15.75 11.203125 -15.539062 12.140625 -15.125 C 13.078125 -14.71875 13.890625 -14.164062 14.578125 -13.46875 C 15.273438 -12.78125 15.828125 -11.96875 16.234375 -11.03125 C 16.648438 -10.101562 16.859375 -9.101562 16.859375 -8.03125 C 16.859375 -7.738281 16.847656 -7.484375 16.828125 -7.265625 C 16.804688 -7.046875 16.785156 -6.847656 16.765625 -6.671875 C 16.734375 -6.460938 16.707031 -6.285156 16.6875 -6.140625 L 5.515625 -6.140625 C 5.742188 -5.429688 6.1875 -4.804688 6.84375 -4.265625 C 7.507812 -3.734375 8.429688 -3.46875 9.609375 -3.46875 C 10.273438 -3.46875 10.859375 -3.550781 11.359375 -3.71875 C 11.867188 -3.882812 12.300781 -4.082031 12.65625 -4.3125 C 13.0625 -4.5625 13.410156 -4.859375 13.703125 -5.203125 L 15.90625 -2.203125 C 15.445312 -1.742188 14.878906 -1.320312 14.203125 -0.9375 C 13.640625 -0.625 12.945312 -0.335938 12.125 -0.078125 C 11.3125 0.179688 10.367188 0.3125 9.296875 0.3125 Z M 12.4375 -9.296875 C 12.207031 -10.003906 11.789062 -10.625 11.1875 -11.15625 C 10.59375 -11.695312 9.859375 -11.96875 8.984375 -11.96875 C 8.097656 -11.96875 7.351562 -11.695312 6.75 -11.15625 C 6.15625 -10.625 5.742188 -10.003906 5.515625 -9.296875 Z M 12.4375 -9.296875 "/></g></g></g><g fill="rgb(99.609375%, 100%, 100%)" fill-opacity="1"><g transform="translate(166.975327, 242.450828)"><g/></g></g><g fill="rgb(99.609375%, 100%, 100%)" fill-opacity="1"><g transform="translate(172.960335, 242.450828)"><g><path d="M 2.828125 -22.046875 L 12.59375 -22.046875 C 13.769531 -22.046875 14.835938 -21.867188 15.796875 -21.515625 C 16.753906 -21.160156 17.566406 -20.65625 18.234375 -20 C 18.910156 -19.351562 19.425781 -18.570312 19.78125 -17.65625 C 20.132812 -16.738281 20.3125 -15.734375 20.3125 -14.640625 C 20.3125 -13.378906 20.117188 -12.328125 19.734375 -11.484375 C 19.347656 -10.648438 18.910156 -9.992188 18.421875 -9.515625 C 17.878906 -8.941406 17.25 -8.5 16.53125 -8.1875 L 21.109375 0 L 15.90625 0 L 11.96875 -7.25 L 7.5625 -7.25 L 7.5625 0 L 2.828125 0 Z M 12.4375 -11.65625 C 13.320312 -11.65625 14.039062 -11.929688 14.59375 -12.484375 C 15.15625 -13.046875 15.4375 -13.765625 15.4375 -14.640625 C 15.4375 -15.523438 15.15625 -16.242188 14.59375 -16.796875 C 14.039062 -17.359375 13.320312 -17.640625 12.4375 -17.640625 L 7.5625 -17.640625 L 7.5625 -11.65625 Z M 12.4375 -11.65625 "/></g></g></g><g fill="rgb(99.609375%, 100%, 100%)" fill-opacity="1"><g transform="translate(194.537871, 242.450828)"><g><path d="M 9.296875 0.3125 C 8.160156 0.3125 7.09375 0.101562 6.09375 -0.3125 C 5.09375 -0.726562 4.21875 -1.304688 3.46875 -2.046875 C 2.726562 -2.785156 2.148438 -3.632812 1.734375 -4.59375 C 1.316406 -5.5625 1.109375 -6.601562 1.109375 -7.71875 C 1.109375 -8.8125 1.316406 -9.84375 1.734375 -10.8125 C 2.148438 -11.789062 2.722656 -12.644531 3.453125 -13.375 C 4.191406 -14.113281 5.046875 -14.691406 6.015625 -15.109375 C 6.984375 -15.535156 8.023438 -15.75 9.140625 -15.75 C 10.203125 -15.75 11.203125 -15.539062 12.140625 -15.125 C 13.078125 -14.71875 13.890625 -14.164062 14.578125 -13.46875 C 15.273438 -12.78125 15.828125 -11.96875 16.234375 -11.03125 C 16.648438 -10.101562 16.859375 -9.101562 16.859375 -8.03125 C 16.859375 -7.738281 16.847656 -7.484375 16.828125 -7.265625 C 16.804688 -7.046875 16.785156 -6.847656 16.765625 -6.671875 C 16.734375 -6.460938 16.707031 -6.285156 16.6875 -6.140625 L 5.515625 -6.140625 C 5.742188 -5.429688 6.1875 -4.804688 6.84375 -4.265625 C 7.507812 -3.734375 8.429688 -3.46875 9.609375 -3.46875 C 10.273438 -3.46875 10.859375 -3.550781 11.359375 -3.71875 C 11.867188 -3.882812 12.300781 -4.082031 12.65625 -4.3125 C 13.0625 -4.5625 13.410156 -4.859375 13.703125 -5.203125 L 15.90625 -2.203125 C 15.445312 -1.742188 14.878906 -1.320312 14.203125 -0.9375 C 13.640625 -0.625 12.945312 -0.335938 12.125 -0.078125 C 11.3125 0.179688 10.367188 0.3125 9.296875 0.3125 Z M 12.4375 -9.296875 C 12.207031 -10.003906 11.789062 -10.625 11.1875 -11.15625 C 10.59375 -11.695312 9.859375 -11.96875 8.984375 -11.96875 C 8.097656 -11.96875 7.351562 -11.695312 6.75 -11.15625 C 6.15625 -10.625 5.742188 -10.003906 5.515625 -9.296875 Z M 12.4375 -9.296875 "/></g></g></g><g fill="rgb(99.609375%, 100%, 100%)" fill-opacity="1"><g transform="translate(211.862885, 242.450828)"><g><path d="M 2.046875 -15.4375 L 6.296875 -15.4375 L 6.296875 -13.234375 L 6.453125 -13.234375 C 6.796875 -13.691406 7.1875 -14.109375 7.625 -14.484375 C 8 -14.804688 8.46875 -15.097656 9.03125 -15.359375 C 9.601562 -15.617188 10.269531 -15.75 11.03125 -15.75 C 11.800781 -15.75 12.53125 -15.597656 13.21875 -15.296875 C 13.914062 -14.992188 14.519531 -14.5625 15.03125 -14 C 15.550781 -13.445312 15.957031 -12.769531 16.25 -11.96875 C 16.539062 -11.164062 16.6875 -10.273438 16.6875 -9.296875 L 16.6875 0 L 12.4375 0 L 12.4375 -8.65625 C 12.4375 -9.601562 12.1875 -10.335938 11.6875 -10.859375 C 11.1875 -11.390625 10.492188 -11.65625 9.609375 -11.65625 C 8.660156 -11.65625 7.867188 -11.332031 7.234375 -10.6875 C 6.609375 -10.050781 6.296875 -9.21875 6.296875 -8.1875 L 6.296875 0 L 2.046875 0 Z M 2.046875 -15.4375 "/></g></g></g><g fill="rgb(99.609375%, 100%, 100%)" fill-opacity="1"><g transform="translate(229.975402, 242.450828)"><g><path d="M 8.03125 0.3125 C 7.125 0.3125 6.25 0.117188 5.40625 -0.265625 C 4.570312 -0.648438 3.832031 -1.203125 3.1875 -1.921875 C 2.550781 -2.640625 2.046875 -3.488281 1.671875 -4.46875 C 1.296875 -5.457031 1.109375 -6.539062 1.109375 -7.71875 C 1.109375 -8.894531 1.296875 -9.972656 1.671875 -10.953125 C 2.046875 -11.941406 2.550781 -12.785156 3.1875 -13.484375 C 3.832031 -14.191406 4.570312 -14.742188 5.40625 -15.140625 C 6.25 -15.546875 7.125 -15.75 8.03125 -15.75 C 8.851562 -15.75 9.566406 -15.617188 10.171875 -15.359375 C 10.785156 -15.097656 11.300781 -14.804688 11.71875 -14.484375 C 12.195312 -14.109375 12.597656 -13.691406 12.921875 -13.234375 L 13.078125 -13.234375 L 13.078125 -22.046875 L 17.328125 -22.046875 L 17.328125 0 L 13.078125 0 L 13.078125 -2.203125 L 12.921875 -2.203125 C 12.597656 -1.742188 12.195312 -1.320312 11.71875 -0.9375 C 11.300781 -0.625 10.785156 -0.335938 10.171875 -0.078125 C 9.566406 0.179688 8.851562 0.3125 8.03125 0.3125 Z M 9.296875 -3.625 C 9.835938 -3.625 10.347656 -3.726562 10.828125 -3.9375 C 11.316406 -4.144531 11.738281 -4.425781 12.09375 -4.78125 C 12.445312 -5.144531 12.722656 -5.578125 12.921875 -6.078125 C 13.128906 -6.578125 13.234375 -7.125 13.234375 -7.71875 C 13.234375 -8.300781 13.128906 -8.84375 12.921875 -9.34375 C 12.722656 -9.851562 12.445312 -10.285156 12.09375 -10.640625 C 11.738281 -11.003906 11.316406 -11.289062 10.828125 -11.5 C 10.347656 -11.707031 9.835938 -11.8125 9.296875 -11.8125 C 8.742188 -11.8125 8.226562 -11.707031 7.75 -11.5 C 7.269531 -11.289062 6.847656 -11.003906 6.484375 -10.640625 C 6.128906 -10.285156 5.851562 -9.851562 5.65625 -9.34375 C 5.457031 -8.84375 5.359375 -8.300781 5.359375 -7.71875 C 5.359375 -7.125 5.457031 -6.578125 5.65625 -6.078125 C 5.851562 -5.578125 6.128906 -5.144531 6.484375 -4.78125 C 6.847656 -4.425781 7.269531 -4.144531 7.75 -3.9375 C 8.226562 -3.726562 8.742188 -3.625 9.296875 -3.625 Z M 9.296875 -3.625 "/></g></g></g><g fill="rgb(99.609375%, 100%, 100%)" fill-opacity="1"><g transform="translate(248.875433, 242.450828)"><g><path d="M 2.046875 -15.4375 L 6.296875 -15.4375 L 6.296875 0 L 2.046875 0 Z M 4.15625 -17.484375 C 3.488281 -17.484375 2.914062 -17.71875 2.4375 -18.1875 C 1.96875 -18.664062 1.734375 -19.21875 1.734375 -19.84375 C 1.734375 -20.476562 1.972656 -21.03125 2.453125 -21.5 C 2.941406 -21.96875 3.519531 -22.203125 4.1875 -22.203125 C 4.863281 -22.203125 5.4375 -21.96875 5.90625 -21.5 C 6.375 -21.03125 6.609375 -20.476562 6.609375 -19.84375 C 6.609375 -19.21875 6.367188 -18.664062 5.890625 -18.1875 C 5.410156 -17.71875 4.832031 -17.484375 4.15625 -17.484375 Z M 4.15625 -17.484375 "/></g></g></g><g fill="rgb(99.609375%, 100%, 100%)" fill-opacity="1"><g transform="translate(256.592939, 242.450828)"><g><path d="M 2.046875 -15.4375 L 6.296875 -15.4375 L 6.296875 -13.234375 L 6.453125 -13.234375 C 6.722656 -13.691406 7.0625 -14.109375 7.46875 -14.484375 C 7.820312 -14.804688 8.257812 -15.097656 8.78125 -15.359375 C 9.3125 -15.617188 9.953125 -15.75 10.703125 -15.75 C 11.523438 -15.75 12.226562 -15.609375 12.8125 -15.328125 C 13.40625 -15.046875 13.878906 -14.734375 14.234375 -14.390625 C 14.660156 -14.015625 15.007812 -13.578125 15.28125 -13.078125 L 15.4375 -13.078125 C 15.789062 -13.578125 16.21875 -14.015625 16.71875 -14.390625 C 17.144531 -14.734375 17.664062 -15.046875 18.28125 -15.328125 C 18.90625 -15.609375 19.632812 -15.75 20.46875 -15.75 C 21.226562 -15.75 21.929688 -15.609375 22.578125 -15.328125 C 23.234375 -15.046875 23.800781 -14.632812 24.28125 -14.09375 C 24.769531 -13.5625 25.148438 -12.914062 25.421875 -12.15625 C 25.691406 -11.40625 25.828125 -10.554688 25.828125 -9.609375 L 25.828125 0 L 21.578125 0 L 21.578125 -8.984375 C 21.578125 -9.859375 21.351562 -10.519531 20.90625 -10.96875 C 20.46875 -11.425781 19.851562 -11.65625 19.0625 -11.65625 C 18.175781 -11.65625 17.453125 -11.363281 16.890625 -10.78125 C 16.335938 -10.207031 16.0625 -9.445312 16.0625 -8.5 L 16.0625 0 L 11.8125 0 L 11.8125 -8.984375 C 11.8125 -9.859375 11.585938 -10.519531 11.140625 -10.96875 C 10.703125 -11.425781 10.085938 -11.65625 9.296875 -11.65625 C 8.410156 -11.65625 7.6875 -11.363281 7.125 -10.78125 C 6.570312 -10.207031 6.296875 -9.445312 6.296875 -8.5 L 6.296875 0 L 2.046875 0 Z M 2.046875 -15.4375 "/></g></g></g><g fill="rgb(99.609375%, 100%, 100%)" fill-opacity="1"><g transform="translate(283.840473, 242.450828)"><g><path d="M 9.296875 0.3125 C 8.160156 0.3125 7.09375 0.101562 6.09375 -0.3125 C 5.09375 -0.726562 4.21875 -1.304688 3.46875 -2.046875 C 2.726562 -2.785156 2.148438 -3.632812 1.734375 -4.59375 C 1.316406 -5.5625 1.109375 -6.601562 1.109375 -7.71875 C 1.109375 -8.8125 1.316406 -9.84375 1.734375 -10.8125 C 2.148438 -11.789062 2.722656 -12.644531 3.453125 -13.375 C 4.191406 -14.113281 5.046875 -14.691406 6.015625 -15.109375 C 6.984375 -15.535156 8.023438 -15.75 9.140625 -15.75 C 10.203125 -15.75 11.203125 -15.539062 12.140625 -15.125 C 13.078125 -14.71875 13.890625 -14.164062 14.578125 -13.46875 C 15.273438 -12.78125 15.828125 -11.96875 16.234375 -11.03125 C 16.648438 -10.101562 16.859375 -9.101562 16.859375 -8.03125 C 16.859375 -7.738281 16.847656 -7.484375 16.828125 -7.265625 C 16.804688 -7.046875 16.785156 -6.847656 16.765625 -6.671875 C 16.734375 -6.460938 16.707031 -6.285156 16.6875 -6.140625 L 5.515625 -6.140625 C 5.742188 -5.429688 6.1875 -4.804688 6.84375 -4.265625 C 7.507812 -3.734375 8.429688 -3.46875 9.609375 -3.46875 C 10.273438 -3.46875 10.859375 -3.550781 11.359375 -3.71875 C 11.867188 -3.882812 12.300781 -4.082031 12.65625 -4.3125 C 13.0625 -4.5625 13.410156 -4.859375 13.703125 -5.203125 L 15.90625 -2.203125 C 15.445312 -1.742188 14.878906 -1.320312 14.203125 -0.9375 C 13.640625 -0.625 12.945312 -0.335938 12.125 -0.078125 C 11.3125 0.179688 10.367188 0.3125 9.296875 0.3125 Z M 12.4375 -9.296875 C 12.207031 -10.003906 11.789062 -10.625 11.1875 -11.15625 C 10.59375 -11.695312 9.859375 -11.96875 8.984375 -11.96875 C 8.097656 -11.96875 7.351562 -11.695312 6.75 -11.15625 C 6.15625 -10.625 5.742188 -10.003906 5.515625 -9.296875 Z M 12.4375 -9.296875 "/></g></g></g><g fill="rgb(99.609375%, 100%, 100%)" fill-opacity="1"><g transform="translate(301.1655, 242.450828)"><g><path d="M 2.046875 -15.4375 L 6.296875 -15.4375 L 6.296875 -13.234375 L 6.453125 -13.234375 C 6.796875 -13.691406 7.1875 -14.109375 7.625 -14.484375 C 8 -14.804688 8.46875 -15.097656 9.03125 -15.359375 C 9.601562 -15.617188 10.269531 -15.75 11.03125 -15.75 C 11.800781 -15.75 12.53125 -15.597656 13.21875 -15.296875 C 13.914062 -14.992188 14.519531 -14.5625 15.03125 -14 C 15.550781 -13.445312 15.957031 -12.769531 16.25 -11.96875 C 16.539062 -11.164062 16.6875 -10.273438 16.6875 -9.296875 L 16.6875 0 L 12.4375 0 L 12.4375 -8.65625 C 12.4375 -9.601562 12.1875 -10.335938 11.6875 -10.859375 C 11.1875 -11.390625 10.492188 -11.65625 9.609375 -11.65625 C 8.660156 -11.65625 7.867188 -11.332031 7.234375 -10.6875 C 6.609375 -10.050781 6.296875 -9.21875 6.296875 -8.1875 L 6.296875 0 L 2.046875 0 Z M 2.046875 -15.4375 "/></g></g></g><g fill="rgb(99.609375%, 100%, 100%)" fill-opacity="1"><g transform="translate(319.278017, 242.450828)"><g><path d="M 8.5 0.3125 C 6.925781 0.3125 5.664062 -0.171875 4.71875 -1.140625 C 3.78125 -2.117188 3.3125 -3.523438 3.3125 -5.359375 L 3.3125 -11.1875 L 0.625 -11.1875 L 0.625 -15.125 L 2.046875 -15.125 C 3.203125 -15.125 3.78125 -15.753906 3.78125 -17.015625 L 3.78125 -19.84375 L 7.5625 -19.84375 L 7.5625 -15.125 L 11.03125 -15.125 L 11.03125 -11.1875 L 7.5625 -11.1875 L 7.5625 -5.984375 C 7.5625 -5.265625 7.742188 -4.71875 8.109375 -4.34375 C 8.472656 -3.96875 8.972656 -3.78125 9.609375 -3.78125 C 10.066406 -3.78125 10.476562 -3.832031 10.84375 -3.9375 C 11.03125 -3.976562 11.195312 -4.03125 11.34375 -4.09375 L 11.34375 -0.15625 C 11.09375 -0.0703125 10.816406 0.0078125 10.515625 0.09375 C 10.265625 0.15625 9.96875 0.207031 9.625 0.25 C 9.28125 0.289062 8.90625 0.3125 8.5 0.3125 Z M 8.5 0.3125 "/></g></g></g><g fill="rgb(99.609375%, 100%, 100%)" fill-opacity="1"><g transform="translate(331.248032, 242.450828)"><g><path d="M 9.296875 0.3125 C 8.160156 0.3125 7.09375 0.101562 6.09375 -0.3125 C 5.09375 -0.726562 4.21875 -1.304688 3.46875 -2.046875 C 2.726562 -2.785156 2.148438 -3.632812 1.734375 -4.59375 C 1.316406 -5.5625 1.109375 -6.601562 1.109375 -7.71875 C 1.109375 -8.8125 1.316406 -9.84375 1.734375 -10.8125 C 2.148438 -11.789062 2.726562 -12.644531 3.46875 -13.375 C 4.21875 -14.113281 5.09375 -14.691406 6.09375 -15.109375 C 7.09375 -15.535156 8.160156 -15.75 9.296875 -15.75 C 10.429688 -15.75 11.492188 -15.535156 12.484375 -15.109375 C 13.484375 -14.691406 14.351562 -14.113281 15.09375 -13.375 C 15.84375 -12.644531 16.425781 -11.789062 16.84375 -10.8125 C 17.269531 -9.84375 17.484375 -8.8125 17.484375 -7.71875 C 17.484375 -6.601562 17.269531 -5.5625 16.84375 -4.59375 C 16.425781 -3.632812 15.84375 -2.785156 15.09375 -2.046875 C 14.351562 -1.304688 13.484375 -0.726562 12.484375 -0.3125 C 11.492188 0.101562 10.429688 0.3125 9.296875 0.3125 Z M 9.296875 -3.625 C 9.835938 -3.625 10.347656 -3.726562 10.828125 -3.9375 C 11.316406 -4.144531 11.738281 -4.425781 12.09375 -4.78125 C 12.445312 -5.144531 12.722656 -5.578125 12.921875 -6.078125 C 13.128906 -6.578125 13.234375 -7.125 13.234375 -7.71875 C 13.234375 -8.300781 13.128906 -8.84375 12.921875 -9.34375 C 12.722656 -9.851562 12.445312 -10.285156 12.09375 -10.640625 C 11.738281 -11.003906 11.316406 -11.289062 10.828125 -11.5 C 10.347656 -11.707031 9.835938 -11.8125 9.296875 -11.8125 C 8.742188 -11.8125 8.226562 -11.707031 7.75 -11.5 C 7.269531 -11.289062 6.847656 -11.003906 6.484375 -10.640625 C 6.128906 -10.285156 5.851562 -9.851562 5.65625 -9.34375 C 5.457031 -8.84375 5.359375 -8.300781 5.359375 -7.71875 C 5.359375 -7.125 5.457031 -6.578125 5.65625 -6.078125 C 5.851562 -5.578125 6.128906 -5.144531 6.484375 -4.78125 C 6.847656 -4.425781 7.269531 -4.144531 7.75 -3.9375 C 8.226562 -3.726562 8.742188 -3.625 9.296875 -3.625 Z M 9.296875 -3.625 "/></g></g></g><g fill="rgb(99.609375%, 100%, 100%)" fill-opacity="1"><g transform="translate(349.203056, 242.450828)"><g><path d="M 7.09375 0.3125 C 6.019531 0.3125 5.070312 0.164062 4.25 -0.125 C 3.4375 -0.414062 2.742188 -0.742188 2.171875 -1.109375 C 1.503906 -1.503906 0.9375 -1.972656 0.46875 -2.515625 L 3 -5.203125 C 3.3125 -4.859375 3.675781 -4.5625 4.09375 -4.3125 C 4.445312 -4.082031 4.875 -3.882812 5.375 -3.71875 C 5.882812 -3.550781 6.457031 -3.46875 7.09375 -3.46875 C 7.800781 -3.46875 8.289062 -3.570312 8.5625 -3.78125 C 8.84375 -3.988281 8.984375 -4.25 8.984375 -4.5625 C 8.984375 -4.863281 8.785156 -5.113281 8.390625 -5.3125 C 8.003906 -5.507812 7.515625 -5.703125 6.921875 -5.890625 C 6.335938 -6.078125 5.707031 -6.296875 5.03125 -6.546875 C 4.363281 -6.804688 3.734375 -7.125 3.140625 -7.5 C 2.554688 -7.875 2.070312 -8.34375 1.6875 -8.90625 C 1.300781 -9.476562 1.109375 -10.1875 1.109375 -11.03125 C 1.109375 -11.65625 1.242188 -12.25 1.515625 -12.8125 C 1.785156 -13.382812 2.175781 -13.890625 2.6875 -14.328125 C 3.207031 -14.773438 3.847656 -15.125 4.609375 -15.375 C 5.378906 -15.625 6.257812 -15.75 7.25 -15.75 C 8.226562 -15.75 9.09375 -15.625 9.84375 -15.375 C 10.59375 -15.125 11.21875 -14.847656 11.71875 -14.546875 C 12.300781 -14.191406 12.804688 -13.804688 13.234375 -13.390625 L 10.703125 -10.703125 C 10.453125 -10.941406 10.148438 -11.15625 9.796875 -11.34375 C 9.503906 -11.507812 9.140625 -11.65625 8.703125 -11.78125 C 8.273438 -11.90625 7.789062 -11.96875 7.25 -11.96875 C 6.695312 -11.96875 6.296875 -11.867188 6.046875 -11.671875 C 5.796875 -11.472656 5.671875 -11.257812 5.671875 -11.03125 C 5.671875 -10.726562 5.863281 -10.476562 6.25 -10.28125 C 6.632812 -10.082031 7.117188 -9.890625 7.703125 -9.703125 C 8.296875 -9.515625 8.925781 -9.289062 9.59375 -9.03125 C 10.269531 -8.78125 10.898438 -8.46875 11.484375 -8.09375 C 12.078125 -7.71875 12.566406 -7.242188 12.953125 -6.671875 C 13.347656 -6.109375 13.546875 -5.40625 13.546875 -4.5625 C 13.546875 -3.894531 13.40625 -3.265625 13.125 -2.671875 C 12.851562 -2.085938 12.445312 -1.570312 11.90625 -1.125 C 11.363281 -0.6875 10.691406 -0.335938 9.890625 -0.078125 C 9.085938 0.179688 8.15625 0.3125 7.09375 0.3125 Z M 7.09375 0.3125 "/></g></g></g></svg>