<svg xmlns="http://www.w3.org/2000/svg" xmlns:xlink="http://www.w3.org/1999/xlink" width="500" zoomAndPan="magnify" viewBox="0 0 375 374.999991" height="500" preserveAspectRatio="xMidYMid meet" version="1.0"><defs><g/><clipPath id="id1"><path d="M 154.496094 121 L 220.496094 121 L 220.496094 214.207031 L 154.496094 214.207031 Z M 154.496094 121 " clip-rule="nonzero"/></clipPath><clipPath id="id2"><path d="M 174 105.457031 L 200 105.457031 L 200 118 L 174 118 Z M 174 105.457031 " clip-rule="nonzero"/></clipPath></defs><rect x="-37.5" width="450" fill="rgb(100%, 100%, 100%)" y="-37.499999" height="449.999989" fill-opacity="1"/><rect x="-37.5" width="450" fill="rgb(15.289307%, 12.548828%, 100%)" y="-37.499999" height="449.999989" fill-opacity="1"/><rect x="-37.5" width="450" fill="rgb(100%, 100%, 100%)" y="-37.499999" height="449.999989" fill-opacity="1"/><rect x="-37.5" width="450" fill="rgb(15.289307%, 12.548828%, 100%)" y="-37.499999" height="449.999989" fill-opacity="1"/><g clip-path="url(#id1)"><path fill="rgb(99.609375%, 100%, 100%)" d="M 208.375 214.195312 C 214.988281 214.195312 220.371094 208.828125 220.371094 202.226562 L 220.371094 133.335938 C 220.371094 126.734375 214.988281 121.367188 208.375 121.367188 L 206.679688 121.367188 C 206.90625 121.710938 207.109375 122.066406 207.289062 122.441406 L 208.375 122.441406 C 214.40625 122.441406 219.296875 127.320312 219.296875 133.335938 L 219.296875 202.226562 C 219.296875 208.246094 214.40625 213.125 208.375 213.125 L 166.617188 213.125 C 160.585938 213.125 155.695312 208.246094 155.695312 202.226562 L 155.695312 133.335938 C 155.695312 127.320312 160.585938 122.441406 166.617188 122.441406 L 167.703125 122.441406 C 167.882812 122.066406 168.085938 121.710938 168.3125 121.367188 L 166.617188 121.367188 C 160.003906 121.367188 154.621094 126.734375 154.621094 133.335938 L 154.621094 202.226562 C 154.621094 208.828125 160.003906 214.195312 166.617188 214.195312 L 208.375 214.195312 " fill-opacity="1" fill-rule="nonzero"/></g><path fill="rgb(99.609375%, 100%, 100%)" d="M 208.375 123.511719 C 213.800781 123.511719 218.21875 127.917969 218.21875 133.335938 L 218.21875 202.226562 C 218.21875 207.644531 213.800781 212.050781 208.375 212.050781 L 166.617188 212.050781 C 161.1875 212.050781 156.773438 207.644531 156.773438 202.226562 L 156.773438 133.335938 C 156.773438 127.917969 161.1875 123.511719 166.617188 123.511719 L 167.273438 123.511719 C 167.398438 123.144531 167.539062 122.785156 167.703125 122.441406 L 166.617188 122.441406 C 160.585938 122.441406 155.695312 127.320312 155.695312 133.335938 L 155.695312 202.226562 C 155.695312 208.246094 160.585938 213.125 166.617188 213.125 L 208.375 213.125 C 214.40625 213.125 219.296875 208.246094 219.296875 202.226562 L 219.296875 133.335938 C 219.296875 127.320312 214.40625 122.441406 208.375 122.441406 L 207.289062 122.441406 C 207.453125 122.785156 207.59375 123.144531 207.71875 123.511719 L 208.375 123.511719 " fill-opacity="1" fill-rule="nonzero"/><path fill="rgb(99.609375%, 100%, 100%)" d="M 212.550781 145.277344 L 212.550781 198.039062 C 212.550781 202.648438 208.699219 206.386719 203.945312 206.386719 L 171.046875 206.386719 C 166.292969 206.386719 162.441406 202.648438 162.441406 198.039062 L 162.441406 145.277344 C 162.441406 140.667969 166.292969 136.933594 171.046875 136.933594 L 203.945312 136.933594 C 208.699219 136.933594 212.550781 140.667969 212.550781 145.277344 Z M 171.046875 135.859375 C 165.707031 135.859375 161.363281 140.085938 161.363281 145.277344 L 161.363281 198.039062 C 161.363281 203.234375 165.707031 207.457031 171.046875 207.457031 L 203.945312 207.457031 C 209.285156 207.457031 213.628906 203.234375 213.628906 198.039062 L 213.628906 145.277344 C 213.628906 140.085938 209.285156 135.859375 203.945312 135.859375 L 171.046875 135.859375 " fill-opacity="1" fill-rule="nonzero"/><path fill="rgb(99.609375%, 100%, 100%)" d="M 211.476562 145.277344 L 211.476562 198.039062 C 211.476562 202.050781 208.097656 205.3125 203.945312 205.3125 L 171.046875 205.3125 C 166.894531 205.3125 163.515625 202.050781 163.515625 198.039062 L 163.515625 145.277344 C 163.515625 141.269531 166.894531 138.003906 171.046875 138.003906 L 203.945312 138.003906 C 208.097656 138.003906 211.476562 141.269531 211.476562 145.277344 Z M 199.601562 136.933594 L 171.046875 136.933594 C 166.292969 136.933594 162.441406 140.667969 162.441406 145.277344 L 162.441406 198.039062 C 162.441406 202.648438 166.292969 206.386719 171.046875 206.386719 L 203.945312 206.386719 C 208.699219 206.386719 212.550781 202.648438 212.550781 198.039062 L 212.550781 145.277344 C 212.550781 140.667969 208.699219 136.933594 203.945312 136.933594 L 199.601562 136.933594 " fill-opacity="1" fill-rule="nonzero"/><path fill="rgb(99.609375%, 100%, 100%)" d="M 200.023438 118.128906 C 200.023438 118.167969 200.015625 118.203125 200.011719 118.238281 C 202.171875 118.574219 204.058594 119.722656 205.351562 121.367188 L 206.679688 121.367188 C 205.21875 119.121094 202.828125 117.539062 200 117.152344 C 200.019531 117.425781 200.03125 117.699219 200.03125 117.972656 C 200.03125 118.027344 200.027344 118.078125 200.023438 118.128906 " fill-opacity="1" fill-rule="nonzero"/><path fill="rgb(99.609375%, 100%, 100%)" d="M 174.980469 118.238281 C 174.976562 118.207031 174.96875 118.175781 174.96875 118.144531 C 174.964844 118.082031 174.960938 118.027344 174.960938 117.972656 C 174.960938 117.699219 174.972656 117.425781 174.992188 117.152344 C 172.164062 117.539062 169.773438 119.121094 168.3125 121.367188 L 169.640625 121.367188 C 170.933594 119.722656 172.820312 118.574219 174.980469 118.238281 " fill-opacity="1" fill-rule="nonzero"/><path fill="rgb(99.609375%, 100%, 100%)" d="M 207.152344 130.195312 L 167.839844 130.195312 L 167.839844 126.5625 C 167.839844 125.484375 168.046875 124.457031 168.414062 123.511719 L 167.273438 123.511719 C 166.949219 124.472656 166.765625 125.496094 166.765625 126.5625 L 166.765625 130.195312 C 166.765625 130.785156 167.246094 131.265625 167.839844 131.265625 L 207.152344 131.265625 C 207.746094 131.265625 208.226562 130.785156 208.226562 130.195312 L 208.226562 126.5625 C 208.226562 125.496094 208.042969 124.472656 207.71875 123.511719 L 206.582031 123.511719 C 206.949219 124.457031 207.152344 125.484375 207.152344 126.5625 L 207.152344 130.195312 " fill-opacity="1" fill-rule="nonzero"/><path fill="rgb(99.609375%, 100%, 100%)" d="M 206.0625 122.441406 L 207.289062 122.441406 C 207.109375 122.066406 206.90625 121.710938 206.679688 121.367188 L 205.351562 121.367188 C 205.617188 121.703125 205.851562 122.0625 206.0625 122.441406 " fill-opacity="1" fill-rule="nonzero"/><path fill="rgb(99.609375%, 100%, 100%)" d="M 168.925781 122.441406 C 169.140625 122.0625 169.375 121.703125 169.640625 121.367188 L 168.3125 121.367188 C 168.085938 121.710938 167.882812 122.066406 167.703125 122.441406 L 168.925781 122.441406 " fill-opacity="1" fill-rule="nonzero"/><path fill="rgb(99.609375%, 100%, 100%)" d="M 206.582031 123.511719 L 207.71875 123.511719 C 207.59375 123.144531 207.453125 122.785156 207.289062 122.441406 L 206.0625 122.441406 C 206.257812 122.785156 206.433594 123.140625 206.582031 123.511719 " fill-opacity="1" fill-rule="nonzero"/><path fill="rgb(99.609375%, 100%, 100%)" d="M 168.414062 123.511719 C 168.558594 123.140625 168.734375 122.785156 168.925781 122.441406 L 167.703125 122.441406 C 167.539062 122.785156 167.398438 123.144531 167.273438 123.511719 L 168.414062 123.511719 " fill-opacity="1" fill-rule="nonzero"/><path fill="rgb(99.609375%, 100%, 100%)" d="M 175.539062 119.238281 C 175.789062 119.214844 176.042969 119.203125 176.292969 119.203125 L 176.046875 119.203125 C 175.488281 119.203125 175.039062 118.78125 174.980469 118.238281 C 172.820312 118.574219 170.933594 119.722656 169.640625 121.367188 L 171.066406 121.367188 C 172.226562 120.203125 173.78125 119.417969 175.539062 119.238281 " fill-opacity="1" fill-rule="nonzero"/><path fill="rgb(99.609375%, 100%, 100%)" d="M 198.949219 119.203125 L 198.699219 119.203125 C 198.949219 119.203125 199.203125 119.214844 199.453125 119.238281 C 201.210938 119.417969 202.765625 120.203125 203.925781 121.367188 L 205.351562 121.367188 C 204.058594 119.722656 202.171875 118.574219 200.011719 118.238281 C 199.949219 118.777344 199.5 119.203125 198.949219 119.203125 " fill-opacity="1" fill-rule="nonzero"/><path fill="rgb(99.609375%, 100%, 100%)" d="M 206.074219 126.5625 L 206.074219 129.121094 L 168.914062 129.121094 L 168.914062 126.5625 C 168.914062 125.476562 169.15625 124.441406 169.578125 123.511719 L 168.414062 123.511719 C 168.046875 124.457031 167.839844 125.484375 167.839844 126.5625 L 167.839844 130.195312 L 207.152344 130.195312 L 207.152344 126.5625 C 207.152344 125.484375 206.949219 124.457031 206.582031 123.511719 L 205.414062 123.511719 C 205.835938 124.441406 206.074219 125.476562 206.074219 126.5625 " fill-opacity="1" fill-rule="nonzero"/><path fill="rgb(99.609375%, 100%, 100%)" d="M 204.8125 122.441406 L 206.0625 122.441406 C 205.851562 122.0625 205.617188 121.703125 205.351562 121.367188 L 203.925781 121.367188 C 204.253906 121.695312 204.550781 122.054688 204.8125 122.441406 " fill-opacity="1" fill-rule="nonzero"/><path fill="rgb(99.609375%, 100%, 100%)" d="M 171.066406 121.367188 L 169.640625 121.367188 C 169.375 121.703125 169.140625 122.0625 168.925781 122.441406 L 170.179688 122.441406 C 170.441406 122.054688 170.738281 121.695312 171.066406 121.367188 " fill-opacity="1" fill-rule="nonzero"/><path fill="rgb(99.609375%, 100%, 100%)" d="M 169.578125 123.511719 C 169.75 123.136719 169.949219 122.777344 170.179688 122.441406 L 168.925781 122.441406 C 168.734375 122.785156 168.558594 123.140625 168.414062 123.511719 L 169.578125 123.511719 " fill-opacity="1" fill-rule="nonzero"/><path fill="rgb(99.609375%, 100%, 100%)" d="M 205.414062 123.511719 L 206.582031 123.511719 C 206.433594 123.140625 206.257812 122.785156 206.0625 122.441406 L 204.8125 122.441406 C 205.039062 122.777344 205.242188 123.136719 205.414062 123.511719 " fill-opacity="1" fill-rule="nonzero"/><g clip-path="url(#id2)"><path fill="rgb(99.609375%, 100%, 100%)" d="M 176.078125 117.058594 C 176.542969 111.175781 181.476562 106.539062 187.496094 106.539062 C 193.515625 106.539062 198.449219 111.175781 198.914062 117.058594 C 199.167969 117.066406 199.421875 117.078125 199.671875 117.105469 C 199.78125 117.117188 199.890625 117.140625 200 117.152344 C 199.578125 110.640625 194.132812 105.46875 187.496094 105.46875 C 180.859375 105.46875 175.417969 110.640625 174.992188 117.152344 C 175.101562 117.140625 175.210938 117.117188 175.320312 117.105469 C 175.570312 117.078125 175.824219 117.066406 176.078125 117.058594 " fill-opacity="1" fill-rule="nonzero"/></g><path fill="rgb(99.609375%, 100%, 100%)" d="M 174.96875 118.144531 C 174.96875 118.175781 174.976562 118.207031 174.980469 118.238281 C 175.128906 118.214844 175.277344 118.1875 175.429688 118.171875 C 175.714844 118.144531 176.003906 118.128906 176.292969 118.128906 L 176.046875 118.128906 C 176.042969 118.078125 176.039062 118.027344 176.039062 117.972656 C 176.039062 117.664062 176.050781 117.363281 176.078125 117.058594 C 175.824219 117.066406 175.570312 117.078125 175.320312 117.105469 C 175.210938 117.117188 175.101562 117.140625 174.992188 117.152344 C 174.972656 117.425781 174.960938 117.699219 174.960938 117.972656 C 174.960938 118.027344 174.964844 118.082031 174.96875 118.144531 " fill-opacity="1" fill-rule="nonzero"/><path fill="rgb(99.609375%, 100%, 100%)" d="M 198.914062 117.058594 C 198.941406 117.363281 198.953125 117.664062 198.953125 117.972656 C 198.953125 118.027344 198.949219 118.078125 198.949219 118.128906 L 198.699219 118.128906 C 198.988281 118.128906 199.277344 118.144531 199.5625 118.171875 C 199.714844 118.1875 199.863281 118.214844 200.011719 118.238281 C 200.015625 118.203125 200.023438 118.167969 200.023438 118.128906 C 200.027344 118.078125 200.03125 118.027344 200.03125 117.972656 C 200.03125 117.699219 200.019531 117.425781 200 117.152344 C 199.890625 117.140625 199.78125 117.117188 199.671875 117.105469 C 199.421875 117.078125 199.167969 117.066406 198.914062 117.058594 " fill-opacity="1" fill-rule="nonzero"/><path fill="rgb(99.609375%, 100%, 100%)" d="M 176.046875 119.203125 L 198.949219 119.203125 C 199.5 119.203125 199.949219 118.777344 200.011719 118.238281 C 199.863281 118.214844 199.714844 118.1875 199.5625 118.171875 C 199.277344 118.144531 198.988281 118.128906 198.699219 118.128906 L 176.292969 118.128906 C 176.003906 118.128906 175.714844 118.144531 175.429688 118.171875 C 175.277344 118.1875 175.128906 118.214844 174.980469 118.238281 C 175.039062 118.78125 175.488281 119.203125 176.046875 119.203125 " fill-opacity="1" fill-rule="nonzero"/><path fill="rgb(99.609375%, 100%, 100%)" d="M 177.152344 117.054688 C 177.621094 111.769531 182.078125 107.613281 187.496094 107.613281 C 192.910156 107.613281 197.371094 111.769531 197.835938 117.054688 L 198.699219 117.054688 C 198.769531 117.054688 198.84375 117.058594 198.914062 117.058594 C 198.449219 111.175781 193.515625 106.539062 187.496094 106.539062 C 181.476562 106.539062 176.542969 111.175781 176.078125 117.058594 C 176.148438 117.058594 176.222656 117.054688 176.292969 117.054688 L 177.152344 117.054688 " fill-opacity="1" fill-rule="nonzero"/><path fill="rgb(99.609375%, 100%, 100%)" d="M 198.949219 118.128906 C 198.949219 118.078125 198.953125 118.027344 198.953125 117.972656 C 198.953125 117.664062 198.941406 117.363281 198.914062 117.058594 C 198.84375 117.058594 198.769531 117.054688 198.699219 117.054688 L 176.292969 117.054688 C 176.222656 117.054688 176.148438 117.058594 176.078125 117.058594 C 176.050781 117.363281 176.039062 117.664062 176.039062 117.972656 C 176.039062 118.027344 176.042969 118.078125 176.046875 118.128906 L 198.949219 118.128906 " fill-opacity="1" fill-rule="nonzero"/><path fill="rgb(99.609375%, 100%, 100%)" d="M 202.128906 183.121094 L 172.863281 183.121094 C 172.269531 183.121094 171.789062 183.605469 171.789062 184.195312 C 171.789062 184.789062 172.269531 185.269531 172.863281 185.269531 L 202.128906 185.269531 C 202.722656 185.269531 203.203125 184.789062 203.203125 184.195312 C 203.203125 183.605469 202.722656 183.121094 202.128906 183.121094 " fill-opacity="1" fill-rule="nonzero"/><path fill="rgb(99.609375%, 100%, 100%)" d="M 195.5625 190.066406 L 179.433594 190.066406 C 178.835938 190.066406 178.355469 190.546875 178.355469 191.140625 C 178.355469 191.730469 178.835938 192.210938 179.433594 192.210938 L 195.5625 192.210938 C 196.15625 192.210938 196.636719 191.730469 196.636719 191.140625 C 196.636719 190.546875 196.15625 190.066406 195.5625 190.066406 " fill-opacity="1" fill-rule="nonzero"/><path fill="rgb(99.609375%, 100%, 100%)" d="M 174.917969 162.515625 C 175.027344 161.449219 175.929688 160.617188 177.027344 160.617188 L 183.367188 160.617188 L 183.367188 155.199219 L 183.363281 154.292969 C 183.363281 153.125 184.3125 152.179688 185.484375 152.179688 L 189.507812 152.179688 C 190.679688 152.179688 191.628906 153.125 191.628906 154.292969 L 191.628906 160.617188 L 197.96875 160.617188 C 199.136719 160.617188 200.085938 161.5625 200.085938 162.730469 L 200.085938 166.746094 C 200.085938 167.914062 199.136719 168.859375 197.96875 168.859375 L 191.625 168.859375 L 191.625 175.183594 C 191.628906 176.28125 190.792969 177.179688 189.726562 177.289062 C 189.652344 177.296875 189.582031 177.300781 189.507812 177.300781 L 185.484375 177.300781 C 185.410156 177.300781 185.335938 177.296875 185.265625 177.289062 C 184.199219 177.179688 183.363281 176.28125 183.363281 175.183594 L 183.367188 174.273438 L 183.367188 168.859375 L 177.027344 168.859375 C 175.929688 168.859375 175.027344 168.027344 174.917969 166.960938 C 174.910156 166.890625 174.90625 166.820312 174.90625 166.746094 L 174.90625 162.730469 C 174.90625 162.65625 174.910156 162.585938 174.917969 162.515625 Z M 173.847656 167.070312 C 174.015625 168.703125 175.378906 169.933594 177.027344 169.933594 L 182.289062 169.933594 L 182.289062 175.183594 C 182.289062 176.828125 183.523438 178.1875 185.148438 178.355469 C 185.257812 178.367188 185.367188 178.371094 185.476562 178.371094 C 185.480469 178.371094 185.480469 178.371094 185.484375 178.371094 L 189.511719 178.371094 C 189.625 178.371094 189.734375 178.367188 189.832031 178.355469 C 191.46875 178.191406 192.703125 176.828125 192.703125 175.183594 L 192.703125 169.933594 L 197.96875 169.933594 C 199.730469 169.933594 201.160156 168.503906 201.164062 166.746094 L 201.164062 162.730469 C 201.160156 160.972656 199.730469 159.542969 197.964844 159.542969 L 192.703125 159.542969 L 192.703125 154.292969 C 192.703125 152.535156 191.269531 151.105469 189.507812 151.105469 L 185.484375 151.105469 C 183.722656 151.105469 182.289062 152.535156 182.289062 154.292969 L 182.289062 159.546875 L 177.027344 159.542969 C 175.378906 159.542969 174.015625 160.773438 173.847656 162.410156 C 173.835938 162.511719 173.832031 162.609375 173.832031 162.730469 L 173.832031 166.746094 C 173.832031 166.855469 173.835938 166.960938 173.847656 167.070312 " fill-opacity="1" fill-rule="nonzero"/><path fill="rgb(99.609375%, 100%, 100%)" d="M 175.988281 162.621094 C 176.042969 162.089844 176.488281 161.691406 177.023438 161.691406 L 183.367188 161.691406 C 183.648438 161.691406 183.921875 161.578125 184.125 161.375 C 184.328125 161.175781 184.441406 160.902344 184.441406 160.617188 L 184.4375 154.292969 C 184.4375 154.015625 184.546875 153.753906 184.746094 153.554688 C 184.941406 153.359375 185.203125 153.25 185.484375 153.25 L 189.507812 153.25 C 190.082031 153.25 190.550781 153.71875 190.550781 154.292969 L 190.550781 160.617188 C 190.550781 161.210938 191.035156 161.691406 191.628906 161.691406 L 197.96875 161.691406 C 198.542969 161.691406 199.011719 162.15625 199.011719 162.730469 L 199.011719 166.746094 C 199.011719 167.320312 198.542969 167.789062 197.96875 167.789062 L 191.625 167.789062 C 191.339844 167.789062 191.070312 167.898438 190.867188 168.101562 C 190.664062 168.304688 190.550781 168.574219 190.550781 168.859375 L 190.550781 175.1875 C 190.550781 175.722656 190.152344 176.164062 189.613281 176.222656 C 189.578125 176.222656 189.542969 176.226562 189.507812 176.226562 L 185.488281 176.226562 C 185.453125 176.226562 185.417969 176.222656 185.375 176.21875 C 184.84375 176.164062 184.4375 175.722656 184.4375 175.183594 L 184.441406 168.859375 C 184.441406 168.269531 183.957031 167.789062 183.367188 167.789062 L 177.023438 167.789062 C 176.488281 167.789062 176.042969 167.386719 175.988281 166.859375 C 175.984375 166.820312 175.980469 166.785156 175.980469 166.746094 L 175.980469 162.75 C 175.980469 162.703125 175.984375 162.660156 175.988281 162.621094 Z M 174.917969 166.960938 C 175.027344 168.027344 175.929688 168.859375 177.027344 168.859375 L 183.367188 168.859375 L 183.367188 174.273438 L 183.363281 175.183594 C 183.363281 176.28125 184.199219 177.179688 185.265625 177.289062 C 185.335938 177.296875 185.410156 177.300781 185.484375 177.300781 L 189.507812 177.300781 C 189.582031 177.300781 189.652344 177.296875 189.726562 177.289062 C 190.792969 177.179688 191.628906 176.28125 191.625 175.183594 L 191.625 168.859375 L 197.96875 168.859375 C 199.136719 168.859375 200.085938 167.914062 200.085938 166.746094 L 200.085938 162.730469 C 200.085938 161.5625 199.136719 160.617188 197.96875 160.617188 L 191.628906 160.617188 L 191.628906 154.292969 C 191.628906 153.125 190.679688 152.179688 189.507812 152.179688 L 185.484375 152.179688 C 184.3125 152.179688 183.363281 153.125 183.363281 154.292969 L 183.367188 155.199219 L 183.367188 160.617188 L 177.027344 160.617188 C 175.929688 160.617188 175.027344 161.449219 174.917969 162.515625 C 174.910156 162.585938 174.90625 162.65625 174.90625 162.730469 L 174.90625 166.746094 C 174.90625 166.820312 174.910156 166.890625 174.917969 166.960938 " fill-opacity="1" fill-rule="nonzero"/><g fill="rgb(99.609375%, 100%, 100%)" fill-opacity="1"><g transform="translate(84.957868, 242.450828)"><g><path d="M 8.65625 -22.046875 L 14.015625 -22.046875 L 22.515625 0 L 17.484375 0 L 15.59375 -5.046875 L 7.09375 -5.046875 L 5.203125 0 L 0.15625 0 Z M 14.015625 -9.296875 L 11.40625 -16.53125 L 11.28125 -16.53125 L 8.65625 -9.296875 Z M 14.015625 -9.296875 "/></g></g></g><g fill="rgb(99.609375%, 100%, 100%)" fill-opacity="1"><g transform="translate(107.007893, 242.450828)"><g><path d="M 8.5 6.609375 C 7.34375 6.609375 6.34375 6.445312 5.5 6.125 C 4.664062 5.800781 3.96875 5.441406 3.40625 5.046875 C 2.726562 4.578125 2.171875 4.050781 1.734375 3.46875 L 4.40625 0.78125 C 4.71875 1.144531 5.085938 1.460938 5.515625 1.734375 C 5.867188 1.960938 6.296875 2.175781 6.796875 2.375 C 7.304688 2.570312 7.875 2.671875 8.5 2.671875 C 9.09375 2.671875 9.640625 2.566406 10.140625 2.359375 C 10.648438 2.148438 11.082031 1.859375 11.4375 1.484375 C 11.789062 1.117188 12.070312 0.675781 12.28125 0.15625 C 12.488281 -0.363281 12.59375 -0.941406 12.59375 -1.578125 L 12.59375 -2.828125 L 12.4375 -2.828125 C 12.125 -2.367188 11.75 -1.953125 11.3125 -1.578125 C 10.925781 -1.265625 10.4375 -0.972656 9.84375 -0.703125 C 9.25 -0.441406 8.539062 -0.3125 7.71875 -0.3125 C 6.851562 -0.3125 6.019531 -0.5 5.21875 -0.875 C 4.425781 -1.257812 3.722656 -1.785156 3.109375 -2.453125 C 2.503906 -3.128906 2.019531 -3.941406 1.65625 -4.890625 C 1.289062 -5.847656 1.109375 -6.894531 1.109375 -8.03125 C 1.109375 -9.164062 1.289062 -10.207031 1.65625 -11.15625 C 2.019531 -12.113281 2.503906 -12.925781 3.109375 -13.59375 C 3.722656 -14.269531 4.425781 -14.796875 5.21875 -15.171875 C 6.019531 -15.554688 6.851562 -15.75 7.71875 -15.75 C 8.539062 -15.75 9.25 -15.617188 9.84375 -15.359375 C 10.4375 -15.097656 10.925781 -14.804688 11.3125 -14.484375 C 11.75 -14.109375 12.125 -13.691406 12.4375 -13.234375 L 12.59375 -13.234375 L 12.59375 -15.4375 L 16.859375 -15.4375 L 16.859375 -1.578125 C 16.859375 -0.398438 16.648438 0.691406 16.234375 1.703125 C 15.828125 2.710938 15.25 3.578125 14.5 4.296875 C 13.757812 5.023438 12.878906 5.59375 11.859375 6 C 10.835938 6.40625 9.71875 6.609375 8.5 6.609375 Z M 8.984375 -4.25 C 10.003906 -4.25 10.859375 -4.597656 11.546875 -5.296875 C 12.242188 -6.003906 12.59375 -6.914062 12.59375 -8.03125 C 12.59375 -9.144531 12.242188 -10.050781 11.546875 -10.75 C 10.859375 -11.457031 10.003906 -11.8125 8.984375 -11.8125 C 7.953125 -11.8125 7.085938 -11.457031 6.390625 -10.75 C 5.703125 -10.050781 5.359375 -9.144531 5.359375 -8.03125 C 5.359375 -6.914062 5.703125 -6.003906 6.390625 -5.296875 C 7.085938 -4.597656 7.953125 -4.25 8.984375 -4.25 Z M 8.984375 -4.25 "/></g></g></g><g fill="rgb(99.609375%, 100%, 100%)" fill-opacity="1"><g transform="translate(125.277912, 242.450828)"><g><path d="M 9.296875 0.3125 C 8.160156 0.3125 7.09375 0.101562 6.09375 -0.3125 C 5.09375 -0.726562 4.21875 -1.304688 3.46875 -2.046875 C 2.726562 -2.785156 2.148438 -3.632812 1.734375 -4.59375 C 1.316406 -5.5625 1.109375 -6.601562 1.109375 -7.71875 C 1.109375 -8.8125 1.316406 -9.84375 1.734375 -10.8125 C 2.148438 -11.789062 2.722656 -12.644531 3.453125 -13.375 C 4.191406 -14.113281 5.046875 -14.691406 6.015625 -15.109375 C 6.984375 -15.535156 8.023438 -15.75 9.140625 -15.75 C 10.203125 -15.75 11.203125 -15.539062 12.140625 -15.125 C 13.078125 -14.71875 13.890625 -14.164062 14.578125 -13.46875 C 15.273438 -12.78125 15.828125 -11.96875 16.234375 -11.03125 C 16.648438 -10.101562 16.859375 -9.101562 16.859375 -8.03125 C 16.859375 -7.738281 16.847656 -7.484375 16.828125 -7.265625 C 16.804688 -7.046875 16.785156 -6.847656 16.765625 -6.671875 C 16.734375 -6.460938 16.707031 -6.285156 16.6875 -6.140625 L 5.515625 -6.140625 C 5.742188 -5.429688 6.1875 -4.804688 6.84375 -4.265625 C 7.507812 -3.734375 8.429688 -3.46875 9.609375 -3.46875 C 10.273438 -3.46875 10.859375 -3.550781 11.359375 -3.71875 C 11.867188 -3.882812 12.300781 -4.082031 12.65625 -4.3125 C 13.0625 -4.5625 13.410156 -4.859375 13.703125 -5.203125 L 15.90625 -2.203125 C 15.445312 -1.742188 14.878906 -1.320312 14.203125 -0.9375 C 13.640625 -0.625 12.945312 -0.335938 12.125 -0.078125 C 11.3125 0.179688 10.367188 0.3125 9.296875 0.3125 Z M 12.4375 -9.296875 C 12.207031 -10.003906 11.789062 -10.625 11.1875 -11.15625 C 10.59375 -11.695312 9.859375 -11.96875 8.984375 -11.96875 C 8.097656 -11.96875 7.351562 -11.695312 6.75 -11.15625 C 6.15625 -10.625 5.742188 -10.003906 5.515625 -9.296875 Z M 12.4375 -9.296875 "/></g></g></g><g fill="rgb(99.609375%, 100%, 100%)" fill-opacity="1"><g transform="translate(142.602933, 242.450828)"><g><path d="M 2.046875 -15.4375 L 6.296875 -15.4375 L 6.296875 -13.234375 L 6.453125 -13.234375 C 6.796875 -13.691406 7.1875 -14.109375 7.625 -14.484375 C 8 -14.804688 8.46875 -15.097656 9.03125 -15.359375 C 9.601562 -15.617188 10.269531 -15.75 11.03125 -15.75 C 11.800781 -15.75 12.53125 -15.597656 13.21875 -15.296875 C 13.914062 -14.992188 14.519531 -14.5625 15.03125 -14 C 15.550781 -13.445312 15.957031 -12.769531 16.25 -11.96875 C 16.539062 -11.164062 16.6875 -10.273438 16.6875 -9.296875 L 16.6875 0 L 12.4375 0 L 12.4375 -8.65625 C 12.4375 -9.601562 12.1875 -10.335938 11.6875 -10.859375 C 11.1875 -11.390625 10.492188 -11.65625 9.609375 -11.65625 C 8.660156 -11.65625 7.867188 -11.332031 7.234375 -10.6875 C 6.609375 -10.050781 6.296875 -9.21875 6.296875 -8.1875 L 6.296875 0 L 2.046875 0 Z M 2.046875 -15.4375 "/></g></g></g><g fill="rgb(99.609375%, 100%, 100%)" fill-opacity="1"><g transform="translate(160.715462, 242.450828)"><g><path d="M 8.03125 0.3125 C 7.125 0.3125 6.25 0.117188 5.40625 -0.265625 C 4.570312 -0.648438 3.832031 -1.203125 3.1875 -1.921875 C 2.550781 -2.640625 2.046875 -3.488281 1.671875 -4.46875 C 1.296875 -5.457031 1.109375 -6.539062 1.109375 -7.71875 C 1.109375 -8.894531 1.296875 -9.972656 1.671875 -10.953125 C 2.046875 -11.941406 2.550781 -12.785156 3.1875 -13.484375 C 3.832031 -14.191406 4.570312 -14.742188 5.40625 -15.140625 C 6.25 -15.546875 7.125 -15.75 8.03125 -15.75 C 8.851562 -15.75 9.566406 -15.617188 10.171875 -15.359375 C 10.785156 -15.097656 11.300781 -14.804688 11.71875 -14.484375 C 12.195312 -14.109375 12.597656 -13.691406 12.921875 -13.234375 L 13.078125 -13.234375 L 13.078125 -22.046875 L 17.328125 -22.046875 L 17.328125 0 L 13.078125 0 L 13.078125 -2.203125 L 12.921875 -2.203125 C 12.597656 -1.742188 12.195312 -1.320312 11.71875 -0.9375 C 11.300781 -0.625 10.785156 -0.335938 10.171875 -0.078125 C 9.566406 0.179688 8.851562 0.3125 8.03125 0.3125 Z M 9.296875 -3.625 C 9.835938 -3.625 10.347656 -3.726562 10.828125 -3.9375 C 11.316406 -4.144531 11.738281 -4.425781 12.09375 -4.78125 C 12.445312 -5.144531 12.722656 -5.578125 12.921875 -6.078125 C 13.128906 -6.578125 13.234375 -7.125 13.234375 -7.71875 C 13.234375 -8.300781 13.128906 -8.84375 12.921875 -9.34375 C 12.722656 -9.851562 12.445312 -10.285156 12.09375 -10.640625 C 11.738281 -11.003906 11.316406 -11.289062 10.828125 -11.5 C 10.347656 -11.707031 9.835938 -11.8125 9.296875 -11.8125 C 8.742188 -11.8125 8.226562 -11.707031 7.75 -11.5 C 7.269531 -11.289062 6.847656 -11.003906 6.484375 -10.640625 C 6.128906 -10.285156 5.851562 -9.851562 5.65625 -9.34375 C 5.457031 -8.84375 5.359375 -8.300781 5.359375 -7.71875 C 5.359375 -7.125 5.457031 -6.578125 5.65625 -6.078125 C 5.851562 -5.578125 6.128906 -5.144531 6.484375 -4.78125 C 6.847656 -4.425781 7.269531 -4.144531 7.75 -3.9375 C 8.226562 -3.726562 8.742188 -3.625 9.296875 -3.625 Z M 9.296875 -3.625 "/></g></g></g><g fill="rgb(99.609375%, 100%, 100%)" fill-opacity="1"><g transform="translate(179.615493, 242.450828)"><g><path d="M 5.984375 0.3125 C 5.265625 0.3125 4.617188 0.203125 4.046875 -0.015625 C 3.472656 -0.234375 2.976562 -0.539062 2.5625 -0.9375 C 2.15625 -1.34375 1.835938 -1.8125 1.609375 -2.34375 C 1.378906 -2.882812 1.265625 -3.46875 1.265625 -4.09375 C 1.265625 -5.351562 1.664062 -6.425781 2.46875 -7.3125 C 3.28125 -8.207031 4.398438 -8.785156 5.828125 -9.046875 L 10.703125 -9.921875 C 10.617188 -10.460938 10.351562 -10.9375 9.90625 -11.34375 C 9.457031 -11.757812 8.832031 -11.96875 8.03125 -11.96875 C 7.488281 -11.96875 7 -11.878906 6.5625 -11.703125 C 6.132812 -11.523438 5.773438 -11.320312 5.484375 -11.09375 C 5.128906 -10.832031 4.820312 -10.546875 4.5625 -10.234375 L 2.046875 -12.75 C 2.484375 -13.300781 3.019531 -13.796875 3.65625 -14.234375 C 4.195312 -14.617188 4.851562 -14.96875 5.625 -15.28125 C 6.40625 -15.59375 7.3125 -15.75 8.34375 -15.75 C 9.332031 -15.75 10.226562 -15.59375 11.03125 -15.28125 C 11.84375 -14.96875 12.539062 -14.53125 13.125 -13.96875 C 13.71875 -13.414062 14.171875 -12.765625 14.484375 -12.015625 C 14.804688 -11.273438 14.96875 -10.472656 14.96875 -9.609375 L 14.96875 0 L 10.703125 0 L 10.703125 -1.890625 L 10.546875 -1.890625 C 10.210938 -1.472656 9.828125 -1.101562 9.390625 -0.78125 C 9.003906 -0.488281 8.523438 -0.234375 7.953125 -0.015625 C 7.378906 0.203125 6.722656 0.3125 5.984375 0.3125 Z M 7.40625 -3.15625 C 8.34375 -3.15625 9.125 -3.472656 9.75 -4.109375 C 10.382812 -4.753906 10.703125 -5.585938 10.703125 -6.609375 L 10.703125 -6.9375 L 7.25 -6.296875 C 6.695312 -6.191406 6.269531 -6.003906 5.96875 -5.734375 C 5.664062 -5.460938 5.515625 -5.125 5.515625 -4.71875 C 5.515625 -4.238281 5.671875 -3.859375 5.984375 -3.578125 C 6.296875 -3.296875 6.769531 -3.15625 7.40625 -3.15625 Z M 7.40625 -3.15625 "/></g></g></g><g fill="rgb(99.609375%, 100%, 100%)" fill-opacity="1"><g transform="translate(195.995512, 242.450828)"><g><path d="M 2.046875 -15.4375 L 6.296875 -15.4375 L 6.296875 -13.234375 L 6.453125 -13.234375 C 6.722656 -13.691406 7.0625 -14.109375 7.46875 -14.484375 C 7.820312 -14.804688 8.257812 -15.097656 8.78125 -15.359375 C 9.3125 -15.617188 9.953125 -15.75 10.703125 -15.75 C 11.523438 -15.75 12.226562 -15.609375 12.8125 -15.328125 C 13.40625 -15.046875 13.878906 -14.734375 14.234375 -14.390625 C 14.660156 -14.015625 15.007812 -13.578125 15.28125 -13.078125 L 15.4375 -13.078125 C 15.789062 -13.578125 16.21875 -14.015625 16.71875 -14.390625 C 17.144531 -14.734375 17.664062 -15.046875 18.28125 -15.328125 C 18.90625 -15.609375 19.632812 -15.75 20.46875 -15.75 C 21.226562 -15.75 21.929688 -15.609375 22.578125 -15.328125 C 23.234375 -15.046875 23.800781 -14.632812 24.28125 -14.09375 C 24.769531 -13.5625 25.148438 -12.914062 25.421875 -12.15625 C 25.691406 -11.40625 25.828125 -10.554688 25.828125 -9.609375 L 25.828125 0 L 21.578125 0 L 21.578125 -8.984375 C 21.578125 -9.859375 21.351562 -10.519531 20.90625 -10.96875 C 20.46875 -11.425781 19.851562 -11.65625 19.0625 -11.65625 C 18.175781 -11.65625 17.453125 -11.363281 16.890625 -10.78125 C 16.335938 -10.207031 16.0625 -9.445312 16.0625 -8.5 L 16.0625 0 L 11.8125 0 L 11.8125 -8.984375 C 11.8125 -9.859375 11.585938 -10.519531 11.140625 -10.96875 C 10.703125 -11.425781 10.085938 -11.65625 9.296875 -11.65625 C 8.410156 -11.65625 7.6875 -11.363281 7.125 -10.78125 C 6.570312 -10.207031 6.296875 -9.445312 6.296875 -8.5 L 6.296875 0 L 2.046875 0 Z M 2.046875 -15.4375 "/></g></g></g><g fill="rgb(99.609375%, 100%, 100%)" fill-opacity="1"><g transform="translate(223.243046, 242.450828)"><g><path d="M 9.296875 0.3125 C 8.160156 0.3125 7.09375 0.101562 6.09375 -0.3125 C 5.09375 -0.726562 4.21875 -1.304688 3.46875 -2.046875 C 2.726562 -2.785156 2.148438 -3.632812 1.734375 -4.59375 C 1.316406 -5.5625 1.109375 -6.601562 1.109375 -7.71875 C 1.109375 -8.8125 1.316406 -9.84375 1.734375 -10.8125 C 2.148438 -11.789062 2.722656 -12.644531 3.453125 -13.375 C 4.191406 -14.113281 5.046875 -14.691406 6.015625 -15.109375 C 6.984375 -15.535156 8.023438 -15.75 9.140625 -15.75 C 10.203125 -15.75 11.203125 -15.539062 12.140625 -15.125 C 13.078125 -14.71875 13.890625 -14.164062 14.578125 -13.46875 C 15.273438 -12.78125 15.828125 -11.96875 16.234375 -11.03125 C 16.648438 -10.101562 16.859375 -9.101562 16.859375 -8.03125 C 16.859375 -7.738281 16.847656 -7.484375 16.828125 -7.265625 C 16.804688 -7.046875 16.785156 -6.847656 16.765625 -6.671875 C 16.734375 -6.460938 16.707031 -6.285156 16.6875 -6.140625 L 5.515625 -6.140625 C 5.742188 -5.429688 6.1875 -4.804688 6.84375 -4.265625 C 7.507812 -3.734375 8.429688 -3.46875 9.609375 -3.46875 C 10.273438 -3.46875 10.859375 -3.550781 11.359375 -3.71875 C 11.867188 -3.882812 12.300781 -4.082031 12.65625 -4.3125 C 13.0625 -4.5625 13.410156 -4.859375 13.703125 -5.203125 L 15.90625 -2.203125 C 15.445312 -1.742188 14.878906 -1.320312 14.203125 -0.9375 C 13.640625 -0.625 12.945312 -0.335938 12.125 -0.078125 C 11.3125 0.179688 10.367188 0.3125 9.296875 0.3125 Z M 12.4375 -9.296875 C 12.207031 -10.003906 11.789062 -10.625 11.1875 -11.15625 C 10.59375 -11.695312 9.859375 -11.96875 8.984375 -11.96875 C 8.097656 -11.96875 7.351562 -11.695312 6.75 -11.15625 C 6.15625 -10.625 5.742188 -10.003906 5.515625 -9.296875 Z M 12.4375 -9.296875 "/></g></g></g><g fill="rgb(99.609375%, 100%, 100%)" fill-opacity="1"><g transform="translate(240.568073, 242.450828)"><g><path d="M 2.046875 -15.4375 L 6.296875 -15.4375 L 6.296875 -13.234375 L 6.453125 -13.234375 C 6.796875 -13.691406 7.1875 -14.109375 7.625 -14.484375 C 8 -14.804688 8.46875 -15.097656 9.03125 -15.359375 C 9.601562 -15.617188 10.269531 -15.75 11.03125 -15.75 C 11.800781 -15.75 12.53125 -15.597656 13.21875 -15.296875 C 13.914062 -14.992188 14.519531 -14.5625 15.03125 -14 C 15.550781 -13.445312 15.957031 -12.769531 16.25 -11.96875 C 16.539062 -11.164062 16.6875 -10.273438 16.6875 -9.296875 L 16.6875 0 L 12.4375 0 L 12.4375 -8.65625 C 12.4375 -9.601562 12.1875 -10.335938 11.6875 -10.859375 C 11.1875 -11.390625 10.492188 -11.65625 9.609375 -11.65625 C 8.660156 -11.65625 7.867188 -11.332031 7.234375 -10.6875 C 6.609375 -10.050781 6.296875 -9.21875 6.296875 -8.1875 L 6.296875 0 L 2.046875 0 Z M 2.046875 -15.4375 "/></g></g></g><g fill="rgb(99.609375%, 100%, 100%)" fill-opacity="1"><g transform="translate(258.680602, 242.450828)"><g><path d="M 8.5 0.3125 C 6.925781 0.3125 5.664062 -0.171875 4.71875 -1.140625 C 3.78125 -2.117188 3.3125 -3.523438 3.3125 -5.359375 L 3.3125 -11.1875 L 0.625 -11.1875 L 0.625 -15.125 L 2.046875 -15.125 C 3.203125 -15.125 3.78125 -15.753906 3.78125 -17.015625 L 3.78125 -19.84375 L 7.5625 -19.84375 L 7.5625 -15.125 L 11.03125 -15.125 L 11.03125 -11.1875 L 7.5625 -11.1875 L 7.5625 -5.984375 C 7.5625 -5.265625 7.742188 -4.71875 8.109375 -4.34375 C 8.472656 -3.96875 8.972656 -3.78125 9.609375 -3.78125 C 10.066406 -3.78125 10.476562 -3.832031 10.84375 -3.9375 C 11.03125 -3.976562 11.195312 -4.03125 11.34375 -4.09375 L 11.34375 -0.15625 C 11.09375 -0.0703125 10.816406 0.0078125 10.515625 0.09375 C 10.265625 0.15625 9.96875 0.207031 9.625 0.25 C 9.28125 0.289062 8.90625 0.3125 8.5 0.3125 Z M 8.5 0.3125 "/></g></g></g><g fill="rgb(99.609375%, 100%, 100%)" fill-opacity="1"><g transform="translate(270.650617, 242.450828)"><g><path d="M 9.296875 0.3125 C 8.160156 0.3125 7.09375 0.101562 6.09375 -0.3125 C 5.09375 -0.726562 4.21875 -1.304688 3.46875 -2.046875 C 2.726562 -2.785156 2.148438 -3.632812 1.734375 -4.59375 C 1.316406 -5.5625 1.109375 -6.601562 1.109375 -7.71875 C 1.109375 -8.8125 1.316406 -9.84375 1.734375 -10.8125 C 2.148438 -11.789062 2.726562 -12.644531 3.46875 -13.375 C 4.21875 -14.113281 5.09375 -14.691406 6.09375 -15.109375 C 7.09375 -15.535156 8.160156 -15.75 9.296875 -15.75 C 10.429688 -15.75 11.492188 -15.535156 12.484375 -15.109375 C 13.484375 -14.691406 14.351562 -14.113281 15.09375 -13.375 C 15.84375 -12.644531 16.425781 -11.789062 16.84375 -10.8125 C 17.269531 -9.84375 17.484375 -8.8125 17.484375 -7.71875 C 17.484375 -6.601562 17.269531 -5.5625 16.84375 -4.59375 C 16.425781 -3.632812 15.84375 -2.785156 15.09375 -2.046875 C 14.351562 -1.304688 13.484375 -0.726562 12.484375 -0.3125 C 11.492188 0.101562 10.429688 0.3125 9.296875 0.3125 Z M 9.296875 -3.625 C 9.835938 -3.625 10.347656 -3.726562 10.828125 -3.9375 C 11.316406 -4.144531 11.738281 -4.425781 12.09375 -4.78125 C 12.445312 -5.144531 12.722656 -5.578125 12.921875 -6.078125 C 13.128906 -6.578125 13.234375 -7.125 13.234375 -7.71875 C 13.234375 -8.300781 13.128906 -8.84375 12.921875 -9.34375 C 12.722656 -9.851562 12.445312 -10.285156 12.09375 -10.640625 C 11.738281 -11.003906 11.316406 -11.289062 10.828125 -11.5 C 10.347656 -11.707031 9.835938 -11.8125 9.296875 -11.8125 C 8.742188 -11.8125 8.226562 -11.707031 7.75 -11.5 C 7.269531 -11.289062 6.847656 -11.003906 6.484375 -10.640625 C 6.128906 -10.285156 5.851562 -9.851562 5.65625 -9.34375 C 5.457031 -8.84375 5.359375 -8.300781 5.359375 -7.71875 C 5.359375 -7.125 5.457031 -6.578125 5.65625 -6.078125 C 5.851562 -5.578125 6.128906 -5.144531 6.484375 -4.78125 C 6.847656 -4.425781 7.269531 -4.144531 7.75 -3.9375 C 8.226562 -3.726562 8.742188 -3.625 9.296875 -3.625 Z M 9.296875 -3.625 "/></g></g></g></svg>