<svg xmlns="http://www.w3.org/2000/svg" xmlns:xlink="http://www.w3.org/1999/xlink" width="500" zoomAndPan="magnify" viewBox="0 0 375 374.999991" height="500" preserveAspectRatio="xMidYMid meet" version="1.0"><defs><g/><clipPath id="id1"><path d="M 136 115 L 240.21875 115 L 240.21875 214.675781 L 136 214.675781 Z M 136 115 " clip-rule="nonzero"/></clipPath></defs><rect x="-37.5" width="450" fill="rgb(100%, 100%, 100%)" y="-37.499999" height="449.999989" fill-opacity="1"/><rect x="-37.5" width="450" fill="rgb(15.289307%, 12.548828%, 100%)" y="-37.499999" height="449.999989" fill-opacity="1"/><rect x="-37.5" width="450" fill="rgb(100%, 100%, 100%)" y="-37.499999" height="449.999989" fill-opacity="1"/><rect x="-37.5" width="450" fill="rgb(15.289307%, 12.548828%, 100%)" y="-37.499999" height="449.999989" fill-opacity="1"/><g clip-path="url(#id1)"><path fill="rgb(99.609375%, 100%, 100%)" d="M 233.160156 158.082031 L 188.304688 213.425781 L 143.449219 158.082031 C 134.617188 147.183594 136.25 131.15625 147.09375 122.28125 C 157.9375 113.40625 173.890625 115.046875 182.722656 125.941406 C 186.035156 130.03125 187.871094 134.863281 188.308594 139.75 C 189.445312 126.773438 200.273438 116.585938 213.488281 116.566406 C 227.472656 116.546875 238.828125 127.921875 238.847656 141.976562 C 238.855469 148.074219 236.710938 153.691406 233.160156 158.082031 Z M 213.488281 115.355469 C 206.820312 115.363281 200.449219 117.871094 195.550781 122.40625 C 192.175781 125.535156 189.699219 129.4375 188.304688 133.738281 C 187.300781 130.640625 185.734375 127.742188 183.65625 125.179688 C 178.597656 118.933594 171.09375 115.355469 163.070312 115.355469 C 156.996094 115.355469 151.050781 117.480469 146.335938 121.34375 C 140.839844 125.839844 137.417969 132.21875 136.695312 139.300781 C 135.972656 146.382812 138.042969 153.324219 142.515625 158.84375 L 187.371094 214.1875 C 187.601562 214.472656 187.945312 214.632812 188.304688 214.632812 C 188.667969 214.632812 189.011719 214.472656 189.242188 214.1875 L 234.09375 158.84375 C 237.945312 154.089844 240.0625 148.097656 240.054688 141.972656 C 240.03125 127.296875 228.132812 115.355469 213.488281 115.355469 " fill-opacity="1" fill-rule="nonzero"/></g><path fill="rgb(99.609375%, 100%, 100%)" d="M 232.226562 157.316406 L 188.304688 211.507812 L 144.382812 157.316406 C 140.316406 152.296875 138.4375 145.988281 139.09375 139.546875 C 139.75 133.105469 142.859375 127.308594 147.855469 123.21875 C 152.144531 119.707031 157.550781 117.777344 163.070312 117.777344 C 170.363281 117.777344 177.1875 121.03125 181.789062 126.707031 C 184.835938 130.472656 186.675781 135.015625 187.105469 139.855469 C 187.164062 140.480469 187.683594 140.960938 188.308594 140.960938 C 188.929688 140.960938 189.453125 140.480469 189.507812 139.855469 C 190.609375 127.289062 200.921875 117.792969 213.523438 117.777344 C 226.804688 117.777344 237.625 128.632812 237.644531 141.976562 C 237.652344 147.546875 235.726562 152.992188 232.226562 157.316406 Z M 213.488281 116.566406 C 200.273438 116.585938 189.445312 126.773438 188.308594 139.75 C 187.871094 134.863281 186.035156 130.03125 182.722656 125.941406 C 173.890625 115.046875 157.9375 113.40625 147.09375 122.28125 C 136.25 131.15625 134.617188 147.183594 143.449219 158.082031 L 188.304688 213.425781 L 233.160156 158.082031 C 236.710938 153.691406 238.855469 148.074219 238.847656 141.976562 C 238.828125 127.921875 227.472656 116.546875 213.488281 116.566406 " fill-opacity="1" fill-rule="nonzero"/><path fill="rgb(99.609375%, 100%, 100%)" d="M 192.78125 177.5625 C 187.90625 180.050781 181.941406 178.09375 179.46875 173.191406 C 177.988281 170.269531 178.113281 166.90625 179.46875 164.179688 L 188.300781 146.699219 L 197.132812 164.179688 C 199.609375 169.082031 197.660156 175.074219 192.78125 177.5625 Z M 189.371094 146.152344 C 189.167969 145.746094 188.753906 145.488281 188.300781 145.488281 C 187.84375 145.488281 187.429688 145.746094 187.222656 146.152344 L 178.390625 163.640625 C 176.804688 166.824219 176.804688 170.601562 178.394531 173.742188 C 180.296875 177.511719 184.097656 179.855469 188.308594 179.855469 C 190.0625 179.855469 191.753906 179.445312 193.328125 178.640625 C 198.792969 175.855469 200.980469 169.121094 198.207031 163.632812 L 189.371094 146.152344 " fill-opacity="1" fill-rule="nonzero"/><path fill="rgb(99.609375%, 100%, 100%)" d="M 192.238281 176.484375 C 191.003906 177.113281 189.679688 177.433594 188.308594 177.433594 C 185.007812 177.433594 182.03125 175.597656 180.539062 172.644531 C 179.296875 170.1875 179.300781 167.222656 180.539062 164.730469 L 188.300781 149.371094 L 196.058594 164.730469 C 198.230469 169.027344 196.515625 174.300781 192.238281 176.484375 Z M 188.300781 146.699219 L 179.46875 164.179688 C 178.113281 166.90625 177.988281 170.269531 179.46875 173.191406 C 181.941406 178.09375 187.90625 180.050781 192.78125 177.5625 C 197.660156 175.074219 199.609375 169.082031 197.132812 164.179688 L 188.300781 146.699219 " fill-opacity="1" fill-rule="nonzero"/><path fill="rgb(99.609375%, 100%, 100%)" d="M 192.289062 167.011719 L 189.507812 167.011719 L 189.507812 169.433594 L 192.289062 169.433594 C 192.953125 169.433594 193.492188 168.894531 193.492188 168.222656 C 193.492188 167.554688 192.953125 167.011719 192.289062 167.011719 " fill-opacity="1" fill-rule="nonzero"/><path fill="rgb(99.609375%, 100%, 100%)" d="M 184.320312 167.011719 C 183.65625 167.011719 183.117188 167.554688 183.117188 168.222656 C 183.117188 168.894531 183.65625 169.433594 184.320312 169.433594 L 187.101562 169.433594 L 187.101562 167.011719 L 184.320312 167.011719 " fill-opacity="1" fill-rule="nonzero"/><path fill="rgb(99.609375%, 100%, 100%)" d="M 187.101562 172.226562 C 187.101562 172.894531 187.640625 173.4375 188.304688 173.4375 C 188.972656 173.4375 189.507812 172.894531 189.507812 172.226562 L 189.507812 169.433594 L 187.101562 169.433594 L 187.101562 172.226562 " fill-opacity="1" fill-rule="nonzero"/><path fill="rgb(99.609375%, 100%, 100%)" d="M 189.507812 164.222656 C 189.507812 163.554688 188.972656 163.011719 188.304688 163.011719 C 187.640625 163.011719 187.101562 163.554688 187.101562 164.222656 L 187.101562 167.011719 L 189.507812 167.011719 L 189.507812 164.222656 " fill-opacity="1" fill-rule="nonzero"/><path fill="rgb(99.609375%, 100%, 100%)" d="M 187.101562 167.011719 L 187.101562 169.433594 L 189.507812 169.433594 L 189.507812 167.011719 L 187.101562 167.011719 " fill-opacity="1" fill-rule="nonzero"/><g fill="rgb(99.609375%, 100%, 100%)" fill-opacity="1"><g transform="translate(56.046308, 242.450828)"><g><path d="M 2.828125 -22.046875 L 12.59375 -22.046875 C 13.769531 -22.046875 14.835938 -21.867188 15.796875 -21.515625 C 16.753906 -21.160156 17.566406 -20.65625 18.234375 -20 C 18.910156 -19.351562 19.425781 -18.570312 19.78125 -17.65625 C 20.132812 -16.738281 20.3125 -15.734375 20.3125 -14.640625 C 20.3125 -13.378906 20.117188 -12.328125 19.734375 -11.484375 C 19.347656 -10.648438 18.910156 -9.992188 18.421875 -9.515625 C 17.878906 -8.941406 17.25 -8.5 16.53125 -8.1875 L 21.109375 0 L 15.90625 0 L 11.96875 -7.25 L 7.5625 -7.25 L 7.5625 0 L 2.828125 0 Z M 12.4375 -11.65625 C 13.320312 -11.65625 14.039062 -11.929688 14.59375 -12.484375 C 15.15625 -13.046875 15.4375 -13.765625 15.4375 -14.640625 C 15.4375 -15.523438 15.15625 -16.242188 14.59375 -16.796875 C 14.039062 -17.359375 13.320312 -17.640625 12.4375 -17.640625 L 7.5625 -17.640625 L 7.5625 -11.65625 Z M 12.4375 -11.65625 "/></g></g></g><g fill="rgb(99.609375%, 100%, 100%)" fill-opacity="1"><g transform="translate(77.623841, 242.450828)"><g><path d="M 9.296875 0.3125 C 8.160156 0.3125 7.09375 0.101562 6.09375 -0.3125 C 5.09375 -0.726562 4.21875 -1.304688 3.46875 -2.046875 C 2.726562 -2.785156 2.148438 -3.632812 1.734375 -4.59375 C 1.316406 -5.5625 1.109375 -6.601562 1.109375 -7.71875 C 1.109375 -8.8125 1.316406 -9.84375 1.734375 -10.8125 C 2.148438 -11.789062 2.722656 -12.644531 3.453125 -13.375 C 4.191406 -14.113281 5.046875 -14.691406 6.015625 -15.109375 C 6.984375 -15.535156 8.023438 -15.75 9.140625 -15.75 C 10.203125 -15.75 11.203125 -15.539062 12.140625 -15.125 C 13.078125 -14.71875 13.890625 -14.164062 14.578125 -13.46875 C 15.273438 -12.78125 15.828125 -11.96875 16.234375 -11.03125 C 16.648438 -10.101562 16.859375 -9.101562 16.859375 -8.03125 C 16.859375 -7.738281 16.847656 -7.484375 16.828125 -7.265625 C 16.804688 -7.046875 16.785156 -6.847656 16.765625 -6.671875 C 16.734375 -6.460938 16.707031 -6.285156 16.6875 -6.140625 L 5.515625 -6.140625 C 5.742188 -5.429688 6.1875 -4.804688 6.84375 -4.265625 C 7.507812 -3.734375 8.429688 -3.46875 9.609375 -3.46875 C 10.273438 -3.46875 10.859375 -3.550781 11.359375 -3.71875 C 11.867188 -3.882812 12.300781 -4.082031 12.65625 -4.3125 C 13.0625 -4.5625 13.410156 -4.859375 13.703125 -5.203125 L 15.90625 -2.203125 C 15.445312 -1.742188 14.878906 -1.320312 14.203125 -0.9375 C 13.640625 -0.625 12.945312 -0.335938 12.125 -0.078125 C 11.3125 0.179688 10.367188 0.3125 9.296875 0.3125 Z M 12.4375 -9.296875 C 12.207031 -10.003906 11.789062 -10.625 11.1875 -11.15625 C 10.59375 -11.695312 9.859375 -11.96875 8.984375 -11.96875 C 8.097656 -11.96875 7.351562 -11.695312 6.75 -11.15625 C 6.15625 -10.625 5.742188 -10.003906 5.515625 -9.296875 Z M 12.4375 -9.296875 "/></g></g></g><g fill="rgb(99.609375%, 100%, 100%)" fill-opacity="1"><g transform="translate(94.948865, 242.450828)"><g><path d="M 8.03125 0.3125 C 7.125 0.3125 6.25 0.117188 5.40625 -0.265625 C 4.570312 -0.648438 3.832031 -1.203125 3.1875 -1.921875 C 2.550781 -2.640625 2.046875 -3.488281 1.671875 -4.46875 C 1.296875 -5.457031 1.109375 -6.539062 1.109375 -7.71875 C 1.109375 -8.894531 1.296875 -9.972656 1.671875 -10.953125 C 2.046875 -11.941406 2.550781 -12.785156 3.1875 -13.484375 C 3.832031 -14.191406 4.570312 -14.742188 5.40625 -15.140625 C 6.25 -15.546875 7.125 -15.75 8.03125 -15.75 C 8.851562 -15.75 9.566406 -15.617188 10.171875 -15.359375 C 10.785156 -15.097656 11.300781 -14.804688 11.71875 -14.484375 C 12.195312 -14.109375 12.597656 -13.691406 12.921875 -13.234375 L 13.078125 -13.234375 L 13.078125 -22.046875 L 17.328125 -22.046875 L 17.328125 0 L 13.078125 0 L 13.078125 -2.203125 L 12.921875 -2.203125 C 12.597656 -1.742188 12.195312 -1.320312 11.71875 -0.9375 C 11.300781 -0.625 10.785156 -0.335938 10.171875 -0.078125 C 9.566406 0.179688 8.851562 0.3125 8.03125 0.3125 Z M 9.296875 -3.625 C 9.835938 -3.625 10.347656 -3.726562 10.828125 -3.9375 C 11.316406 -4.144531 11.738281 -4.425781 12.09375 -4.78125 C 12.445312 -5.144531 12.722656 -5.578125 12.921875 -6.078125 C 13.128906 -6.578125 13.234375 -7.125 13.234375 -7.71875 C 13.234375 -8.300781 13.128906 -8.84375 12.921875 -9.34375 C 12.722656 -9.851562 12.445312 -10.285156 12.09375 -10.640625 C 11.738281 -11.003906 11.316406 -11.289062 10.828125 -11.5 C 10.347656 -11.707031 9.835938 -11.8125 9.296875 -11.8125 C 8.742188 -11.8125 8.226562 -11.707031 7.75 -11.5 C 7.269531 -11.289062 6.847656 -11.003906 6.484375 -10.640625 C 6.128906 -10.285156 5.851562 -9.851562 5.65625 -9.34375 C 5.457031 -8.84375 5.359375 -8.300781 5.359375 -7.71875 C 5.359375 -7.125 5.457031 -6.578125 5.65625 -6.078125 C 5.851562 -5.578125 6.128906 -5.144531 6.484375 -4.78125 C 6.847656 -4.425781 7.269531 -4.144531 7.75 -3.9375 C 8.226562 -3.726562 8.742188 -3.625 9.296875 -3.625 Z M 9.296875 -3.625 "/></g></g></g><g fill="rgb(99.609375%, 100%, 100%)" fill-opacity="1"><g transform="translate(113.84889, 242.450828)"><g><path d="M 9.296875 0.3125 C 8.160156 0.3125 7.09375 0.101562 6.09375 -0.3125 C 5.09375 -0.726562 4.21875 -1.304688 3.46875 -2.046875 C 2.726562 -2.785156 2.148438 -3.632812 1.734375 -4.59375 C 1.316406 -5.5625 1.109375 -6.601562 1.109375 -7.71875 C 1.109375 -8.8125 1.316406 -9.84375 1.734375 -10.8125 C 2.148438 -11.789062 2.722656 -12.644531 3.453125 -13.375 C 4.191406 -14.113281 5.046875 -14.691406 6.015625 -15.109375 C 6.984375 -15.535156 8.023438 -15.75 9.140625 -15.75 C 10.203125 -15.75 11.203125 -15.539062 12.140625 -15.125 C 13.078125 -14.71875 13.890625 -14.164062 14.578125 -13.46875 C 15.273438 -12.78125 15.828125 -11.96875 16.234375 -11.03125 C 16.648438 -10.101562 16.859375 -9.101562 16.859375 -8.03125 C 16.859375 -7.738281 16.847656 -7.484375 16.828125 -7.265625 C 16.804688 -7.046875 16.785156 -6.847656 16.765625 -6.671875 C 16.734375 -6.460938 16.707031 -6.285156 16.6875 -6.140625 L 5.515625 -6.140625 C 5.742188 -5.429688 6.1875 -4.804688 6.84375 -4.265625 C 7.507812 -3.734375 8.429688 -3.46875 9.609375 -3.46875 C 10.273438 -3.46875 10.859375 -3.550781 11.359375 -3.71875 C 11.867188 -3.882812 12.300781 -4.082031 12.65625 -4.3125 C 13.0625 -4.5625 13.410156 -4.859375 13.703125 -5.203125 L 15.90625 -2.203125 C 15.445312 -1.742188 14.878906 -1.320312 14.203125 -0.9375 C 13.640625 -0.625 12.945312 -0.335938 12.125 -0.078125 C 11.3125 0.179688 10.367188 0.3125 9.296875 0.3125 Z M 12.4375 -9.296875 C 12.207031 -10.003906 11.789062 -10.625 11.1875 -11.15625 C 10.59375 -11.695312 9.859375 -11.96875 8.984375 -11.96875 C 8.097656 -11.96875 7.351562 -11.695312 6.75 -11.15625 C 6.15625 -10.625 5.742188 -10.003906 5.515625 -9.296875 Z M 12.4375 -9.296875 "/></g></g></g><g fill="rgb(99.609375%, 100%, 100%)" fill-opacity="1"><g transform="translate(131.173916, 242.450828)"><g/></g></g><g fill="rgb(99.609375%, 100%, 100%)" fill-opacity="1"><g transform="translate(137.158924, 242.450828)"><g><path d="M 13.390625 0.46875 C 11.691406 0.46875 10.109375 0.164062 8.640625 -0.4375 C 7.179688 -1.050781 5.914062 -1.875 4.84375 -2.90625 C 3.78125 -3.945312 2.941406 -5.164062 2.328125 -6.5625 C 1.722656 -7.957031 1.421875 -9.445312 1.421875 -11.03125 C 1.421875 -12.601562 1.722656 -14.085938 2.328125 -15.484375 C 2.941406 -16.878906 3.78125 -18.097656 4.84375 -19.140625 C 5.914062 -20.179688 7.179688 -21.003906 8.640625 -21.609375 C 10.109375 -22.210938 11.691406 -22.515625 13.390625 -22.515625 C 14.921875 -22.515625 16.269531 -22.285156 17.4375 -21.828125 C 18.601562 -21.367188 19.570312 -20.863281 20.34375 -20.3125 C 21.25 -19.664062 22.03125 -18.929688 22.6875 -18.109375 L 19.53125 -14.96875 C 19.070312 -15.550781 18.535156 -16.070312 17.921875 -16.53125 C 17.398438 -16.9375 16.757812 -17.300781 16 -17.625 C 15.25 -17.945312 14.378906 -18.109375 13.390625 -18.109375 C 12.398438 -18.109375 11.472656 -17.925781 10.609375 -17.5625 C 9.753906 -17.195312 9.003906 -16.691406 8.359375 -16.046875 C 7.722656 -15.410156 7.21875 -14.660156 6.84375 -13.796875 C 6.476562 -12.929688 6.296875 -12.007812 6.296875 -11.03125 C 6.296875 -10.039062 6.476562 -9.113281 6.84375 -8.25 C 7.21875 -7.394531 7.722656 -6.644531 8.359375 -6 C 9.003906 -5.363281 9.753906 -4.859375 10.609375 -4.484375 C 11.472656 -4.117188 12.398438 -3.9375 13.390625 -3.9375 C 14.421875 -3.9375 15.320312 -4.097656 16.09375 -4.421875 C 16.875 -4.742188 17.535156 -5.109375 18.078125 -5.515625 C 18.710938 -5.972656 19.25 -6.5 19.6875 -7.09375 L 22.84375 -3.9375 C 22.1875 -3.113281 21.394531 -2.378906 20.46875 -1.734375 C 19.675781 -1.179688 18.691406 -0.675781 17.515625 -0.21875 C 16.335938 0.238281 14.960938 0.46875 13.390625 0.46875 Z M 13.390625 0.46875 "/></g></g></g><g fill="rgb(99.609375%, 100%, 100%)" fill-opacity="1"><g transform="translate(159.996455, 242.450828)"><g><path d="M 2.046875 -15.4375 L 6.296875 -15.4375 L 6.296875 -13.234375 L 6.453125 -13.234375 C 6.796875 -13.691406 7.1875 -14.109375 7.625 -14.484375 C 8 -14.804688 8.46875 -15.097656 9.03125 -15.359375 C 9.601562 -15.617188 10.269531 -15.75 11.03125 -15.75 L 11.34375 -15.75 L 11.34375 -11.1875 C 11.238281 -11.207031 11.125 -11.226562 11 -11.25 C 10.863281 -11.269531 10.707031 -11.289062 10.53125 -11.3125 C 10.351562 -11.332031 10.148438 -11.34375 9.921875 -11.34375 C 8.890625 -11.34375 8.023438 -10.972656 7.328125 -10.234375 C 6.640625 -9.503906 6.296875 -8.507812 6.296875 -7.25 L 6.296875 0 L 2.046875 0 Z M 2.046875 -15.4375 "/></g></g></g><g fill="rgb(99.609375%, 100%, 100%)" fill-opacity="1"><g transform="translate(171.336473, 242.450828)"><g><path d="M 9.296875 0.3125 C 8.160156 0.3125 7.09375 0.101562 6.09375 -0.3125 C 5.09375 -0.726562 4.21875 -1.304688 3.46875 -2.046875 C 2.726562 -2.785156 2.148438 -3.632812 1.734375 -4.59375 C 1.316406 -5.5625 1.109375 -6.601562 1.109375 -7.71875 C 1.109375 -8.8125 1.316406 -9.84375 1.734375 -10.8125 C 2.148438 -11.789062 2.722656 -12.644531 3.453125 -13.375 C 4.191406 -14.113281 5.046875 -14.691406 6.015625 -15.109375 C 6.984375 -15.535156 8.023438 -15.75 9.140625 -15.75 C 10.203125 -15.75 11.203125 -15.539062 12.140625 -15.125 C 13.078125 -14.71875 13.890625 -14.164062 14.578125 -13.46875 C 15.273438 -12.78125 15.828125 -11.96875 16.234375 -11.03125 C 16.648438 -10.101562 16.859375 -9.101562 16.859375 -8.03125 C 16.859375 -7.738281 16.847656 -7.484375 16.828125 -7.265625 C 16.804688 -7.046875 16.785156 -6.847656 16.765625 -6.671875 C 16.734375 -6.460938 16.707031 -6.285156 16.6875 -6.140625 L 5.515625 -6.140625 C 5.742188 -5.429688 6.1875 -4.804688 6.84375 -4.265625 C 7.507812 -3.734375 8.429688 -3.46875 9.609375 -3.46875 C 10.273438 -3.46875 10.859375 -3.550781 11.359375 -3.71875 C 11.867188 -3.882812 12.300781 -4.082031 12.65625 -4.3125 C 13.0625 -4.5625 13.410156 -4.859375 13.703125 -5.203125 L 15.90625 -2.203125 C 15.445312 -1.742188 14.878906 -1.320312 14.203125 -0.9375 C 13.640625 -0.625 12.945312 -0.335938 12.125 -0.078125 C 11.3125 0.179688 10.367188 0.3125 9.296875 0.3125 Z M 12.4375 -9.296875 C 12.207031 -10.003906 11.789062 -10.625 11.1875 -11.15625 C 10.59375 -11.695312 9.859375 -11.96875 8.984375 -11.96875 C 8.097656 -11.96875 7.351562 -11.695312 6.75 -11.15625 C 6.15625 -10.625 5.742188 -10.003906 5.515625 -9.296875 Z M 12.4375 -9.296875 "/></g></g></g><g fill="rgb(99.609375%, 100%, 100%)" fill-opacity="1"><g transform="translate(188.6615, 242.450828)"><g><path d="M 8.03125 0.3125 C 7.125 0.3125 6.25 0.117188 5.40625 -0.265625 C 4.570312 -0.648438 3.832031 -1.203125 3.1875 -1.921875 C 2.550781 -2.640625 2.046875 -3.488281 1.671875 -4.46875 C 1.296875 -5.457031 1.109375 -6.539062 1.109375 -7.71875 C 1.109375 -8.894531 1.296875 -9.972656 1.671875 -10.953125 C 2.046875 -11.941406 2.550781 -12.785156 3.1875 -13.484375 C 3.832031 -14.191406 4.570312 -14.742188 5.40625 -15.140625 C 6.25 -15.546875 7.125 -15.75 8.03125 -15.75 C 8.851562 -15.75 9.566406 -15.617188 10.171875 -15.359375 C 10.785156 -15.097656 11.300781 -14.804688 11.71875 -14.484375 C 12.195312 -14.109375 12.597656 -13.691406 12.921875 -13.234375 L 13.078125 -13.234375 L 13.078125 -22.046875 L 17.328125 -22.046875 L 17.328125 0 L 13.078125 0 L 13.078125 -2.203125 L 12.921875 -2.203125 C 12.597656 -1.742188 12.195312 -1.320312 11.71875 -0.9375 C 11.300781 -0.625 10.785156 -0.335938 10.171875 -0.078125 C 9.566406 0.179688 8.851562 0.3125 8.03125 0.3125 Z M 9.296875 -3.625 C 9.835938 -3.625 10.347656 -3.726562 10.828125 -3.9375 C 11.316406 -4.144531 11.738281 -4.425781 12.09375 -4.78125 C 12.445312 -5.144531 12.722656 -5.578125 12.921875 -6.078125 C 13.128906 -6.578125 13.234375 -7.125 13.234375 -7.71875 C 13.234375 -8.300781 13.128906 -8.84375 12.921875 -9.34375 C 12.722656 -9.851562 12.445312 -10.285156 12.09375 -10.640625 C 11.738281 -11.003906 11.316406 -11.289062 10.828125 -11.5 C 10.347656 -11.707031 9.835938 -11.8125 9.296875 -11.8125 C 8.742188 -11.8125 8.226562 -11.707031 7.75 -11.5 C 7.269531 -11.289062 6.847656 -11.003906 6.484375 -10.640625 C 6.128906 -10.285156 5.851562 -9.851562 5.65625 -9.34375 C 5.457031 -8.84375 5.359375 -8.300781 5.359375 -7.71875 C 5.359375 -7.125 5.457031 -6.578125 5.65625 -6.078125 C 5.851562 -5.578125 6.128906 -5.144531 6.484375 -4.78125 C 6.847656 -4.425781 7.269531 -4.144531 7.75 -3.9375 C 8.226562 -3.726562 8.742188 -3.625 9.296875 -3.625 Z M 9.296875 -3.625 "/></g></g></g><g fill="rgb(99.609375%, 100%, 100%)" fill-opacity="1"><g transform="translate(207.561531, 242.450828)"><g><path d="M 9.296875 0.3125 C 8.160156 0.3125 7.09375 0.101562 6.09375 -0.3125 C 5.09375 -0.726562 4.21875 -1.304688 3.46875 -2.046875 C 2.726562 -2.785156 2.148438 -3.632812 1.734375 -4.59375 C 1.316406 -5.5625 1.109375 -6.601562 1.109375 -7.71875 C 1.109375 -8.8125 1.316406 -9.84375 1.734375 -10.8125 C 2.148438 -11.789062 2.722656 -12.644531 3.453125 -13.375 C 4.191406 -14.113281 5.046875 -14.691406 6.015625 -15.109375 C 6.984375 -15.535156 8.023438 -15.75 9.140625 -15.75 C 10.203125 -15.75 11.203125 -15.539062 12.140625 -15.125 C 13.078125 -14.71875 13.890625 -14.164062 14.578125 -13.46875 C 15.273438 -12.78125 15.828125 -11.96875 16.234375 -11.03125 C 16.648438 -10.101562 16.859375 -9.101562 16.859375 -8.03125 C 16.859375 -7.738281 16.847656 -7.484375 16.828125 -7.265625 C 16.804688 -7.046875 16.785156 -6.847656 16.765625 -6.671875 C 16.734375 -6.460938 16.707031 -6.285156 16.6875 -6.140625 L 5.515625 -6.140625 C 5.742188 -5.429688 6.1875 -4.804688 6.84375 -4.265625 C 7.507812 -3.734375 8.429688 -3.46875 9.609375 -3.46875 C 10.273438 -3.46875 10.859375 -3.550781 11.359375 -3.71875 C 11.867188 -3.882812 12.300781 -4.082031 12.65625 -4.3125 C 13.0625 -4.5625 13.410156 -4.859375 13.703125 -5.203125 L 15.90625 -2.203125 C 15.445312 -1.742188 14.878906 -1.320312 14.203125 -0.9375 C 13.640625 -0.625 12.945312 -0.335938 12.125 -0.078125 C 11.3125 0.179688 10.367188 0.3125 9.296875 0.3125 Z M 12.4375 -9.296875 C 12.207031 -10.003906 11.789062 -10.625 11.1875 -11.15625 C 10.59375 -11.695312 9.859375 -11.96875 8.984375 -11.96875 C 8.097656 -11.96875 7.351562 -11.695312 6.75 -11.15625 C 6.15625 -10.625 5.742188 -10.003906 5.515625 -9.296875 Z M 12.4375 -9.296875 "/></g></g></g><g fill="rgb(99.609375%, 100%, 100%)" fill-opacity="1"><g transform="translate(224.886558, 242.450828)"><g><path d="M 2.046875 -15.4375 L 6.296875 -15.4375 L 6.296875 -13.234375 L 6.453125 -13.234375 C 6.796875 -13.691406 7.1875 -14.109375 7.625 -14.484375 C 8 -14.804688 8.46875 -15.097656 9.03125 -15.359375 C 9.601562 -15.617188 10.269531 -15.75 11.03125 -15.75 C 11.800781 -15.75 12.53125 -15.597656 13.21875 -15.296875 C 13.914062 -14.992188 14.519531 -14.5625 15.03125 -14 C 15.550781 -13.445312 15.957031 -12.769531 16.25 -11.96875 C 16.539062 -11.164062 16.6875 -10.273438 16.6875 -9.296875 L 16.6875 0 L 12.4375 0 L 12.4375 -8.65625 C 12.4375 -9.601562 12.1875 -10.335938 11.6875 -10.859375 C 11.1875 -11.390625 10.492188 -11.65625 9.609375 -11.65625 C 8.660156 -11.65625 7.867188 -11.332031 7.234375 -10.6875 C 6.609375 -10.050781 6.296875 -9.21875 6.296875 -8.1875 L 6.296875 0 L 2.046875 0 Z M 2.046875 -15.4375 "/></g></g></g><g fill="rgb(99.609375%, 100%, 100%)" fill-opacity="1"><g transform="translate(242.999086, 242.450828)"><g><path d="M 9.296875 0.3125 C 8.160156 0.3125 7.09375 0.101562 6.09375 -0.3125 C 5.09375 -0.726562 4.21875 -1.304688 3.46875 -2.046875 C 2.726562 -2.785156 2.148438 -3.632812 1.734375 -4.59375 C 1.316406 -5.5625 1.109375 -6.601562 1.109375 -7.71875 C 1.109375 -8.8125 1.316406 -9.84375 1.734375 -10.8125 C 2.148438 -11.789062 2.726562 -12.644531 3.46875 -13.375 C 4.21875 -14.113281 5.09375 -14.691406 6.09375 -15.109375 C 7.09375 -15.535156 8.160156 -15.75 9.296875 -15.75 C 10.410156 -15.75 11.363281 -15.585938 12.15625 -15.265625 C 12.957031 -14.941406 13.628906 -14.578125 14.171875 -14.171875 C 14.804688 -13.710938 15.332031 -13.1875 15.75 -12.59375 L 13.078125 -9.921875 C 12.773438 -10.273438 12.4375 -10.59375 12.0625 -10.875 C 11.726562 -11.101562 11.328125 -11.316406 10.859375 -11.515625 C 10.398438 -11.710938 9.878906 -11.8125 9.296875 -11.8125 C 8.742188 -11.8125 8.226562 -11.707031 7.75 -11.5 C 7.269531 -11.289062 6.847656 -11.003906 6.484375 -10.640625 C 6.128906 -10.285156 5.851562 -9.851562 5.65625 -9.34375 C 5.457031 -8.84375 5.359375 -8.300781 5.359375 -7.71875 C 5.359375 -7.125 5.457031 -6.578125 5.65625 -6.078125 C 5.851562 -5.578125 6.128906 -5.144531 6.484375 -4.78125 C 6.847656 -4.425781 7.269531 -4.144531 7.75 -3.9375 C 8.226562 -3.726562 8.742188 -3.625 9.296875 -3.625 C 9.878906 -3.625 10.398438 -3.722656 10.859375 -3.921875 C 11.328125 -4.117188 11.726562 -4.332031 12.0625 -4.5625 C 12.4375 -4.84375 12.773438 -5.160156 13.078125 -5.515625 L 15.75 -2.828125 C 15.332031 -2.242188 14.804688 -1.722656 14.171875 -1.265625 C 13.628906 -0.859375 12.957031 -0.492188 12.15625 -0.171875 C 11.363281 0.148438 10.410156 0.3125 9.296875 0.3125 Z M 9.296875 0.3125 "/></g></g></g><g fill="rgb(99.609375%, 100%, 100%)" fill-opacity="1"><g transform="translate(258.749109, 242.450828)"><g><path d="M 2.046875 -15.4375 L 6.296875 -15.4375 L 6.296875 0 L 2.046875 0 Z M 4.15625 -17.484375 C 3.488281 -17.484375 2.914062 -17.71875 2.4375 -18.1875 C 1.96875 -18.664062 1.734375 -19.21875 1.734375 -19.84375 C 1.734375 -20.476562 1.972656 -21.03125 2.453125 -21.5 C 2.941406 -21.96875 3.519531 -22.203125 4.1875 -22.203125 C 4.863281 -22.203125 5.4375 -21.96875 5.90625 -21.5 C 6.375 -21.03125 6.609375 -20.476562 6.609375 -19.84375 C 6.609375 -19.21875 6.367188 -18.664062 5.890625 -18.1875 C 5.410156 -17.71875 4.832031 -17.484375 4.15625 -17.484375 Z M 4.15625 -17.484375 "/></g></g></g><g fill="rgb(99.609375%, 100%, 100%)" fill-opacity="1"><g transform="translate(266.466615, 242.450828)"><g><path d="M 5.984375 0.3125 C 5.265625 0.3125 4.617188 0.203125 4.046875 -0.015625 C 3.472656 -0.234375 2.976562 -0.539062 2.5625 -0.9375 C 2.15625 -1.34375 1.835938 -1.8125 1.609375 -2.34375 C 1.378906 -2.882812 1.265625 -3.46875 1.265625 -4.09375 C 1.265625 -5.351562 1.664062 -6.425781 2.46875 -7.3125 C 3.28125 -8.207031 4.398438 -8.785156 5.828125 -9.046875 L 10.703125 -9.921875 C 10.617188 -10.460938 10.351562 -10.9375 9.90625 -11.34375 C 9.457031 -11.757812 8.832031 -11.96875 8.03125 -11.96875 C 7.488281 -11.96875 7 -11.878906 6.5625 -11.703125 C 6.132812 -11.523438 5.773438 -11.320312 5.484375 -11.09375 C 5.128906 -10.832031 4.820312 -10.546875 4.5625 -10.234375 L 2.046875 -12.75 C 2.484375 -13.300781 3.019531 -13.796875 3.65625 -14.234375 C 4.195312 -14.617188 4.851562 -14.96875 5.625 -15.28125 C 6.40625 -15.59375 7.3125 -15.75 8.34375 -15.75 C 9.332031 -15.75 10.226562 -15.59375 11.03125 -15.28125 C 11.84375 -14.96875 12.539062 -14.53125 13.125 -13.96875 C 13.71875 -13.414062 14.171875 -12.765625 14.484375 -12.015625 C 14.804688 -11.273438 14.96875 -10.472656 14.96875 -9.609375 L 14.96875 0 L 10.703125 0 L 10.703125 -1.890625 L 10.546875 -1.890625 C 10.210938 -1.472656 9.828125 -1.101562 9.390625 -0.78125 C 9.003906 -0.488281 8.523438 -0.234375 7.953125 -0.015625 C 7.378906 0.203125 6.722656 0.3125 5.984375 0.3125 Z M 7.40625 -3.15625 C 8.34375 -3.15625 9.125 -3.472656 9.75 -4.109375 C 10.382812 -4.753906 10.703125 -5.585938 10.703125 -6.609375 L 10.703125 -6.9375 L 7.25 -6.296875 C 6.695312 -6.191406 6.269531 -6.003906 5.96875 -5.734375 C 5.664062 -5.460938 5.515625 -5.125 5.515625 -4.71875 C 5.515625 -4.238281 5.671875 -3.859375 5.984375 -3.578125 C 6.296875 -3.296875 6.769531 -3.15625 7.40625 -3.15625 Z M 7.40625 -3.15625 "/></g></g></g><g fill="rgb(99.609375%, 100%, 100%)" fill-opacity="1"><g transform="translate(282.846634, 242.450828)"><g><path d="M 8.03125 0.3125 C 7.125 0.3125 6.25 0.117188 5.40625 -0.265625 C 4.570312 -0.648438 3.832031 -1.203125 3.1875 -1.921875 C 2.550781 -2.640625 2.046875 -3.488281 1.671875 -4.46875 C 1.296875 -5.457031 1.109375 -6.539062 1.109375 -7.71875 C 1.109375 -8.894531 1.296875 -9.972656 1.671875 -10.953125 C 2.046875 -11.941406 2.550781 -12.785156 3.1875 -13.484375 C 3.832031 -14.191406 4.570312 -14.742188 5.40625 -15.140625 C 6.25 -15.546875 7.125 -15.75 8.03125 -15.75 C 8.851562 -15.75 9.566406 -15.617188 10.171875 -15.359375 C 10.785156 -15.097656 11.300781 -14.804688 11.71875 -14.484375 C 12.195312 -14.109375 12.597656 -13.691406 12.921875 -13.234375 L 13.078125 -13.234375 L 13.078125 -22.046875 L 17.328125 -22.046875 L 17.328125 0 L 13.078125 0 L 13.078125 -2.203125 L 12.921875 -2.203125 C 12.597656 -1.742188 12.195312 -1.320312 11.71875 -0.9375 C 11.300781 -0.625 10.785156 -0.335938 10.171875 -0.078125 C 9.566406 0.179688 8.851562 0.3125 8.03125 0.3125 Z M 9.296875 -3.625 C 9.835938 -3.625 10.347656 -3.726562 10.828125 -3.9375 C 11.316406 -4.144531 11.738281 -4.425781 12.09375 -4.78125 C 12.445312 -5.144531 12.722656 -5.578125 12.921875 -6.078125 C 13.128906 -6.578125 13.234375 -7.125 13.234375 -7.71875 C 13.234375 -8.300781 13.128906 -8.84375 12.921875 -9.34375 C 12.722656 -9.851562 12.445312 -10.285156 12.09375 -10.640625 C 11.738281 -11.003906 11.316406 -11.289062 10.828125 -11.5 C 10.347656 -11.707031 9.835938 -11.8125 9.296875 -11.8125 C 8.742188 -11.8125 8.226562 -11.707031 7.75 -11.5 C 7.269531 -11.289062 6.847656 -11.003906 6.484375 -10.640625 C 6.128906 -10.285156 5.851562 -9.851562 5.65625 -9.34375 C 5.457031 -8.84375 5.359375 -8.300781 5.359375 -7.71875 C 5.359375 -7.125 5.457031 -6.578125 5.65625 -6.078125 C 5.851562 -5.578125 6.128906 -5.144531 6.484375 -4.78125 C 6.847656 -4.425781 7.269531 -4.144531 7.75 -3.9375 C 8.226562 -3.726562 8.742188 -3.625 9.296875 -3.625 Z M 9.296875 -3.625 "/></g></g></g><g fill="rgb(99.609375%, 100%, 100%)" fill-opacity="1"><g transform="translate(301.746665, 242.450828)"><g><path d="M 5.984375 0.3125 C 5.265625 0.3125 4.617188 0.203125 4.046875 -0.015625 C 3.472656 -0.234375 2.976562 -0.539062 2.5625 -0.9375 C 2.15625 -1.34375 1.835938 -1.8125 1.609375 -2.34375 C 1.378906 -2.882812 1.265625 -3.46875 1.265625 -4.09375 C 1.265625 -5.351562 1.664062 -6.425781 2.46875 -7.3125 C 3.28125 -8.207031 4.398438 -8.785156 5.828125 -9.046875 L 10.703125 -9.921875 C 10.617188 -10.460938 10.351562 -10.9375 9.90625 -11.34375 C 9.457031 -11.757812 8.832031 -11.96875 8.03125 -11.96875 C 7.488281 -11.96875 7 -11.878906 6.5625 -11.703125 C 6.132812 -11.523438 5.773438 -11.320312 5.484375 -11.09375 C 5.128906 -10.832031 4.820312 -10.546875 4.5625 -10.234375 L 2.046875 -12.75 C 2.484375 -13.300781 3.019531 -13.796875 3.65625 -14.234375 C 4.195312 -14.617188 4.851562 -14.96875 5.625 -15.28125 C 6.40625 -15.59375 7.3125 -15.75 8.34375 -15.75 C 9.332031 -15.75 10.226562 -15.59375 11.03125 -15.28125 C 11.84375 -14.96875 12.539062 -14.53125 13.125 -13.96875 C 13.71875 -13.414062 14.171875 -12.765625 14.484375 -12.015625 C 14.804688 -11.273438 14.96875 -10.472656 14.96875 -9.609375 L 14.96875 0 L 10.703125 0 L 10.703125 -1.890625 L 10.546875 -1.890625 C 10.210938 -1.472656 9.828125 -1.101562 9.390625 -0.78125 C 9.003906 -0.488281 8.523438 -0.234375 7.953125 -0.015625 C 7.378906 0.203125 6.722656 0.3125 5.984375 0.3125 Z M 7.40625 -3.15625 C 8.34375 -3.15625 9.125 -3.472656 9.75 -4.109375 C 10.382812 -4.753906 10.703125 -5.585938 10.703125 -6.609375 L 10.703125 -6.9375 L 7.25 -6.296875 C 6.695312 -6.191406 6.269531 -6.003906 5.96875 -5.734375 C 5.664062 -5.460938 5.515625 -5.125 5.515625 -4.71875 C 5.515625 -4.238281 5.671875 -3.859375 5.984375 -3.578125 C 6.296875 -3.296875 6.769531 -3.15625 7.40625 -3.15625 Z M 7.40625 -3.15625 "/></g></g></g></svg>